<svg width="58" height="86" viewBox="0 0 58 86" fill="none" xmlns="http://www.w3.org/2000/svg">
<g clip-path="url(#clip0_62_332)">
<path d="M15.8039 20.2634C15.6472 19.7426 15.5882 19.1974 15.63 18.6552C15.6821 18.1944 15.7082 18.151 15.7778 18.0467C15.8473 17.9424 16.1951 17.8641 16.3515 17.8467C16.508 17.8293 16.7688 17.8467 16.7688 17.5512C16.7688 17.2556 16.3863 17.2643 16.195 17.2121C15.9307 17.1825 15.6757 17.0966 15.4474 16.96C15.2823 16.7949 15.3605 16.8383 15.3605 16.8383C15.3605 16.8383 15.7343 16.8383 16.0125 16.7862C16.1571 16.7985 16.3025 16.7985 16.4472 16.7862C16.5602 16.7862 16.595 16.7166 16.595 16.621C16.6078 16.4068 16.6078 16.192 16.595 15.9777C16.595 15.8473 16.5515 15.6213 16.5515 15.517C16.5515 15.4127 16.5515 15.404 16.482 15.3779C16.4124 15.3518 16.482 14.213 16.482 14.074C16.482 13.9349 16.482 12.4744 16.482 12.3354C16.482 12.1963 16.482 12.0572 16.482 12.0572C16.4916 11.8903 16.4739 11.7229 16.4297 11.5617C16.4297 11.4661 16.308 11.3444 16.2124 11.327C16.1168 11.3096 14.7346 11.2748 14.4738 11.2661H12.544C12.1441 11.2661 11.5617 11.2661 11.1096 11.2661C10.6576 11.2661 10.1273 11.2661 9.72747 11.2661H7.79764C7.55424 11.2661 6.17205 11.2661 6.05904 11.3183C5.94603 11.3704 5.88518 11.4574 5.84171 11.553C5.79855 11.7144 5.7809 11.8816 5.78951 12.0485C5.78951 12.0485 5.78951 12.1876 5.78951 12.3267C5.78951 12.4658 5.78951 13.9262 5.78951 14.0653C5.78951 14.2044 5.78951 15.3692 5.78951 15.3692C5.78951 15.3692 5.73739 15.3692 5.7287 15.5083C5.72001 15.6474 5.7287 15.8386 5.7287 15.9777C5.7287 16.1168 5.7287 16.5167 5.7287 16.6123C5.72625 16.6343 5.72842 16.6565 5.73517 16.6775C5.74193 16.6986 5.75308 16.718 5.76786 16.7344C5.78264 16.7508 5.8007 16.7639 5.82092 16.7728C5.84113 16.7818 5.86302 16.7863 5.88512 16.7862C6.02897 16.8095 6.17413 16.8241 6.31977 16.8296C6.58925 16.8296 6.97174 16.8296 6.97174 16.8296C6.97174 16.8296 7.0413 16.8296 6.87613 16.96C6.71096 17.0904 6.32848 17.1513 6.12855 17.2034C5.92861 17.2556 5.55478 17.2904 5.55478 17.5425C5.55478 17.7946 5.81555 17.8206 5.97202 17.838C6.1285 17.8554 6.48494 17.9424 6.54579 18.0467C6.60664 18.151 6.64145 18.1858 6.68491 18.6465C6.73133 19.1916 6.67224 19.7406 6.51099 20.2634C6.30004 20.8521 5.97845 21.395 5.56348 21.8629C5.12883 22.3758 4.64206 22.9669 4.08571 23.6015C3.40786 24.3287 2.79145 25.1109 2.24279 25.9399C1.82862 26.7253 1.46282 27.5353 1.14747 28.3653C0.997145 29.0531 0.930034 29.7565 0.947543 30.4603C0.972445 30.8134 1.01882 31.1647 1.08655 31.5121C1.08655 31.7556 1.08655 33.3377 1.08655 35.4849C1.08655 37.632 1.08655 41.1962 1.08655 41.6656C1.16698 42.1986 1.16698 42.7407 1.08655 43.2738C0.965594 43.4809 0.922431 43.7244 0.96484 43.9605C0.923726 44.3146 1.02372 44.6706 1.24308 44.9515C1.51256 45.2645 1.84284 45.3688 1.84284 45.6383C1.84284 45.9078 1.61685 45.9165 1.32998 46.2294C1.04311 46.5424 1.0083 46.4728 0.956138 47.4377C1.01849 48.7464 1.24037 50.0426 1.61682 51.2974C1.93553 52.9243 2.10148 54.5774 2.11238 56.2351C2.11629 57.3232 2.01442 58.4092 1.80814 59.4776C1.68644 60.2252 1.56473 61.3118 1.4778 62.5549C1.39087 63.9719 1.34736 65.5105 1.32128 65.78C1.32128 66.2842 1.20833 68.5096 1.26918 69.066C1.3308 69.571 1.50613 70.0555 1.78204 70.4829C1.98198 70.7698 2.12107 70.7437 1.78204 71.0741C1.22957 71.7526 0.961616 72.6188 1.03445 73.4907C1.29038 74.4912 1.59789 75.4777 1.95586 76.4463C2.19674 76.9599 2.53305 77.4231 2.94687 77.8111C3.14168 78.0599 3.38592 78.2656 3.66422 78.4152C3.94251 78.5648 4.24881 78.6551 4.56376 78.6804C4.90976 78.7293 5.26098 78.7293 5.60699 78.6804C5.90255 78.5674 6.0503 78.2719 6.22416 78.0719C6.56318 77.7068 7.25861 77.0549 7.51071 77.0549C7.7628 77.0549 8.0236 77.3156 8.27569 77.8459C8.35628 78.012 8.44933 78.1719 8.55393 78.324C8.703 78.6053 8.88068 78.8704 9.08419 79.1151C9.24067 79.2716 9.47539 79.2281 9.64056 79.2629C10.1335 79.3247 10.6303 79.3509 11.127 79.3411C11.6209 79.3506 12.1147 79.3245 12.6048 79.2629C12.77 79.2629 13.0047 79.2629 13.1612 79.1151C13.3638 78.8728 13.5415 78.6107 13.6914 78.3327C13.7928 78.1785 13.8857 78.0189 13.9697 77.8546C14.2218 77.3243 14.4739 77.0635 14.7347 77.0635C14.9954 77.0635 15.6822 77.7242 16.0212 78.0893" stroke="white" stroke-width="1.5" stroke-linecap="round" stroke-linejoin="round"/>
<path d="M40.1792 78.8109C40.3607 78.8378 40.5452 78.8378 40.7267 78.8109C40.9516 78.7466 41.1723 78.6682 41.3874 78.5762C42.2094 79.0556 43.1325 79.3354 44.0823 79.3934C44.6081 79.4002 45.1329 79.3477 45.647 79.2369C46.1669 79.3475 46.6976 79.4 47.2292 79.3934C48.176 79.3341 49.0959 79.0543 49.9153 78.5762C50.1304 78.6682 50.3511 78.7466 50.576 78.8109C50.7575 78.8378 50.9421 78.8378 51.1236 78.8109C51.2366 78.8109 51.4714 79.1674 51.6713 79.1674C51.8712 79.1674 52.9753 79.1065 53.3056 79.1674C53.7384 79.2235 54.1767 79.2235 54.6095 79.1674C54.7764 79.109 54.939 79.0393 55.0963 78.9587C55.4905 78.6753 55.7928 78.2824 55.9656 77.8286C56.1202 77.348 56.2251 76.8528 56.2785 76.3508C56.2785 75.9162 56.4264 74.6731 56.4351 74.2906C56.4351 73.9081 56.3482 73.2909 56.3568 73.0301V72.9519C56.3568 72.5085 56.3568 71.7696 56.3568 71.1089C56.3568 70.4483 56.1916 68.5619 56.1655 67.7969C56.1394 67.0319 55.7222 63.2765 55.6614 61.7118C55.6005 60.147 55.3049 57.4261 55.3136 55.6267C55.3136 54.8878 55.3744 53.6186 55.5048 52.3929C55.6874 50.6543 55.9656 49.0113 56.0525 48.3767C56.2003 47.2988 56.3221 45.7688 56.3655 45.2211C56.3964 45.002 56.3964 44.7796 56.3655 44.5605C56.3134 44.3605 56.1742 44.2823 56.1742 44.1345C56.1742 43.9867 56.3394 43.8216 56.409 43.7085C56.4577 43.6418 56.4901 43.5646 56.5037 43.4831C56.5173 43.4016 56.5116 43.3181 56.4872 43.2391C56.3483 42.8997 56.2435 42.5474 56.1742 42.1873C56.1742 41.9526 56.1742 37.6495 56.1742 37.1192C56.1742 36.589 56.3394 30.756 56.3394 30.3822V29.8867C56.407 29.8278 56.4618 29.7559 56.5006 29.6752C56.5395 29.5945 56.5616 29.5067 56.5655 29.4172C56.5655 29.1217 56.1395 28.9304 56.1395 28.6783C56.1395 28.4262 56.4959 28.461 56.4959 27.896C56.4459 27.0422 56.3149 26.1952 56.1047 25.3663C55.7891 24.4117 55.3966 23.4844 54.9312 22.5932C54.5661 21.8804 53.7662 20.8546 52.9056 19.5941C52.3586 18.8163 51.7604 18.0757 51.1149 17.3774C50.5412 16.6559 50.2456 16.5081 50.2456 15.8909C50.2456 15.2737 50.2456 14.7869 50.2456 14.5348C50.6388 14.5161 51.0306 14.4755 51.4192 14.4131V14.4131C51.5393 14.3709 51.6556 14.3185 51.7669 14.2566C51.8077 14.2357 51.8412 14.2029 51.8629 14.1626C51.8847 14.1222 51.8937 14.0762 51.8886 14.0306V14.0306C51.8886 13.848 51.793 13.709 51.4192 13.5699C51.4192 13.5699 51.3061 12.7006 51.2975 12.3963C51.2888 12.0921 51.2975 11.5966 51.1062 11.4662L51.1844 8.45837C51.2095 8.12605 51.1559 7.79249 51.028 7.48475C50.61 7.17291 50.1062 6.99692 49.585 6.98056C49.0286 6.91101 46.2555 6.74585 45.6383 6.74585C45.0211 6.74585 42.2481 6.91101 41.683 6.98056C41.1646 6.99813 40.664 7.17409 40.2487 7.48475C40.1207 7.79249 40.0671 8.12605 40.0921 8.45837L40.1705 11.4575C39.9705 11.5879 39.9791 12.0921 39.9704 12.3963C39.9617 12.7006 39.8574 13.5612 39.8574 13.5612C39.4836 13.7003 39.3881 13.8393 39.3881 14.0219C39.3822 14.0665 39.3899 14.1119 39.41 14.1522C39.4302 14.1924 39.4619 14.2258 39.5011 14.2479C39.6154 14.3097 39.7346 14.362 39.8574 14.4044C40.2431 14.4649 40.6322 14.5026 41.0224 14.5174C41.0224 14.7782 41.0224 15.2998 41.0224 15.8822C41.0224 16.4646 40.7355 16.6385 40.1531 17.36" stroke="white" stroke-width="1.5" stroke-linecap="round" stroke-linejoin="round"/>
<path fill-rule="evenodd" clip-rule="evenodd" d="M40.9354 72.2216C40.8659 71.587 40.579 70.6047 40.5008 69.7441C40.4066 68.6805 40.3689 67.6127 40.3878 66.5451C40.3878 64.8065 40.3878 63.9372 40.3878 63.0679C40.3878 62.1986 40.3877 57.5217 40.4486 54.8443C40.4274 53.7672 40.4768 52.6898 40.5964 51.6192C40.7633 50.4669 40.862 49.3058 40.8919 48.142C40.7654 46.3852 40.3696 44.6583 39.7184 43.0218C38.7302 41.1392 37.8958 39.1798 37.2235 37.1627C36.8739 35.4092 36.9454 33.5978 37.4321 31.8773C37.7972 30.7212 38.9359 27.5308 39.5445 26.0182C40.0646 24.8084 40.271 23.4868 40.1443 22.1759C40.0005 20.3792 39.566 18.6177 38.8578 16.9601C38.3418 16.099 37.6934 15.3246 36.9366 14.6652C36.1316 13.8935 35.2249 13.2354 34.2417 12.7092C33.3724 12.2572 33.4594 12.3268 33.3029 11.9356C33.1236 10.9458 33.0305 9.94233 33.0247 8.93647C33.2418 8.91625 33.457 8.87846 33.668 8.82346C33.9201 8.73653 34.2678 8.54529 34.2156 8.29319C34.1978 8.19256 34.1978 8.08956 34.2156 7.98893C34.2156 7.91939 34.32 7.87593 34.3722 7.83246C34.4243 7.789 34.3113 7.20656 34.2417 7.00662C34.2097 6.74681 34.2097 6.48406 34.2417 6.22425C34.2417 5.92869 34.1548 3.97276 34.1548 3.97276L34.094 2.77313V2.36455C34.1026 2.21545 34.0527 2.06888 33.9549 1.95598C33.6873 1.80605 33.3911 1.71422 33.0856 1.6865C32.9117 1.6865 31.1819 1.37355 30.3995 1.33008C29.9735 1.33008 29.3042 1.33009 28.6609 1.28662H27.9132C27.2438 1.28662 26.5745 1.28662 26.1746 1.33008C25.4009 1.33008 23.671 1.63434 23.4972 1.6778C23.1903 1.70437 22.8932 1.79943 22.6279 1.95598C22.5769 2.00878 22.5374 2.07158 22.512 2.14042C22.4866 2.20925 22.4757 2.28261 22.4801 2.35586V2.76443L22.4193 3.97276C22.4193 3.97276 22.341 5.92869 22.3324 6.21556C22.3648 6.47534 22.3648 6.73815 22.3324 6.99793C22.2628 7.19787 22.0976 7.73684 22.2019 7.86723C22.3063 7.99763 22.3324 7.94547 22.3585 8.02371C22.3763 8.12434 22.3763 8.22733 22.3585 8.32796C22.3063 8.57137 22.6539 8.7713 22.906 8.84954C23.117 8.90454 23.3323 8.94233 23.5494 8.96255C23.5408 9.97154 23.4447 10.9779 23.2625 11.9703C23.1147 12.3528 23.1582 12.292 22.3237 12.7353C21.3417 13.267 20.4354 13.9277 19.6288 14.6999C18.8746 15.3563 18.2291 16.1279 17.7163 16.9862C17.0015 18.642 16.5639 20.4042 16.4211 22.202C16.2917 23.5121 16.4951 24.8337 17.0122 26.0443C17.6207 27.5656 18.7508 30.7472 19.1333 31.9121C19.6137 33.6308 19.6822 35.4386 19.3332 37.1888C18.658 39.2061 17.8208 41.1655 16.8296 43.0479C16.1784 44.6844 15.7826 46.4113 15.6561 48.1681C15.6875 49.3315 15.7833 50.4924 15.943 51.6453C16.0731 52.7151 16.1224 53.7931 16.0907 54.8704C16.169 57.5565 16.1516 62.2855 16.1429 63.0939C16.1342 63.9024 16.0995 64.8326 16.1429 66.5712C16.1662 67.6388 16.1284 68.7069 16.0299 69.7702C15.9517 70.6395 15.6648 71.6131 15.5953 72.2477C15.4806 74.1969 15.6268 76.1528 16.0299 78.0633C16.3779 79.5787 16.9275 81.0406 17.6642 82.4098C17.98 82.8834 18.388 83.2885 18.8638 83.6008C19.3459 83.8743 19.8917 84.0153 20.4459 84.0094C21.5691 83.9125 22.6759 83.676 23.7406 83.3052C24.3589 83.1405 24.9858 83.0099 25.6183 82.914C26.0182 83.3139 26.6962 84.7135 28.374 84.7135C30.0517 84.7135 30.7298 83.3139 31.1384 82.914C31.768 83.0104 32.392 83.141 33.0074 83.3052C34.0705 83.6831 35.1778 83.9226 36.302 84.018C36.8562 84.024 37.4021 83.883 37.8842 83.6095C38.36 83.2972 38.7681 82.8921 39.0838 82.4185C39.8197 81.048 40.372 79.5866 40.7267 78.072C41.0531 76.1395 41.1233 74.1724 40.9354 72.2216V72.2216Z" stroke="white" stroke-width="2" stroke-linecap="round" stroke-linejoin="round"/>
</g>
<defs>
<clipPath id="clip0_62_332">
<rect width="57.5043" height="86" fill="white"/>
</clipPath>
</defs>
</svg>
