<svg width="65" height="65" viewBox="0 0 65 65" fill="none" xmlns="http://www.w3.org/2000/svg">
<path d="M34.6542 61.276H33.7894C33.5427 61.2749 33.3028 61.1958 33.1038 61.05L32.8701 60.8864C32.5908 60.7222 32.3297 60.529 32.091 60.3099C30.4341 58.6686 28.7902 57.0169 27.1593 55.3549C26.8719 55.0948 26.6421 54.7774 26.4849 54.4232C26.3277 54.0689 26.2464 53.6856 26.2464 53.298C26.2464 52.9104 26.3277 52.5272 26.4849 52.1729C26.6421 51.8186 26.8719 51.5012 27.1593 51.2412L28.3357 50.057L29.2862 49.0831C29.3878 48.9984 29.4713 48.894 29.5315 48.7761C29.5918 48.6583 29.6276 48.5295 29.6368 48.3975C29.6093 48.2739 29.5573 48.157 29.4836 48.0539C29.41 47.9509 29.3164 47.8637 29.2083 47.7976C28.0708 46.925 26.9256 46.0654 25.7725 45.2188C25.3701 44.9355 25.0446 44.5563 24.8256 44.1155C24.6066 43.6748 24.5009 43.1864 24.5181 42.6945C24.5181 42.0868 24.5181 41.4791 24.5181 40.8715V39.4223C24.0585 39.2042 23.5988 38.9705 23.1391 38.7367L22.6639 38.4952C22.1677 38.2704 21.7487 37.9046 21.4591 37.4432C21.1695 36.9818 21.0222 36.4454 21.0356 35.9008C21.0356 35.7216 21.0356 35.5502 21.0356 35.371C21.0356 35.1918 21.0356 34.7945 21.0356 34.4984C20.2565 34.2647 19.5631 34.0232 18.8385 33.7817L17.9192 33.5012C17.4149 33.3694 16.9593 33.0949 16.6069 32.7108C16.2546 32.3267 16.0204 31.8491 15.9325 31.3353C15.8759 30.9537 15.8524 30.5679 15.8624 30.1823V30.1199L13.2446 31.3821C12.6627 31.7594 11.9615 31.9076 11.2766 31.7983C10.5918 31.6889 9.97167 31.3297 9.53612 30.7899L8.57005 29.8083C7.35466 28.6007 6.13927 27.3931 4.93946 26.1621C4.66635 25.8743 4.42114 25.5613 4.20711 25.2272L3.97338 24.8844C3.82613 24.6862 3.74688 24.4457 3.74744 24.1988V23.4197C3.74743 23.1608 3.83227 22.909 3.98896 22.7029C4.07466 22.5939 4.16036 22.4692 4.24606 22.3523C4.48285 22.0247 4.74324 21.7149 5.02516 21.4252C6.22497 20.1942 7.51827 18.9087 8.96738 17.4908C8.96738 16.2988 8.96738 15.1535 8.96738 13.9615C8.97162 12.8345 9.35283 11.7413 10.0503 10.856C10.7478 9.97079 11.7214 9.34436 12.8161 9.07653C14.0996 8.76234 15.4546 8.95193 16.6025 9.60632C16.7049 9.6749 16.8232 9.71595 16.946 9.7255C17.0688 9.73505 17.192 9.71279 17.3037 9.66086C17.4066 9.58765 17.4901 9.49054 17.5471 9.3779C17.6041 9.26525 17.6329 9.14044 17.6309 9.01421C17.6387 8.91568 17.6387 8.81668 17.6309 8.71815V8.57012C17.5668 7.87409 17.7584 7.17852 18.1699 6.61354C18.5815 6.04855 19.1848 5.65286 19.8669 5.50048L23.3028 4.32405L24.8609 3.79426C24.9844 3.75458 25.1131 3.73357 25.2427 3.73193H26.0218C26.1573 3.73177 26.2918 3.75551 26.4191 3.80205C26.9224 3.98182 27.3731 4.28383 27.7308 4.68092C28.0884 5.07801 28.3418 5.55775 28.4682 6.07701C28.6396 6.66913 28.8421 7.26124 29.0447 7.84556C29.1616 8.20395 29.2862 8.56233 29.4031 8.92072H30.151C30.5483 8.92072 30.9301 8.92072 31.3586 8.92072C31.8884 8.4143 32.4182 7.87673 32.9168 7.36252L33.8206 6.45098C34.1147 6.11102 34.4865 5.84697 34.9043 5.68121C35.3222 5.51544 35.7738 5.45283 36.2211 5.4987C36.6683 5.54457 37.0978 5.69755 37.4733 5.94469C37.8488 6.19183 38.1593 6.52585 38.3783 6.91844L39.3054 8.31302C39.9287 9.25832 40.5545 10.1932 41.183 11.1178C41.2466 11.2002 41.3261 11.2691 41.4167 11.3203C46.8081 13.7459 52.189 16.1793 57.5596 18.6205C59.0368 19.2526 60.2045 20.4427 60.8084 21.9316C60.9284 22.2289 61.0299 22.5334 61.1123 22.8432C61.1123 22.96 61.1824 23.0769 61.2214 23.1938C61.2552 23.3103 61.2736 23.4308 61.2759 23.5521V24.9311C61.2836 25.0089 61.2836 25.0872 61.2759 25.1649C60.8612 26.8374 59.9187 28.3318 58.588 29.4265C57.8089 30.1355 57.0298 30.9146 56.1339 31.8963C56.1339 33.6492 56.1339 35.4723 56.1339 37.3032C56.1459 37.7916 56.055 38.2771 55.867 38.7281C55.6791 39.1791 55.3984 39.5855 55.0431 39.921C53.0564 41.8921 50.9139 44.0112 48.8104 46.1537C48.4457 46.5475 48.0066 46.8652 47.5186 47.0885C47.0305 47.3118 46.5031 47.4363 45.9667 47.4548C45.1138 47.5087 44.3011 47.8366 43.6497 48.3897C42.9983 48.9428 42.543 49.6916 42.3517 50.5245C42.2238 50.9829 42.1737 51.4596 42.2036 51.9346C42.303 52.7415 42.194 53.5604 41.8872 54.3132C41.5803 55.066 41.0858 55.7277 40.4507 56.2352C39.6716 56.9442 38.8925 57.6999 38.1134 58.5102C37.6537 58.9776 37.194 59.4451 36.7266 59.9048C36.4155 60.1842 36.0877 60.4443 35.7449 60.6839L35.3632 60.9799C35.1657 61.1537 34.9166 61.2577 34.6542 61.276ZM34.1556 58.9387H34.2802L34.3737 58.8608C34.6479 58.6689 34.9082 58.458 35.1528 58.2297C35.6125 57.7856 36.0566 57.326 36.5006 56.8741C37.2797 56.095 38.0588 55.2536 38.947 54.4823C39.3113 54.2216 39.5964 53.8655 39.771 53.453C39.9456 53.0406 40.0029 52.5879 39.9365 52.145C39.8737 51.4043 39.9396 50.6583 40.1312 49.9401C40.4369 48.6186 41.1622 47.4316 42.1986 46.5567C43.235 45.6818 44.5269 45.1659 45.881 45.0864C46.1199 45.0793 46.3549 45.0239 46.5719 44.9235C46.7888 44.8231 46.9831 44.6797 47.1431 44.502C49.2622 42.3362 51.4048 40.2092 53.3759 38.2303C53.5017 38.1201 53.6013 37.9831 53.6673 37.8295C53.7334 37.6758 53.7642 37.5093 53.7576 37.3421C53.7576 35.4957 53.7576 33.6492 53.7576 31.8885C53.7831 31.3077 54.0152 30.7551 54.4121 30.3303C55.3626 29.3175 56.1806 28.4994 56.9675 27.7593C57.9004 27.0095 58.587 25.9972 58.9386 24.8532V23.7235L58.8685 23.4976C58.8076 23.268 58.7347 23.0418 58.6503 22.8198C58.461 22.3559 58.1818 21.9339 57.8288 21.5783C57.4758 21.2226 57.056 20.9402 56.5935 20.7474C51.2178 18.3114 45.8576 15.8651 40.513 13.4083C40.0384 13.1807 39.6306 12.8345 39.3288 12.4033C38.6432 11.4606 38.0199 10.5179 37.3966 9.56737L36.4617 8.18057C36.2747 7.90789 36.1033 7.79103 36.0098 7.78323C35.9163 7.77544 35.7293 7.84556 35.4956 8.07929L34.6074 8.96746C34.0621 9.52062 33.5167 10.066 32.9558 10.5958C32.5495 10.9758 32.0231 11.2018 31.4677 11.2346C31.0236 11.2346 30.5795 11.2346 30.1354 11.2346C29.6913 11.2346 29.3563 11.2346 28.9824 11.2346C28.5772 11.2702 28.1728 11.1593 27.8425 10.922C27.5122 10.6846 27.2781 10.3367 27.1827 9.94133C27.0424 9.48166 26.8866 9.02979 26.7308 8.57012C26.5204 7.94685 26.3101 7.33136 26.1231 6.70808C26.1004 6.57837 26.0522 6.45445 25.9813 6.34346C25.9104 6.23247 25.8183 6.13662 25.7102 6.06143H25.3907L24.0507 6.5211L20.5681 7.70533C19.9293 7.92347 19.9293 7.92347 19.9215 8.57791V8.72594C19.9331 8.87894 19.9331 9.03261 19.9215 9.18561C19.9044 9.70211 19.7568 10.2059 19.4925 10.65C19.2282 11.0941 18.8558 11.4641 18.41 11.7255C17.962 11.9745 17.4579 12.1051 16.9453 12.1051C16.4328 12.1051 15.9287 11.9745 15.4806 11.7255C14.8386 11.3431 14.073 11.2257 13.3459 11.3982C12.7524 11.5356 12.2229 11.8699 11.8438 12.3467C11.4646 12.8235 11.2581 13.4146 11.2579 14.0238C11.2579 15.1613 11.2579 16.3065 11.2579 17.4284C11.2724 17.7544 11.2165 18.0796 11.0942 18.3821C10.9719 18.6845 10.7859 18.9571 10.549 19.1814C9.10762 20.5838 7.8299 21.8615 6.65347 23.0769C6.46766 23.2861 6.29589 23.5073 6.13927 23.7391L6.07694 23.817C6.09574 23.847 6.11657 23.8756 6.13927 23.9027C6.27145 24.1228 6.42545 24.329 6.59893 24.5182C7.79095 25.7414 8.99855 26.9412 10.2139 28.1488L11.1956 29.1227C11.6397 29.5746 11.6397 29.5668 12.2162 29.2863L15.9169 27.4398L16.2831 27.2684L16.548 27.1516C16.7247 27.0676 16.9201 27.0307 17.1153 27.0444C17.3104 27.058 17.4988 27.1218 17.6621 27.2295C17.8272 27.3345 17.963 27.4796 18.057 27.6512C18.151 27.8229 18.2001 28.0155 18.1997 28.2111V28.7721C18.1997 29.1461 18.1997 29.4967 18.1997 29.8472V30.1277C18.1787 30.387 18.1787 30.6475 18.1997 30.9068C18.1997 30.9925 18.1997 31.1094 18.6126 31.2418L19.5709 31.5535C20.35 31.8261 21.1914 32.0988 22.0095 32.3326C22.4454 32.4334 22.8276 32.6945 23.0801 33.0639C23.3327 33.4333 23.4372 33.8842 23.3729 34.327C23.3729 34.6621 23.3729 34.9971 23.3729 35.3321C23.3729 35.5269 23.3729 35.7216 23.3729 35.9164C23.3729 36.1112 23.4196 36.267 23.7001 36.4072L24.1831 36.6565C24.7207 36.9214 25.2505 37.1941 25.7881 37.4356C26.117 37.5744 26.3952 37.8112 26.5847 38.1137C26.7743 38.4162 26.8661 38.7698 26.8476 39.1263C26.8476 39.7028 26.8476 40.2793 26.8476 40.8637C26.8476 41.448 26.8476 42.1102 26.8476 42.7335C26.836 42.8531 26.8583 42.9736 26.9121 43.0811C26.9658 43.1886 27.0488 43.2787 27.1515 43.3412C28.3201 44.2086 29.4758 45.0838 30.6185 45.9667C31.0019 46.2332 31.322 46.5807 31.5563 46.9846C31.7905 47.3885 31.9332 47.8389 31.9741 48.304C31.9917 48.7691 31.909 49.2324 31.7315 49.6626C31.5541 50.0928 31.286 50.4798 30.9457 50.7971C30.6263 51.1244 30.299 51.4438 29.9796 51.7632L28.8265 52.8773C28.5071 53.1968 28.5071 53.3837 28.8265 53.7032C30.4678 55.36 32.1169 57.0091 33.7738 58.6504C33.8941 58.7554 34.0217 58.8517 34.1556 58.9387Z" fill="white"/>
</svg>
