<svg width="65" height="65" viewBox="0 0 65 65" fill="none" xmlns="http://www.w3.org/2000/svg">
<path d="M33.2518 53.6718C28.289 53.6718 23.3651 53.6718 18.5191 53.6718C15.3685 53.6079 12.3251 52.516 9.85252 50.5624C7.37991 48.6088 5.61359 45.9006 4.8226 42.8502C4.69016 42.3204 4.59667 41.7984 4.51096 41.292L4.3941 40.6376C4.38686 40.565 4.38686 40.492 4.3941 40.4194V37.9575C4.39404 37.8245 4.41778 37.6926 4.46422 37.5679C4.46103 37.5342 4.46103 37.5003 4.46422 37.4666C4.71877 35.3285 5.45016 33.2748 6.60443 31.4571C7.7587 29.6394 9.30639 28.1041 11.1333 26.9644C11.1333 26.6372 11.2034 26.2866 11.2346 25.936C11.2816 25.2659 11.3727 24.5997 11.5072 23.9415C12.2312 20.6043 14.0042 17.5864 16.5668 15.3294C19.1295 13.0723 22.3472 11.6947 25.7491 11.3981C32.0754 10.8449 37.194 13.2445 40.9805 18.5346C40.979 18.5528 40.979 18.571 40.9805 18.5891C44.5955 17.4127 47.7976 17.9814 50.4932 20.3032C51.8174 21.3879 52.8113 22.8219 53.3621 24.4427C53.9129 26.0635 53.9986 27.8061 53.6096 29.4731C55.2129 30.2875 56.6265 31.4306 57.7581 32.8281C58.8898 34.2256 59.7142 35.846 60.1774 37.5835C60.3075 38.0347 60.4142 38.4924 60.4968 38.9547C60.4968 39.1417 60.5669 39.3287 60.5981 39.5157C60.6058 39.5908 60.6058 39.6665 60.5981 39.7416V42.0789C60.5996 42.2031 60.5812 42.3267 60.5436 42.4451L60.489 42.5931C60.0715 45.6108 58.5934 48.3813 56.3193 50.4084C54.0452 52.4356 51.1237 53.5869 48.078 53.6563C43.1308 53.6641 38.1757 53.6718 33.2518 53.6718ZM6.70802 40.2714C6.74697 40.4662 6.77813 40.6609 6.81709 40.8557C6.90279 41.3388 6.9807 41.8062 7.08977 42.2425C7.7702 44.7823 9.25092 47.0353 11.3124 48.6674C13.374 50.2994 15.9065 51.2238 18.5347 51.3034C28.1565 51.3501 38.0978 51.3501 48.0858 51.3034C50.5824 51.2497 52.977 50.3029 54.8352 48.6347C56.6935 46.9666 57.8923 44.6877 58.2141 42.2113C58.2326 42.0897 58.2613 41.9698 58.2998 41.853V39.8585C58.2998 39.6949 58.2452 39.5312 58.2141 39.3676C58.1362 38.9625 58.066 38.5885 57.9648 38.2146C57.5712 36.7182 56.8497 35.3281 55.8526 34.145C54.8554 32.9619 53.6076 32.0154 52.1994 31.3741L51.7787 31.1638C51.5315 31.0456 51.3336 30.8444 51.2197 30.5952C51.1057 30.3459 51.083 30.0646 51.1555 29.8003C52.028 26.5905 51.3269 24.0584 49.0129 22.0717C46.699 20.085 44.1903 19.8045 40.9883 21.0822C40.7364 21.185 40.4565 21.196 40.1973 21.1134C39.9382 21.0308 39.7163 20.8599 39.5703 20.6304L39.4145 20.3889C39.3132 20.2252 39.2119 20.0538 39.095 19.8902C35.7761 15.2546 31.4833 13.229 25.9751 13.7198C23.0667 13.9735 20.316 15.152 18.1261 17.0826C15.9361 19.0132 14.422 21.5944 13.8056 24.4479C13.6956 25.0063 13.6202 25.5709 13.5796 26.1386C13.5796 26.5593 13.5095 26.9722 13.4472 27.3851C13.4122 27.6717 13.3179 27.9478 13.1704 28.196C13.0228 28.4441 12.8252 28.6588 12.5902 28.8265C10.9866 29.7779 9.62708 31.0901 8.6195 32.6589C7.61192 34.2278 6.9841 36.01 6.78593 37.864C6.77196 37.973 6.74583 38.0802 6.70802 38.1834V40.2714Z" fill="white"/>
<path d="M18.0049 38.4329C18.0049 39.5158 17.9659 40.6066 18.0049 41.6895C17.9767 42.4571 18.186 43.2146 18.6043 43.8588C19.0226 44.503 19.6295 45.0024 20.3422 45.2889C21.1845 45.6511 22.0967 45.8215 23.013 45.7878C23.9293 45.7542 24.8266 45.5172 25.64 45.0942C26.326 44.7809 26.8969 44.261 27.2727 43.6072C27.6485 42.9534 27.8104 42.1984 27.7358 41.448C27.7336 41.0858 27.5944 40.7379 27.3462 40.4741C27.0426 40.2786 26.6959 40.1601 26.3361 40.1289C25.9763 40.0977 25.6144 40.1547 25.2816 40.2949C24.7129 40.4663 24.6506 40.9572 24.5804 41.4714C24.5915 41.7355 24.5393 41.9984 24.4281 42.2383C24.317 42.4782 24.1502 42.688 23.9416 42.8504C23.6809 43.0221 23.3804 43.1237 23.069 43.1454C22.7576 43.1671 22.4459 43.1082 22.164 42.9742C21.882 42.8403 21.6393 42.6359 21.4594 42.3809C21.2795 42.1258 21.1684 41.8287 21.1368 41.5181C21.1058 41.3092 21.0901 41.0983 21.0901 40.887C21.0901 39.2873 21.0901 37.6902 21.0901 36.0956C21.0886 35.7823 21.1147 35.4694 21.168 35.1607C21.2044 34.8974 21.3133 34.6494 21.4825 34.4444C21.6517 34.2394 21.8746 34.0855 22.1263 33.9998C22.3921 33.8672 22.6874 33.8046 22.9841 33.8181C23.2809 33.8315 23.5693 33.9204 23.8221 34.0764C24.0748 34.2325 24.2836 34.4504 24.4286 34.7097C24.5736 34.969 24.65 35.261 24.6506 35.558C24.6512 35.7983 24.7406 36.0299 24.9017 36.2083C25.0628 36.3866 25.2841 36.4991 25.5231 36.5241C25.8674 36.5865 26.2176 36.61 26.5671 36.5942C27.4241 36.5241 27.7514 36.1735 27.7825 35.3165C27.847 34.635 27.7064 33.9498 27.3788 33.3487C27.0512 32.7477 26.5515 32.2582 25.9439 31.943C24.4764 31.1432 22.7556 30.9448 21.1446 31.3899C20.2515 31.572 19.4505 32.0615 18.8811 32.7733C18.3116 33.4851 18.0099 34.374 18.0282 35.2853C17.9737 36.3215 18.0049 37.3967 18.0049 38.4329Z" fill="white"/>
<path d="M44.1436 43.9955L44.0423 43.8553C44.1858 43.6166 44.3586 43.3968 44.5565 43.2009C45.1408 42.7334 45.8031 42.3439 46.3562 41.8452C46.857 41.3962 47.2831 40.8702 47.6184 40.287C47.8526 39.8491 47.936 39.3463 47.8558 38.8562C47.7755 38.3661 47.536 37.9161 47.1743 37.5758C46.6212 37.1092 45.9293 36.8387 45.2064 36.8063C44.4835 36.7739 43.7702 36.9814 43.1775 37.3966C42.8926 37.5902 42.6606 37.852 42.5028 38.1582C42.3449 38.4644 42.2662 38.8052 42.2738 39.1496C42.2738 39.7728 42.5464 40.0845 43.0529 40.1156C43.5593 40.1468 43.9566 39.8508 44.1202 39.2664C44.2036 38.9623 44.402 38.7025 44.6734 38.5419C44.8436 38.4425 45.0452 38.4114 45.2375 38.4548C45.4298 38.4981 45.5985 38.6128 45.7096 38.7756C45.8622 39.0704 45.909 39.4087 45.842 39.7339C45.7355 40.043 45.5404 40.3139 45.2811 40.513C44.7357 40.9804 44.167 41.4245 43.5826 41.8452C43.0759 42.1337 42.6663 42.5661 42.4055 43.0876C42.1448 43.609 42.0447 44.1962 42.1179 44.7746C42.1881 45.3979 42.3673 45.655 43.0139 45.6628C44.3851 45.6628 45.7563 45.6628 47.1197 45.6628C47.2878 45.6805 47.456 45.6317 47.5885 45.5268C47.721 45.422 47.8073 45.2695 47.8287 45.1019C47.8874 44.9712 47.9089 44.8269 47.891 44.6848C47.873 44.5428 47.8162 44.4084 47.7268 44.2965C47.6375 44.1845 47.519 44.0994 47.3844 44.0505C47.2498 44.0015 47.1043 43.9906 46.9639 44.0189L44.1436 43.9955Z" fill="white"/>
<path d="M39.8197 38.4953C39.8197 37.4045 39.8197 36.3138 39.8197 35.2308C39.8426 34.3278 39.5407 33.4466 38.9688 32.7474C38.3968 32.0482 37.5929 31.5775 36.7033 31.4211C35.7806 31.2163 34.8314 31.1585 33.8907 31.2497C31.6002 31.4834 30.229 32.8079 30.0732 35.0672C29.9213 37.3241 29.9213 39.5885 30.0732 41.8454C30.229 44.1125 31.4677 45.3046 33.7349 45.6396C34.5665 45.7642 35.412 45.7642 36.2436 45.6396C37.2381 45.5524 38.1612 45.0866 38.8223 44.3386C39.4834 43.5905 39.8321 42.6171 39.7963 41.6194C39.843 40.5677 39.8197 39.5315 39.8197 38.4953ZM36.7033 41.5259C36.7033 42.5855 35.9787 43.0841 34.9036 43.0841C34.6779 43.1041 34.4505 43.0746 34.2374 42.9977C34.0243 42.9208 33.8305 42.7984 33.6696 42.6389C33.5086 42.4794 33.3844 42.2868 33.3055 42.0744C33.2266 41.862 33.195 41.6349 33.2129 41.4091C33.2129 40.4274 33.2129 39.4458 33.2129 38.4641C33.2129 37.4824 33.2129 36.5319 33.2129 35.5736C33.1908 35.3481 33.2182 35.1205 33.2931 34.9067C33.3681 34.6928 33.4887 34.4979 33.6467 34.3354C33.8047 34.173 33.9962 34.047 34.2079 33.9661C34.4196 33.8853 34.6464 33.8516 34.8724 33.8674C35.9709 33.8285 36.6799 34.3583 36.7111 35.4256C36.7344 37.4591 36.7266 39.4925 36.6643 41.5259H36.7033Z" fill="white"/>
</svg>
