<svg width="65" height="65" viewBox="0 0 65 65" fill="none" xmlns="http://www.w3.org/2000/svg">
<path d="M22.9522 60.4267C22.9328 60.0816 22.9328 59.7357 22.9522 59.3905C22.9522 59.1958 22.9522 58.9932 22.9522 58.7984C22.9455 56.5008 22.1005 54.2846 20.576 52.5657C19.97 51.9182 19.3191 51.3142 18.6282 50.7582C18.301 50.4855 17.9816 50.2128 17.6699 49.9245L17.2648 49.5739L17.592 49.1454C18.5254 47.9784 18.9921 46.5064 18.9018 45.0148C18.8116 43.5231 18.1707 42.1182 17.1034 41.0722C16.0361 40.0263 14.6185 39.4139 13.1253 39.3538C11.6322 39.2936 10.1699 39.79 9.02196 40.7468C7.80917 41.7907 7.05579 43.2699 6.92459 44.8647C6.79339 46.4595 7.2949 48.042 8.32077 49.2701L8.70253 49.7687L8.05588 50.1894L7.72866 50.3998C5.94857 51.484 4.54088 53.0846 3.69294 54.9886C3.02279 56.7249 2.73062 58.5842 2.83593 60.4423C2.77878 60.7945 2.83195 61.1558 2.98817 61.4766C3.14439 61.7974 3.396 62.062 3.70852 62.2342H22.0952C22.4274 62.0814 22.6954 61.8166 22.852 61.4862C23.0087 61.1557 23.0442 60.7807 22.9522 60.4267ZM10.3542 42.6945C11.0266 42.0305 11.9335 41.6582 12.8785 41.6583H12.9252C13.4058 41.6626 13.8807 41.7626 14.3222 41.9525C14.7636 42.1425 15.1628 42.4186 15.4962 42.7646C15.8288 43.1009 16.091 43.5001 16.2676 43.9389C16.4442 44.3776 16.5316 44.8472 16.5247 45.3201C16.5084 46.2756 16.1183 47.1868 15.4382 47.8582C14.7581 48.5296 13.842 48.9078 12.8863 48.9117C12.1649 48.9094 11.4606 48.6918 10.8636 48.2867C10.2667 47.8816 9.80428 47.3075 9.53564 46.638C9.26699 45.9685 9.20435 45.234 9.35574 44.5287C9.50713 43.8233 9.86565 43.1792 10.3854 42.6789L10.3542 42.6945ZM20.537 59.2113V59.7723H5.2823V59.2191C5.22834 58.2211 5.37879 57.2226 5.72443 56.2848C6.07008 55.347 6.60363 54.4897 7.29236 53.7655C8.00832 52.9957 8.87352 52.3797 9.83524 51.9551C10.797 51.5305 11.8351 51.3062 12.8863 51.2957C13.9299 51.3029 14.9615 51.5197 15.9198 51.9333C16.878 52.3468 17.7434 52.9487 18.4646 53.7031C19.1703 54.4294 19.7185 55.2934 20.0751 56.2412C20.4317 57.1889 20.5889 58.2001 20.537 59.2113Z" fill="white"/>
<path d="M57.1934 50.2828L56.9363 50.1036L56.3598 49.6907L56.7181 49.2077C57.6961 48.0618 58.2091 46.591 58.1559 45.0854C58.1027 43.5799 57.4872 42.1489 56.4308 41.0749C55.3744 40.0009 53.9538 39.3618 52.4494 39.2837C50.9449 39.2057 49.4658 39.6943 48.3039 40.6532C47.2142 41.5227 46.4754 42.7568 46.2237 44.128C46.0491 45.0132 46.0753 45.9263 46.3005 46.8001C46.5257 47.6739 46.944 48.4859 47.5248 49.1765L47.8209 49.5505L47.5092 49.9166C47.446 50.0032 47.3698 50.0794 47.2833 50.1426L46.9717 50.3374C45.1827 51.4084 43.7678 53.0055 42.9204 54.9107C42.2363 56.6436 41.936 58.5042 42.04 60.3643C41.9816 60.7166 42.0343 61.0783 42.1906 61.3994C42.347 61.7204 42.5993 61.9849 42.9126 62.1562H61.3226C61.6848 61.9564 61.9843 61.6596 62.1874 61.2992V58.0192C62.1411 57.9232 62.1096 57.8208 62.0939 57.7154C61.9145 56.1798 61.3778 54.7076 60.5268 53.4168C59.6758 52.1261 58.5341 51.0527 57.1934 50.2828ZM49.5271 42.7645C49.8592 42.4203 50.2562 42.1454 50.6953 41.9557C51.1344 41.766 51.6068 41.6653 52.0851 41.6595C52.5634 41.6537 53.038 41.7429 53.4816 41.9219C53.9252 42.1009 54.3288 42.3661 54.6691 42.7022C55.1854 43.2045 55.5407 43.8491 55.6896 44.5539C55.8385 45.2587 55.7744 45.9918 55.5054 46.6601C55.2365 47.3283 54.7748 47.9015 54.1791 48.3066C53.5835 48.7117 52.8808 48.9304 52.1604 48.935C51.2041 48.933 50.2869 48.5555 49.6063 47.8837C48.9257 47.2118 48.5364 46.2995 48.5221 45.3433C48.5103 44.8683 48.593 44.3957 48.7656 43.953C48.9381 43.5103 49.197 43.1063 49.5271 42.7645ZM59.7566 59.7722H44.4474V59.2113C44.4058 57.9959 44.659 56.7885 45.1854 55.6923C45.7118 54.5961 46.4958 53.6436 47.4703 52.9162C48.617 51.9965 50.0108 51.4375 51.4752 51.31C52.9396 51.1824 54.409 51.4919 55.6975 52.1994C56.97 52.8642 58.0285 53.8753 58.7509 55.116C59.4733 56.3567 59.83 57.7764 59.78 59.2113L59.7566 59.7722Z" fill="white"/>
<path d="M22.4536 24.0895C22.4536 25.3595 22.8354 25.7257 24.0975 25.7257H40.926C41.1635 25.7308 41.401 25.7125 41.635 25.6711C41.8711 25.6355 42.0884 25.5217 42.2523 25.348C42.4161 25.1743 42.517 24.9506 42.5387 24.7128C42.7464 22.735 42.5204 20.7356 41.8765 18.854C40.9931 16.6369 39.365 14.7966 37.272 13.6497L36.7578 13.3614L37.0617 12.8472C39.1263 9.28672 38.9003 6.39627 36.3839 4.27713C35.3109 3.37734 33.9583 2.879 32.558 2.86763C31.1577 2.85626 29.7972 3.33256 28.7098 4.2148C26.1543 6.33395 25.8972 9.24777 27.9307 12.8706L28.1955 13.3458L27.6034 13.7354L27.2996 13.9379C25.3495 15.1132 23.8554 16.9149 23.0613 19.0488C22.5369 20.6744 22.3306 22.3859 22.4536 24.0895ZM32.5819 5.20426C33.0612 5.21706 33.5332 5.32489 33.9705 5.52149C34.4078 5.71808 34.8018 5.99953 35.1295 6.34953C35.4575 6.69205 35.714 7.09653 35.8839 7.53931C36.0538 7.9821 36.1337 8.45431 36.119 8.92834C36.0909 9.8683 35.7008 10.7611 35.03 11.4202C34.3593 12.0793 33.4598 12.4538 32.5195 12.4654H32.4105C31.9268 12.4517 31.4508 12.3412 31.0106 12.1405C30.5704 11.9397 30.1748 11.6529 29.8472 11.2968C29.523 10.9574 29.2704 10.5563 29.1044 10.1173C28.9384 9.67826 28.8625 9.21033 28.8812 8.74135C28.9117 7.7804 29.3198 6.87022 30.0169 6.20811C30.714 5.546 31.644 5.18532 32.6052 5.20426H32.5819ZM26.8165 17.3582C27.5456 16.5724 28.4275 15.9439 29.4082 15.5111C30.3889 15.0784 31.4477 14.8506 32.5195 14.8417C33.5659 14.8425 34.6009 15.0596 35.5595 15.4792C36.518 15.8989 37.3796 16.512 38.0901 17.2802C38.7745 18.0085 39.3068 18.8659 39.656 19.8023C40.0051 20.7387 40.1641 21.7354 40.1235 22.7339L40.0846 23.2793H24.9311L24.8844 22.7417C24.8223 21.7581 24.9639 20.7722 25.3004 19.8459C25.6369 18.9195 26.161 18.0726 26.8399 17.3582H26.8165Z" fill="white"/>
<path d="M7.65071 32.7922C7.65071 32.9558 7.65071 33.1116 7.65071 33.2674C7.63092 33.5969 7.63092 33.9274 7.65071 34.2569C7.67803 34.5406 7.81088 34.8038 8.02298 34.9942C8.23507 35.1847 8.51094 35.2885 8.79598 35.2853C9.08001 35.2867 9.35508 35.186 9.57103 35.0015C9.78699 34.817 9.92944 34.561 9.97242 34.2802C9.98865 34.0442 9.98865 33.8073 9.97242 33.5713V33.3531C10.0291 29.0012 11.356 24.7606 13.79 21.1525C14.8959 19.5231 16.205 18.0413 17.6855 16.7428C17.862 16.5998 17.9981 16.4131 18.0801 16.2013C18.1621 15.9894 18.1872 15.7598 18.1529 15.5352C18.1141 15.3436 18.0262 15.1653 17.8979 15.0178C17.7695 14.8703 17.605 14.7586 17.4206 14.6938C17.1685 14.6 16.8935 14.5871 16.6337 14.6569C16.374 14.7267 16.1425 14.8758 15.9715 15.0833C13.462 17.3214 11.4312 20.044 10.0012 23.0874C8.57128 26.1307 7.77174 29.4318 7.65071 32.7922Z" fill="white"/>
<path d="M54.8484 31.0391C54.9263 31.678 54.9497 32.3168 54.9731 32.9323C54.9731 33.3297 54.9731 33.7114 55.0276 34.1321C55.0377 34.4415 55.1677 34.7348 55.3902 34.9499C55.6127 35.1651 55.9101 35.2854 56.2196 35.2852C56.5223 35.2814 56.8118 35.161 57.028 34.9491C57.2442 34.7373 57.3705 34.4503 57.3805 34.1477C57.3805 33.8672 57.3805 33.579 57.3805 33.2362C57.3805 33.057 57.3805 32.8622 57.3805 32.6441C57.2108 28.2655 55.8652 24.0134 53.485 20.3343C52.2005 18.2986 50.6257 16.4614 48.8104 14.8807C48.6001 14.6779 48.3231 14.5588 48.0313 14.5457C47.8686 14.548 47.7076 14.5797 47.5561 14.6391C47.348 14.7102 47.1664 14.8429 47.0356 15.0197C46.9048 15.1964 46.8309 15.4088 46.8237 15.6286C46.8162 15.8624 46.868 16.0943 46.9743 16.3027C47.0805 16.5112 47.2378 16.6893 47.4314 16.8206C51.5821 20.4758 54.2257 25.5436 54.8484 31.0391Z" fill="white"/>
<path d="M36.5006 55.8456C33.8514 56.2819 31.1486 56.2819 28.4993 55.8456C28.4216 55.8379 28.3433 55.8379 28.2656 55.8456C27.9821 55.8401 27.7062 55.9372 27.4886 56.119C27.271 56.3008 27.1264 56.5551 27.0814 56.835C27.033 57.1217 27.1002 57.4159 27.2683 57.6531C27.3658 57.7856 27.4894 57.8968 27.6314 57.9799C27.7734 58.0629 27.9309 58.1161 28.0942 58.1361C29.1304 58.2763 30.1666 58.3854 31.2106 58.4945L32.4883 58.6269L33.766 58.4945C34.8022 58.3854 35.8774 58.2763 36.8824 58.1361C37.0377 58.111 37.1865 58.0554 37.3202 57.9725C37.4539 57.8896 37.5699 57.781 37.6615 57.6531C37.7533 57.5294 37.8181 57.3878 37.8517 57.2375C37.8852 57.0872 37.8868 56.9314 37.8563 56.7805C37.794 56.4802 37.6183 56.2154 37.3658 56.0413C37.1134 55.8672 36.8035 55.7971 36.5006 55.8456Z" fill="white"/>
</svg>
