<svg width="65" height="65" viewBox="0 0 65 65" fill="none" xmlns="http://www.w3.org/2000/svg">
<path d="M16.7428 35.636L16.6571 35.3087C16.4412 34.5411 16.2746 33.7604 16.1585 32.9715C16.0572 32.1378 16.0182 31.2964 15.9793 30.4861C15.9793 30.1355 15.9793 29.785 15.9247 29.4422V28.9825L16.8674 28.6864L17.1167 28.9202C18.0495 29.8427 19.2292 30.4759 20.5136 30.7432C21.7858 31.0052 23.1072 30.8804 24.3078 30.3849C25.6988 29.7935 26.8398 28.7352 27.5339 27.3925C28.228 26.0498 28.4317 24.507 28.1098 23.0302C27.8578 21.8244 27.2685 20.7149 26.4107 19.8308C25.5528 18.9467 24.4615 18.3244 23.2638 18.0362L22.0718 17.67L23.4274 16.7818L23.965 16.439C25.522 15.5029 27.2224 14.8291 28.998 14.4445C29.7771 14.2887 30.1354 13.907 30.1354 13.3149C30.1354 10.6893 30.1354 8.29748 30.1354 5.99914C30.1346 5.84029 30.0994 5.68349 30.0322 5.53957C29.9649 5.39565 29.8672 5.26803 29.7459 5.16551C29.6217 5.05457 29.4759 4.97035 29.3178 4.91809C29.1596 4.86582 28.9924 4.84661 28.8266 4.86166C24.909 5.40544 21.1733 6.85968 17.9192 9.10774C17.2492 9.5674 16.6181 10.066 15.9481 10.588L15.0132 11.3126L14.5457 11.671L13.6498 10.4867L12.2786 8.66365C12.1507 8.4603 11.9628 8.30164 11.7409 8.20954C11.5191 8.11744 11.2741 8.09645 11.0398 8.14945C10.6347 8.21178 10.362 8.46888 10.0815 9.01425C8.22725 12.65 6.36781 16.3066 4.50317 19.9839L2.87486 23.1782V23.8482C3.04197 24.1656 3.3083 24.4197 3.63323 24.5716C3.95817 24.7235 4.32387 24.765 4.67457 24.6897C4.90296 24.678 5.13179 24.678 5.36018 24.6897H7.01186L6.93395 25.5233C6.93395 25.6635 6.93395 25.7726 6.93395 25.8739C6.058 30.6178 6.52205 35.512 8.274 40.0067C8.33042 40.2039 8.42943 40.3864 8.56405 40.5412C8.69866 40.696 8.8656 40.8194 9.0531 40.9027C9.24125 40.9579 9.43924 40.9712 9.63309 40.9416C9.82694 40.912 10.0119 40.8402 10.175 40.7313C12.1539 39.6016 14.1328 38.4563 16.0961 37.311C16.2513 37.2469 16.3919 37.1519 16.5093 37.0318C16.6266 36.9116 16.7183 36.7689 16.7788 36.6122C16.8393 36.4556 16.8673 36.2882 16.8611 36.1204C16.8549 35.9526 16.8146 35.7878 16.7428 35.636ZM24.674 21.4486C25.2385 22.0276 25.6207 22.7595 25.773 23.5537C25.9253 24.3479 25.8411 25.1693 25.5308 25.916C25.2205 26.6628 24.6978 27.302 24.0274 27.7543C23.3571 28.2066 22.5688 28.4522 21.7602 28.4605C20.6971 28.4143 19.6929 27.9595 18.957 27.1909C18.2211 26.4223 17.8103 25.3993 17.8103 24.3352C17.8103 23.2711 18.2211 22.2481 18.957 21.4795C19.6929 20.7109 20.6971 20.2561 21.7602 20.2099C22.3037 20.2128 22.8413 20.3238 23.3415 20.5365C23.8418 20.7491 24.2947 21.0592 24.674 21.4486ZM13.642 35.9554C12.9096 36.4073 12.1695 36.828 11.3592 37.2954L9.91789 38.1291L9.76986 37.35C9.68416 36.8903 9.59846 36.4306 9.51276 35.9866C9.31799 34.9893 9.13101 34.0466 9.01414 33.0649C8.67187 30.0074 8.93663 26.9123 9.79324 23.9573C9.8679 23.7585 9.89481 23.5449 9.87181 23.3338C9.8488 23.1227 9.77652 22.92 9.66079 22.7419C9.51025 22.5696 9.32066 22.4359 9.10786 22.3519C8.89506 22.2678 8.66525 22.2359 8.43761 22.2589H5.99904L11.4527 11.5931L12.4655 12.8864C12.7928 13.3226 13.0966 13.7278 13.416 14.1407C13.5309 14.3135 13.6801 14.4607 13.8544 14.5733C14.0286 14.6859 14.2242 14.7614 14.4289 14.7951C14.6344 14.7885 14.836 14.7378 15.0202 14.6464C15.2044 14.555 15.3667 14.425 15.4962 14.2654C18.461 11.1323 22.2368 8.88306 26.4036 7.76769L26.8321 7.66641L27.7436 7.47163V12.0605L27.4008 12.2085C26.9567 12.4111 26.5126 12.5981 26.0686 12.7851C25.1103 13.1902 24.2065 13.5642 23.3417 14.0394C20.0365 15.8551 17.3529 18.6217 15.6386 21.9807C13.9244 25.3397 13.2587 29.1361 13.7277 32.878C13.7744 33.2208 13.8367 33.5636 13.8991 33.9142C13.9614 34.2648 14.0237 34.5764 14.0705 34.9114C14.0985 35.1078 14.0735 35.3081 13.9982 35.4917C13.9229 35.6752 13.7999 35.8353 13.642 35.9554Z" fill="white"/>
<path d="M54.9808 9.02984C54.9171 8.77932 54.7766 8.55501 54.5791 8.38833C54.3815 8.22165 54.1367 8.12095 53.8791 8.10033C53.6214 8.07972 53.3637 8.14023 53.1422 8.27338C52.9206 8.40653 52.7463 8.60565 52.6435 8.84285L50.4854 11.6866L49.9245 11.2658L49.7453 11.1256C46.0051 7.78277 41.3635 5.61506 36.3994 4.89284C36.2024 4.85158 35.9989 4.85318 35.8026 4.89754C35.6064 4.94191 35.4219 5.02799 35.2619 5.14994C35.1293 5.27691 35.0258 5.43111 34.9586 5.60193C34.8913 5.77274 34.8619 5.95611 34.8723 6.13939C34.8723 8.47668 34.8723 10.814 34.8723 13.1045C34.8452 13.4055 34.9342 13.7055 35.121 13.9431C35.3078 14.1806 35.5785 14.3377 35.8774 14.3822L36.4773 14.5303C36.8201 14.616 37.1629 14.7017 37.4979 14.8029C39.0677 15.2849 40.5509 16.0134 41.892 16.961L42.8737 17.6622L41.7128 17.9972C40.7561 18.2516 39.8681 18.7163 39.1138 19.3575C38.3594 19.9986 37.7576 20.8 37.3523 21.7032C36.947 22.6064 36.7483 23.5887 36.7708 24.5784C36.7933 25.5682 37.0364 26.5404 37.4823 27.4243C37.9831 28.2956 38.6676 29.0473 39.4884 29.6272C40.3091 30.2071 41.2463 30.6012 42.2348 30.7822C43.2643 30.9625 44.322 30.8923 45.3187 30.5777C46.3154 30.2631 47.2217 29.7133 47.9612 28.9747L48.4286 28.554L48.8026 29.0292L48.935 29.1695L49.0052 29.4344C49.0052 29.6291 49.0052 29.8161 49.0441 30.0031C49.0971 31.9211 48.8339 33.8347 48.265 35.6671C48.198 35.8109 48.1599 35.9664 48.153 36.1249C48.1461 36.2833 48.1705 36.4416 48.2247 36.5906C48.279 36.7397 48.3621 36.8766 48.4692 36.9935C48.5764 37.1104 48.7056 37.2051 48.8493 37.2721C50.8594 38.4407 52.8617 39.6094 54.8795 40.7391C55.0339 40.8411 55.2089 40.908 55.392 40.9349C55.5751 40.9618 55.7619 40.9482 55.9391 40.8949C56.1207 40.8235 56.2845 40.7133 56.4191 40.572C56.5536 40.4307 56.6557 40.2617 56.7182 40.0768C58.4199 35.7621 58.9337 31.0701 58.2063 26.4894L58.0894 25.7103L57.9336 24.6507H60.6916C60.9364 24.6841 61.1857 24.656 61.4169 24.5689C61.6481 24.4819 61.854 24.3386 62.0161 24.1521C62.1218 23.9289 62.1695 23.6825 62.1545 23.436C62.1395 23.1894 62.0624 22.9507 61.9304 22.7419C59.5983 18.1557 57.2818 13.585 54.9808 9.02984ZM43.2476 28.5072C42.1845 28.462 41.1798 28.0082 40.4432 27.2403C39.7066 26.4724 39.2948 25.4498 39.2938 24.3857C39.2928 23.3216 39.7026 22.2982 40.4378 21.5289C41.173 20.7596 42.1768 20.3038 43.2398 20.2566C43.7967 20.2324 44.3526 20.3212 44.8742 20.5176C45.3958 20.714 45.8723 21.014 46.2748 21.3994C46.6774 21.7849 46.9978 22.2478 47.2167 22.7604C47.4355 23.273 47.5484 23.8246 47.5484 24.3819C47.5484 24.9393 47.4355 25.4909 47.2167 26.0034C46.9978 26.516 46.6774 26.979 46.2748 27.3644C45.8723 27.7499 45.3958 28.0499 44.8742 28.2463C44.3526 28.4427 43.7967 28.5314 43.2398 28.5072H43.2476ZM57.5908 22.2745H56.6715C56.4323 22.2483 56.1903 22.2753 55.9627 22.3534C55.7351 22.4315 55.5275 22.5588 55.3548 22.7263C55.2378 22.9317 55.1674 23.1603 55.1486 23.3959C55.1297 23.6315 55.1629 23.8684 55.2457 24.0898C56.4208 28.254 56.445 32.6589 55.3158 36.8358L55.2146 37.1396L54.9341 38.0122L51.0386 35.7528V35.3867C51.0853 34.7945 51.1399 34.2102 51.2022 33.6337C51.3389 32.4647 51.4118 31.2891 51.4204 30.1122C51.319 26.2038 50.0101 22.4227 47.6735 19.2882C45.3368 16.1536 42.0871 13.8193 38.3705 12.6059C38.0092 12.5393 37.6881 12.3343 37.4757 12.0345C37.2632 11.7348 37.1762 11.3639 37.233 11.0009C37.272 10.3855 37.233 9.7544 37.233 9.08437C37.233 8.78832 37.233 8.48447 37.233 8.17283V7.39373L38.0121 7.5963L38.6042 7.75212C39.0249 7.86119 39.4301 7.97027 39.8196 8.09492C43.4105 9.25349 46.665 11.2698 49.3012 13.9693L49.6284 14.3043C49.7487 14.4646 49.9071 14.5922 50.0894 14.6754C50.2716 14.7587 50.4718 14.7951 50.6716 14.7811C50.8715 14.7672 51.0647 14.7034 51.2336 14.5956C51.4025 14.4878 51.5417 14.3395 51.6385 14.1641L52.5968 12.9097L53.6252 11.5385L59.0789 22.2199L57.5908 22.2745Z" fill="white"/>
<path d="M52.3708 44.7902L46.6445 41.4868C45.7953 40.996 45.4213 41.0505 44.6578 41.7828C43.75 42.6547 42.7955 43.4766 41.7985 44.2448C41.3421 44.5804 40.8602 44.88 40.3572 45.1407C40.139 45.2654 39.9131 45.3823 39.6872 45.5225L38.7133 46.0912L38.8068 44.9693C39.1418 40.9726 38.3159 38.8612 35.8618 37.4355C34.84 36.7597 33.6379 36.4085 32.413 36.428C31.1881 36.4475 29.9977 36.8367 28.998 37.5446C26.4737 39.2118 25.5699 41.6114 26.2322 44.8759L26.4893 46.0601L25.0947 45.3511C24.8999 45.2498 24.7363 45.1719 24.5727 45.0784C22.9584 44.1923 21.5003 43.0474 20.2565 41.6894C20.1426 41.5373 19.9974 41.4113 19.8308 41.3199C19.6642 41.2285 19.4799 41.1739 19.2904 41.1596C19.0122 41.179 18.7437 41.2703 18.5113 41.4245C16.548 42.5464 14.5899 43.676 12.6369 44.8135C12.4445 44.8862 12.2742 45.0074 12.1425 45.1654C12.0109 45.3233 11.9223 45.5127 11.8854 45.715C11.8486 45.9173 11.8647 46.1258 11.9322 46.32C11.9997 46.5143 12.1164 46.6877 12.2708 46.8236C15.166 50.4577 18.988 53.2435 23.3339 54.8872L24.2611 55.23L25.3128 55.6118L24.8532 56.8739C24.6896 57.3648 24.5259 57.84 24.3701 58.3231C24.26 58.5259 24.2087 58.7555 24.2221 58.9859C24.2355 59.2163 24.313 59.4384 24.4458 59.6271C24.5786 59.8158 24.7616 59.9637 24.974 60.054C25.1863 60.1444 25.4197 60.1736 25.6478 60.1384H39.3521C39.581 60.1777 39.8163 60.152 40.0312 60.0641C40.2461 59.9762 40.4319 59.8297 40.5676 59.6412C40.7032 59.4528 40.7832 59.23 40.7983 58.9983C40.8135 58.7666 40.7632 58.5353 40.6532 58.3308C40.4896 57.8322 40.326 57.3336 40.1546 56.8428L39.804 55.791L40.139 55.5417C40.2217 55.4681 40.3133 55.4053 40.4117 55.3547C40.5338 55.3037 40.6587 55.2594 40.7857 55.2222C45.484 53.6382 49.631 50.7428 52.737 46.8781C52.8825 46.7235 52.9949 46.5408 53.0673 46.3412C53.1396 46.1415 53.1704 45.9292 53.1577 45.7173C53.0954 45.5179 52.9936 45.3331 52.8585 45.1738C52.7233 45.0145 52.5575 44.8841 52.3708 44.7902ZM32.5117 38.869C33.6068 38.869 34.6571 39.3041 35.4315 40.0784C36.2059 40.8528 36.6409 41.9031 36.6409 42.9982C36.6409 44.0934 36.2059 45.1437 35.4315 45.918C34.6571 46.6924 33.6068 47.1274 32.5117 47.1274H32.4727C31.3761 47.1172 30.3279 46.6743 29.5561 45.8952C28.7842 45.1161 28.3513 44.0638 28.3513 42.9671C28.3554 42.4248 28.4662 41.8887 28.6775 41.3892C28.8888 40.8898 29.1964 40.4369 29.5827 40.0564C29.9691 39.6758 30.4266 39.3751 30.9291 39.1714C31.4317 38.9677 31.9694 38.8649 32.5117 38.869ZM49.6518 46.8002C47.8884 48.6823 45.8275 50.2616 43.5515 51.4748C41.8526 52.3788 40.0464 53.0646 38.1757 53.516C37.9691 53.526 37.7682 53.5876 37.5915 53.6951C37.4147 53.8027 37.2678 53.9528 37.1639 54.1318C37.0601 54.3107 37.0028 54.5128 36.9972 54.7197C36.9915 54.9265 37.0378 55.1314 37.1317 55.3157L37.9108 57.7231H27.0892L27.8683 55.3157C27.9688 55.1332 28.0214 54.9281 28.021 54.7196C28.0206 54.5112 27.9673 54.3063 27.8661 54.1241C27.7649 53.9419 27.619 53.7884 27.4423 53.6779C27.2655 53.5675 27.0636 53.5037 26.8554 53.4927C22.7884 52.5014 19.0603 50.441 16.0572 47.5248C15.878 47.3612 15.7066 47.182 15.543 47.0028C15.4866 46.9464 15.4369 46.8836 15.3949 46.8158L14.9898 46.2159L16.1896 45.5147C16.9687 45.0784 17.6933 44.6343 18.4568 44.2292C19.0177 43.9331 19.6956 44.5331 19.7033 44.5408C21.473 46.2069 23.5687 47.4882 25.8582 48.3039C32.9402 50.7502 39.4223 49.5271 45.1408 44.6733C45.3815 44.4002 45.7179 44.2301 46.0804 44.1982C46.443 44.1663 46.804 44.275 47.0886 44.5019C47.6028 44.8447 48.1559 45.1563 48.7325 45.4758L49.5116 45.9276L50.1504 46.2938L49.6518 46.8002Z" fill="white"/>
</svg>
