<svg width="65" height="65" viewBox="0 0 65 65" fill="none" xmlns="http://www.w3.org/2000/svg">
<path d="M49.94 10.9074C49.5816 10.6036 49.2232 10.2997 48.8726 9.98811C48.6756 9.83459 48.4329 9.75122 48.1831 9.75122C47.9334 9.75122 47.6907 9.83459 47.4936 9.98811C47.2965 10.1011 47.1427 10.2766 47.0566 10.4869C46.9706 10.6972 46.9571 10.9302 47.0184 11.149C47.1887 11.5468 47.4567 11.8951 47.7975 12.1618C55.4015 18.2543 58.7516 26.0297 57.7388 35.2776C56.7259 44.5254 51.7319 51.5217 42.9359 55.7834C42.8035 55.8457 42.671 55.9003 42.4996 55.9626L41.1518 56.4924L41.5414 55.051C41.5881 54.8874 41.6193 54.755 41.6582 54.6225C41.7273 54.4701 41.7636 54.3048 41.7646 54.1374C41.7656 53.97 41.7313 53.8043 41.664 53.651C41.5967 53.4978 41.4979 53.3604 41.374 53.2479C41.2501 53.1353 41.1038 53.0502 40.9448 52.9979C40.7858 52.9456 40.6176 52.9274 40.4511 52.9445C40.2845 52.9615 40.1235 53.0135 39.9784 53.0969C39.8333 53.1804 39.7074 53.2934 39.6089 53.4288C39.5103 53.5641 39.4414 53.7187 39.4066 53.8824C38.9859 55.1679 38.5652 56.4534 38.1601 57.7779C38.0848 57.9257 38.04 58.0872 38.0283 58.2527C38.0167 58.4182 38.0384 58.5844 38.0921 58.7413C38.1459 58.8983 38.2307 59.0428 38.3414 59.1664C38.4521 59.29 38.5865 59.3901 38.7366 59.4607L41.853 61.4864L42.9983 62.2655H43.6293C43.9116 62.1555 44.1453 61.9482 44.2882 61.681C44.4311 61.4139 44.4737 61.1044 44.4084 60.8086C44.3617 60.3177 44.0189 60.0762 43.4268 59.6789C43.2398 59.5646 43.0606 59.4399 42.8892 59.3049L42.1101 58.705L43.2787 58.1908L43.5904 58.0506C53.5862 53.3214 59.1723 45.4759 60.1929 34.6777C60.9253 26.9802 58.6347 20.0462 53.3135 14.055C52.2623 12.9299 51.1352 11.8782 49.94 10.9074Z" fill="white"/>
<path d="M44.6656 28.9357C44.8361 28.7375 44.943 28.4924 44.9722 28.2325C45.0013 27.9726 44.9515 27.71 44.8292 27.4788C44.7011 27.2636 44.5121 27.091 44.2862 26.9829C44.0602 26.8748 43.8073 26.8359 43.5593 26.8711C43.4115 26.8594 43.263 26.8594 43.1152 26.8711H36.2202L37.2019 19.758C37.7213 16.1222 38.2225 12.4864 38.7055 8.85062C38.7919 8.5481 38.7671 8.22464 38.6357 7.93881C38.5042 7.65298 38.2747 7.42368 37.9888 7.29243C37.6916 7.18547 37.3648 7.19607 37.0751 7.32206C36.7855 7.44805 36.5549 7.67991 36.4306 7.97024L30.5094 17.3194L20.2955 33.4233C20.1318 33.6145 20.0295 33.8504 20.0017 34.1005C19.9739 34.3506 20.022 34.6033 20.1397 34.8257C20.2598 35.0441 20.4431 35.2212 20.6655 35.3337C20.8879 35.4463 21.1391 35.4892 21.3862 35.4568H28.7643L28.4994 37.4824C28.3903 38.316 28.2812 39.1263 28.1721 39.9366L27.5021 44.9384C27.0762 48.0547 26.6529 51.1711 26.2322 54.2875C26.1801 54.5667 26.2365 54.8552 26.39 55.0941C26.5435 55.3331 26.7825 55.5044 27.058 55.573C27.5956 55.7522 28.0553 55.6977 28.6162 54.8485L33.0571 47.673L44.6656 28.9357ZM29.8628 46.668L29.7927 46.1148L29.8862 45.4058C29.9563 44.8215 30.0264 44.2372 30.1043 43.6606L30.5562 40.3417C30.8211 38.4095 31.086 36.4462 31.3353 34.5296C31.3638 34.3481 31.3535 34.1626 31.3052 33.9854C31.2569 33.8081 31.1715 33.6431 31.0548 33.5012C30.9138 33.3602 30.7441 33.251 30.5573 33.1811C30.3705 33.1113 30.1708 33.0823 29.9719 33.0961H23.3729L34.2803 15.956L35.3476 16.1508L35.0594 17.8492C34.9347 18.7919 34.8023 19.7346 34.6698 20.6851L34.3426 23.0224C34.1167 24.5806 33.8907 26.2089 33.6804 27.806C33.6467 27.9846 33.6523 28.1684 33.6967 28.3446C33.7411 28.5208 33.8232 28.6853 33.9375 28.8267C34.0634 28.9594 34.2159 29.0641 34.3851 29.1339C34.5542 29.2037 34.7362 29.2371 34.9191 29.2318H38.2926H41.6817L30.7743 46.8861L29.8628 46.668Z" fill="white"/>
<path d="M17.2337 52.9006L17.1558 52.8383C9.75434 46.9717 6.38864 39.3989 7.14437 30.3224C7.87672 21.5576 12.2708 14.7405 20.1942 10.1906C20.724 9.88672 21.2616 9.62961 21.8381 9.35693L22.6795 8.95959L23.8794 8.36748L23.3729 10.0347C23.3028 10.2451 23.2561 10.4087 23.2093 10.5801C23.1212 10.8787 23.1534 11.1999 23.299 11.475C23.4445 11.7502 23.692 11.9575 23.9884 12.0526C24.1315 12.1053 24.2837 12.1286 24.436 12.1213C24.5882 12.114 24.7375 12.0762 24.8749 12.01C25.0122 11.9439 25.1349 11.8508 25.2356 11.7363C25.3362 11.6219 25.4129 11.4883 25.4609 11.3436C26.0063 9.78543 26.4893 8.22724 26.8555 7.04301C26.9472 6.80384 26.9505 6.53978 26.8648 6.2984C26.7791 6.05701 26.61 5.85415 26.388 5.72634C24.9311 4.74468 23.6067 3.89547 22.3056 3.02288C22.1039 2.89132 21.8685 2.82096 21.6278 2.82031C21.4347 2.82253 21.2453 2.87284 21.0766 2.96671C20.9079 3.06057 20.7653 3.19502 20.6617 3.35789C20.5769 3.49129 20.5193 3.64013 20.4922 3.79586C20.4651 3.95159 20.469 4.11115 20.5037 4.26536C20.5385 4.41956 20.6034 4.56538 20.6947 4.69444C20.7859 4.82349 20.9018 4.93324 21.0357 5.01736L21.6511 5.43808L22.8821 6.27171L21.4642 6.91836C16.968 8.86721 13.065 11.9669 10.1486 15.9049C7.23223 19.8429 5.40545 24.4801 4.85242 29.3491C4.29938 34.2182 5.03965 39.147 6.99859 43.6387C8.95753 48.1305 12.0659 52.0265 16.0105 54.9341C16.6493 55.4093 17.0389 55.3002 17.3427 55.1288C17.5739 55.0125 17.7628 54.8267 17.883 54.5976C18.0031 54.3684 18.0485 54.1074 18.0128 53.8511C17.9193 53.4771 17.6855 53.259 17.2337 52.9006Z" fill="white"/>
</svg>
