<svg width="65" height="65" viewBox="0 0 65 65" fill="none" xmlns="http://www.w3.org/2000/svg">
<path d="M57.2714 30.9147L56.4455 30.4472L56.9208 29.6681C59.2113 25.7103 58.9542 22.5939 56.2118 20.2566C55.0452 19.2785 53.5747 18.7366 52.0523 18.7239C50.53 18.7111 49.0506 19.2282 47.8677 20.1865C45.0785 22.5238 44.8058 25.6402 47.0886 29.6681L47.5249 30.3849L46.6445 30.9692L46.2861 31.2029C45.0204 31.9785 43.9193 32.995 43.0451 34.1947L42.8503 34.4362L42.6244 34.2336C41.6988 33.3797 40.6764 32.6371 39.5781 32.021L38.2926 31.2886L39.0717 30.0109C42.1881 24.7208 41.8453 20.615 38.1524 17.4675C36.6022 16.1648 34.6467 15.4429 32.622 15.4258C30.5973 15.4088 28.6299 16.0976 27.058 17.374C23.3028 20.4904 22.96 24.6118 26.014 30.0031L26.6373 31.164L25.3051 32.0521C25.1414 32.1612 24.97 32.2781 24.7986 32.3794C23.9363 32.9333 23.13 33.57 22.3912 34.2804L22.1653 34.4829L21.9861 34.2336C20.9975 32.8829 19.7267 31.7637 18.262 30.9536L17.444 30.4862L17.9192 29.6058C20.1942 25.7103 19.9527 22.5939 17.2102 20.2566C16.0424 19.2779 14.5706 18.7357 13.0469 18.723C11.5232 18.7102 10.0425 19.2276 8.85834 20.1865C6.07696 22.5238 5.80428 25.6402 8.07924 29.6681L8.50774 30.4472L7.64295 31.0237L7.26898 31.2653C5.11719 32.5692 3.46972 34.5626 2.5944 36.9215C2.00165 38.7448 1.76363 40.6648 1.89322 42.5777C1.89322 43.871 2.21265 44.1359 3.49036 44.1359H17.6388V44.432C17.5608 45.5617 17.5608 46.6914 17.5764 47.6419C17.5764 49.2935 17.9114 49.6052 19.5397 49.613H45.4837C45.8098 49.6221 46.136 49.5986 46.4575 49.5429C46.6961 49.5116 46.9179 49.4034 47.0894 49.2347C47.2609 49.0659 47.3728 48.8459 47.408 48.6079C47.478 47.2194 47.478 45.8283 47.408 44.4398V44.1515H61.5486C61.8095 44.1586 62.0704 44.1403 62.3277 44.097C62.5297 44.0627 62.715 43.9635 62.8555 43.8145C62.9961 43.6655 63.0843 43.4747 63.1068 43.2711C63.1925 40.9962 63.2081 38.7835 62.3277 36.7345C61.3734 34.2637 59.5846 32.2048 57.2714 30.9147ZM49.0363 21.9784C49.4507 21.5848 49.9404 21.2791 50.4759 21.0796C51.0115 20.8801 51.5818 20.791 52.1527 20.8176C52.7388 20.8312 53.3163 20.9616 53.8514 21.201C54.3865 21.4405 54.8684 21.7842 55.2691 22.2122C55.6682 22.6243 55.9802 23.1127 56.1863 23.6482C56.3925 24.1836 56.4886 24.7551 56.4689 25.3285C56.4265 26.4804 55.9378 27.5707 55.1062 28.3689C54.2745 29.1671 53.1652 29.6106 52.0125 29.6058H51.88C51.2929 29.5938 50.7143 29.4634 50.1788 29.2224C49.6433 28.9814 49.162 28.6348 48.7636 28.2034C48.3691 27.789 48.0617 27.2997 47.8596 26.7644C47.6575 26.2291 47.5649 25.6588 47.5872 25.087C47.6421 23.9004 48.1628 22.7834 49.0363 21.9784ZM26.3335 23.9184C26.3936 22.3156 27.0692 20.7976 28.2199 19.6803C29.3707 18.563 30.9078 17.9322 32.5117 17.9193H32.6441C33.459 17.9417 34.2614 18.1254 35.0049 18.4597C35.7485 18.794 36.4183 19.2724 36.9759 19.8671C37.5351 20.4472 37.9721 21.1337 38.2612 21.8858C38.5502 22.6379 38.6854 23.4403 38.6588 24.2456C38.6121 25.8446 37.944 27.3625 36.7962 28.4768C35.6484 29.5912 34.1114 30.2142 32.5117 30.2135H32.3247C31.5054 30.1905 30.6989 30.0044 29.9524 29.6659C29.206 29.3275 28.5345 28.8435 27.9774 28.2424C27.4304 27.6665 27.0035 26.9877 26.7213 26.2454C26.439 25.5031 26.3072 24.7121 26.3335 23.9184ZM13.0888 20.802C13.6746 20.8173 14.2515 20.9485 14.7864 21.1878C15.3213 21.4272 15.8035 21.77 16.2052 22.1966C16.6029 22.6098 16.9139 23.0984 17.1199 23.6336C17.326 24.1688 17.4229 24.7398 17.405 25.313C17.3669 26.4582 16.8875 27.5444 16.0672 28.3444C15.2468 29.1444 14.149 29.5964 13.0031 29.6058H12.8785C12.2916 29.5924 11.7134 29.4615 11.1781 29.2206C10.6428 28.9797 10.1613 28.6338 9.76209 28.2034C9.36929 27.7882 9.06354 27.2985 8.86283 26.7633C8.66213 26.2281 8.57054 25.6582 8.59344 25.087C8.60755 24.5099 8.73563 23.9414 8.97031 23.414C9.20499 22.8866 9.54163 22.4108 9.96088 22.014C10.3801 21.6172 10.8737 21.3072 11.4132 21.1019C11.9527 20.8966 12.5274 20.7999 13.1044 20.8176L13.0888 20.802ZM18.4802 39.9833C18.269 40.5333 18.0997 41.0985 17.9738 41.674L17.927 41.8843H4.12922L4.0591 41.0273C3.98659 39.8647 4.15696 38.6997 4.55936 37.6065C4.96177 36.5133 5.58739 35.5159 6.39639 34.6777C7.23762 33.7616 8.25816 33.0281 9.39467 32.5229C10.5312 32.0176 11.7594 31.7513 13.0031 31.7405C14.5237 31.7322 16.0208 32.1148 17.351 32.8515C18.6811 33.5882 19.7997 34.6543 20.5993 35.9476L20.7006 36.1034L20.5837 36.2593C19.7196 37.4042 19.017 38.6625 18.4958 39.9989L18.4802 39.9833ZM44.8136 45.585L44.7201 46.9485H20.2565L20.1474 45.6084C20.0499 44.005 20.2863 42.3989 20.8414 40.8915C21.3967 39.3842 22.2586 38.0084 23.3729 36.8514C24.5344 35.5865 25.9438 34.5741 27.5133 33.8772C29.0828 33.1802 30.7789 32.8136 32.4961 32.8001H32.6052C34.2566 32.8103 35.8892 33.1526 37.4056 33.8068C38.9219 34.4611 40.2912 35.4137 41.4317 36.6081C42.5723 37.8024 43.4609 39.2141 44.0446 40.759C44.6283 42.3039 44.8951 43.9505 44.8292 45.6006L44.8136 45.585ZM60.9176 41.0117L60.863 41.8843H47.0496L47.0029 41.674C46.8558 41.0122 46.6552 40.3634 46.403 39.734C45.8896 38.4879 45.2194 37.3124 44.4085 36.2359L44.2916 36.0801L44.4007 35.9242C45.219 34.6602 46.3372 33.6182 47.6558 32.8909C48.9743 32.1637 50.4523 31.7739 51.9579 31.7561C53.1622 31.7521 54.3548 31.9915 55.4641 32.46C56.5735 32.9285 57.5767 33.6164 58.4135 34.4823C59.2504 35.3483 59.9036 36.3744 60.3339 37.4991C60.7642 38.6239 60.9627 39.824 60.9176 41.0273V41.0117Z" fill="white"/>
</svg>
