<svg width="67" height="66" viewBox="0 0 67 66" fill="none" xmlns="http://www.w3.org/2000/svg">
<path d="M58.6491 11.0426L55.6757 12.5935C55.4057 12.7343 55.0914 12.7638 54.8 12.6757C54.5085 12.5876 54.2631 12.389 54.1162 12.1223L49.5491 4.05048C49.0912 3.139 48.3904 2.37176 47.524 1.83345C46.6575 1.29515 45.6591 1.00672 44.6391 1H32.3773L42.1199 19.9541C42.2641 20.2282 42.2992 20.5466 42.2182 20.8455C42.1371 21.1444 41.9458 21.4014 41.6829 21.565L38.7524 23.3731L52.1026 24.9326L58.6491 11.0426Z" stroke="white" stroke-width="2" stroke-linecap="round" stroke-linejoin="round"/>
<path d="M24.8453 1C23.7918 1.01065 22.7592 1.29509 21.8488 1.82539C20.9384 2.35569 20.1816 3.11362 19.6526 4.02477L16.585 9.16604L27.5873 16.3638L32.6086 7.08382L29.6695 1.00857L24.8453 1Z" stroke="white" stroke-width="2" stroke-linecap="round" stroke-linejoin="round"/>
<path d="M8.70175 53.0295L11.9579 58.8305C12.4964 59.786 13.2757 60.5837 14.2183 61.1445C15.1609 61.7052 16.2338 62.0094 17.3305 62.0267H20.8951V47.3569H12.0607L8.70175 53.0295Z" stroke="white" stroke-width="2" stroke-linecap="round" stroke-linejoin="round"/>
<path d="M61.9481 27.1091L49.7975 34.3926L54.8274 43.6983H62.9591L65.1013 40.1594C65.6653 39.2121 65.9744 38.1349 65.9985 37.0327C66.0225 35.9305 65.7606 34.8408 65.2385 33.8699L61.9481 27.1091Z" stroke="white" stroke-width="2" stroke-linecap="round" stroke-linejoin="round"/>
<path d="M6.19963 25.3867L1.77822 34.4867C1.26748 35.4332 1 36.4917 1 37.5672C1 38.6427 1.26748 39.7012 1.77822 40.6477L7.34792 50.5446L17.6304 32.2417C17.7685 31.9925 17.9919 31.8016 18.2595 31.704C18.5271 31.6064 18.821 31.6087 19.0871 31.7104L22.1976 32.9443L16.645 20.571L2.18093 21.4965L5.81408 23.8015C6.0588 23.9747 6.23263 24.2306 6.30349 24.5219C6.37436 24.8133 6.33745 25.1204 6.19963 25.3867V25.3867Z" stroke="white" stroke-width="2" stroke-linecap="round" stroke-linejoin="round"/>
<path d="M38.701 44.9149V41.9758L29.5581 52.3012L38.701 64.5117V63.2178C38.6988 63.0603 38.7275 62.9038 38.7857 62.7574C38.8439 62.611 38.9304 62.4775 39.0402 62.3645C39.15 62.2515 39.281 62.1612 39.4257 62.0989C39.5704 62.0365 39.726 62.0033 39.8835 62.001H49.3862C50.4081 62.0244 51.4147 61.7501 52.2834 61.2115C53.1522 60.6729 53.8455 59.8933 54.279 58.9677L61.5624 46.1145H39.8835C39.569 46.1079 39.2695 45.9788 39.0487 45.7548C38.8279 45.5308 38.7032 45.2295 38.701 44.9149V44.9149Z" stroke="white" stroke-width="2" stroke-linecap="round" stroke-linejoin="round"/>
</svg>
