<svg width="65" height="65" viewBox="0 0 65 65" fill="none" xmlns="http://www.w3.org/2000/svg">
<path d="M47.3067 42.1257C47.5443 42.0917 47.7634 41.9786 47.9288 41.8048C48.0942 41.6309 48.1962 41.4064 48.2183 41.1674C48.4083 39.1874 48.1719 37.1896 47.5249 35.3086C46.6438 33.0901 45.0151 31.2491 42.9204 30.1042L42.4062 29.8082L42.7023 29.3018C44.7747 25.7413 44.5487 22.8509 42.0322 20.7317C40.9593 19.8319 39.6066 19.3336 38.2064 19.3222C36.8061 19.3108 35.4456 19.7871 34.3581 20.6694C33.7576 21.124 33.2589 21.6991 32.8939 22.3579C32.529 23.0167 32.3059 23.7446 32.239 24.4948L32.1377 25.827L31.2262 24.8453C31.0404 24.6416 30.8427 24.4491 30.6341 24.2688C29.5435 23.3523 28.1631 22.8526 26.7386 22.8587C25.3783 22.8489 24.0558 23.3053 22.9911 24.152C20.4357 26.2711 20.1786 29.1849 22.212 32.8077L22.4847 33.283L21.8926 33.6803L21.5887 33.8751C19.6362 35.0475 18.1413 36.8501 17.3505 38.9859C16.8142 40.6199 16.5999 42.3423 16.7194 44.0579C16.7194 45.3278 17.1012 45.694 18.3555 45.694H35.2074C35.4423 45.6997 35.6773 45.6814 35.9085 45.6394C36.1454 45.6071 36.3644 45.4956 36.5299 45.323C36.6954 45.1504 36.7977 44.927 36.8201 44.6889C36.8201 43.9098 36.859 43.3099 36.8201 42.749V42.1491H46.6055C46.8395 42.1604 47.074 42.1526 47.3067 42.1257ZM38.277 21.6511C38.7578 21.666 39.231 21.7755 39.6694 21.9733C40.1079 22.1712 40.5031 22.4535 40.8324 22.8041C41.1605 23.1466 41.4169 23.5511 41.5868 23.9939C41.7567 24.4367 41.8366 24.9089 41.8219 25.3829C41.7895 26.3275 41.3909 27.2223 40.7103 27.8781C40.0298 28.534 39.1208 28.8992 38.1757 28.8967H38.0666C37.5828 28.8819 37.1066 28.7718 36.6654 28.5726C36.2242 28.3734 35.8267 28.089 35.4956 27.7358C35.1737 27.3932 34.9226 26.9905 34.7568 26.5506C34.591 26.1107 34.5138 25.6424 34.5295 25.1726C34.572 24.213 34.9875 23.3079 35.6875 22.6501C36.3875 21.9923 37.3166 21.6339 38.277 21.6511ZM26.8009 25.1959H26.8866C27.854 25.2252 28.7702 25.6371 29.4342 26.3412C29.7616 26.6842 30.0176 27.0888 30.1874 27.5315C30.3572 27.9741 30.4376 28.4461 30.4237 28.92C30.3915 29.8612 29.9964 30.7535 29.3211 31.41C28.6458 32.0664 27.7427 32.4361 26.8009 32.4415H26.6918C26.213 32.4244 25.7422 32.3131 25.3064 32.1139C24.8706 31.9147 24.4783 31.6316 24.152 31.2807C23.8286 30.9388 23.5761 30.5363 23.409 30.0963C23.2419 29.6564 23.1634 29.1878 23.1781 28.7175C23.2141 27.7775 23.6104 26.8875 24.2849 26.2318C24.9594 25.5762 25.8603 25.2053 26.8009 25.1959ZM34.4283 42.749V43.2943H19.1969L19.1502 42.7568C19.0873 41.7682 19.23 40.7774 19.5692 39.8468C19.9085 38.9162 20.437 38.066 21.1213 37.3498C21.8412 36.5671 22.7137 35.94 23.6852 35.5072C24.6566 35.0744 25.7063 34.8451 26.7697 34.8334H26.8243C27.848 34.8379 28.8605 35.0481 29.8014 35.4515C30.7424 35.8548 31.5927 36.4431 32.302 37.1814C33.0112 37.9197 33.5649 38.793 33.9301 39.7494C34.2954 40.7058 34.4648 41.7259 34.4283 42.749ZM45.8264 39.2119V39.7572H36.4773L36.3448 39.3521C36.2825 39.1651 36.228 39.0015 36.1656 38.8457C35.4731 37.1036 34.3107 35.5878 32.8077 34.4672L32.2702 34.0621L32.7454 33.5868C34.1976 32.1452 36.153 31.3239 38.1991 31.2963C39.2232 31.2998 40.2361 31.5092 41.1775 31.9122C42.119 32.3152 42.9698 32.9035 43.6792 33.642C44.3887 34.3805 44.9423 35.2542 45.3072 36.2111C45.6721 37.168 45.8407 38.1885 45.8031 39.2119H45.8264Z" fill="white"/>
<path d="M49.9401 10.9074C49.5817 10.6036 49.2233 10.2997 48.8727 9.98811C48.6756 9.83459 48.433 9.75122 48.1832 9.75122C47.9334 9.75122 47.6907 9.83459 47.4937 9.98811C47.2966 10.1011 47.1428 10.2766 47.0567 10.4869C46.9706 10.6972 46.9571 10.9302 47.0184 11.149C47.1888 11.5468 47.4567 11.8951 47.7975 12.1618C55.4015 18.2543 58.7516 26.0297 57.7466 35.2776C56.7416 44.5254 51.732 51.5217 42.9438 55.7834C42.8113 55.8457 42.6789 55.9003 42.5075 55.9626L41.1674 56.4924L41.5414 55.0744L41.6661 54.6225C41.7336 54.4688 41.7687 54.3027 41.7693 54.1348C41.7698 53.9668 41.7358 53.8005 41.6693 53.6463C41.6028 53.4921 41.5052 53.3532 41.3827 53.2383C41.2601 53.1235 41.1153 53.0351 40.9571 52.9786C40.808 52.9243 40.6491 52.9018 40.4908 52.9125C40.3325 52.9233 40.1782 52.967 40.0377 53.041C39.7271 53.2335 39.4972 53.5326 39.3911 53.8824C38.9704 55.1679 38.5497 56.4534 38.1445 57.7779C38.0693 57.9257 38.0245 58.0872 38.0128 58.2527C38.0011 58.4182 38.0228 58.5844 38.0766 58.7413C38.1304 58.8983 38.2151 59.0428 38.3258 59.1664C38.4365 59.29 38.5709 59.3901 38.7211 59.4607L41.7907 61.4786L42.9516 62.2577H43.5826C43.8701 62.1538 44.1111 61.9508 44.2625 61.6852C44.4138 61.4197 44.4656 61.1088 44.4085 60.8086C44.3539 60.3177 44.0111 60.0762 43.419 59.6789C43.2398 59.562 43.0528 59.4374 42.8814 59.3049L42.1024 58.705L43.2632 58.1908L43.5826 58.0506C53.5784 53.3214 59.1646 45.4759 60.1852 34.6777C60.9175 26.9802 58.627 20.0462 53.3058 14.055C52.2571 12.9302 51.1325 11.8785 49.9401 10.9074Z" fill="white"/>
<path d="M17.2336 52.9006L17.1557 52.8383C9.75429 46.9717 6.38859 39.3989 7.14431 30.3224C7.88446 21.5576 12.2708 14.7405 20.1942 10.1906C20.724 9.88672 21.2693 9.62961 21.8381 9.35693L22.6795 8.95959L23.8793 8.36748L23.3729 10.0425C23.3106 10.2451 23.2638 10.4087 23.2171 10.5801C23.1289 10.8787 23.1611 11.1999 23.3067 11.475C23.4523 11.7502 23.6997 11.9575 23.9962 12.0526C24.1394 12.1031 24.2912 12.1248 24.4428 12.1164C24.5944 12.1081 24.7429 12.0699 24.8797 12.004C25.0165 11.9382 25.139 11.8459 25.2401 11.7326C25.3411 11.6192 25.4188 11.4871 25.4687 11.3436C26.014 9.78543 26.4971 8.22724 26.8632 7.04301C26.9549 6.80384 26.9582 6.53978 26.8725 6.2984C26.7868 6.05701 26.6178 5.85415 26.3958 5.72634C24.9311 4.74468 23.6066 3.89547 22.3055 3.02288C22.1039 2.89132 21.8685 2.82096 21.6277 2.82031C21.4347 2.82253 21.2453 2.87284 21.0766 2.96671C20.9079 3.06057 20.7653 3.19502 20.6616 3.35789C20.5768 3.49129 20.5192 3.64013 20.4921 3.79586C20.465 3.95159 20.4689 4.11115 20.5037 4.26536C20.5384 4.41956 20.6033 4.56538 20.6946 4.69444C20.7859 4.82349 20.9018 4.93324 21.0356 5.01736L21.6511 5.43808L22.8821 6.27171L21.4641 6.91836C16.968 8.86721 13.065 11.9669 10.1486 15.9049C7.23217 19.8429 5.40539 24.4801 4.85236 29.3491C4.29933 34.2182 5.03959 39.147 6.99854 43.6387C8.95748 48.1305 12.0659 52.0265 16.0104 54.9341C16.6493 55.4093 17.0466 55.3002 17.3427 55.1288C17.5738 55.0125 17.7627 54.8267 17.8829 54.5976C18.0031 54.3684 18.0485 54.1074 18.0127 53.8511C17.9192 53.4771 17.6855 53.259 17.2336 52.9006Z" fill="white"/>
</svg>
