<svg width="65" height="65" viewBox="0 0 65 65" fill="none" xmlns="http://www.w3.org/2000/svg">
<path d="M62.0239 34.1712C61.5466 31.0603 59.9552 28.2288 57.546 26.2037C55.1368 24.1786 52.0739 23.0978 48.9273 23.1626H47.5249C46.3952 23.1626 45.2655 23.1626 44.128 23.1626C43.9198 23.1612 43.7143 23.1145 43.526 23.0257C43.3376 22.9369 43.1708 22.8082 43.0373 22.6484C41.7073 20.847 39.944 19.4106 37.9108 18.4724C37.7348 18.3983 37.5811 18.2795 37.465 18.1279C37.3489 17.9762 37.2743 17.7969 37.2486 17.6076C37.2486 16.3611 37.2486 15.1223 37.2486 13.8602V12.302H40.0378C41.1285 12.302 42.2192 12.302 43.31 12.302C44.5283 12.2638 45.6846 11.756 46.537 10.8847C47.3894 10.0134 47.8718 8.84624 47.8833 7.6274C47.9 6.39554 47.4298 5.20687 46.5749 4.31984C45.7199 3.4328 44.5494 2.91913 43.3178 2.89049C37.4122 2.89049 29.6213 2.82817 21.6978 2.89049C20.7947 2.86738 19.907 3.12772 19.1594 3.63496C18.4119 4.1422 17.8419 4.87086 17.5297 5.71861C17.1429 6.53697 17.014 7.45357 17.1601 8.34686C17.3062 9.24015 17.7204 10.0679 18.3477 10.7204C18.7854 11.2256 19.3296 11.6273 19.9413 11.8968C20.5529 12.1662 21.2167 12.2966 21.8848 12.2786C23.0924 12.2786 24.3 12.2786 25.531 12.2786H27.767V14.1017C27.767 15.1768 27.767 16.2364 27.767 17.2882C27.7843 17.5504 27.7183 17.8115 27.5784 18.0339C27.4384 18.2564 27.2318 18.429 26.9879 18.527C25.0414 19.4108 23.3581 20.7854 22.103 22.5159C21.9558 22.7227 21.7604 22.8905 21.5336 23.0045C21.3068 23.1186 21.0557 23.1755 20.8019 23.1704C18.9554 23.1704 17.1168 23.1704 15.2703 23.1704H12.3097V21.1915C12.3097 18.0361 10.3542 16.0728 7.21445 16.0728H5.20438V14.9119C5.20438 14.5224 5.20438 14.1718 5.20438 13.8134C5.21844 13.6496 5.19824 13.4847 5.14506 13.3291C5.09187 13.1735 5.00688 13.0307 4.89548 12.9098C4.78408 12.7888 4.64871 12.6924 4.49801 12.6267C4.34731 12.561 4.18457 12.5273 4.02015 12.5279C3.85917 12.5297 3.70025 12.5643 3.55308 12.6295C3.40592 12.6948 3.2736 12.7894 3.16423 12.9075C3.05485 13.0256 2.97071 13.1648 2.91694 13.3166C2.86317 13.4683 2.84091 13.6294 2.85151 13.7901C2.85151 24.7649 2.85151 35.7372 2.85151 46.7069C2.84211 47.0645 2.97362 47.4114 3.21768 47.6729C3.44884 47.875 3.74433 47.9882 4.05132 47.9924C4.20858 47.9864 4.36309 47.9493 4.50595 47.8833C4.64881 47.8172 4.77717 47.7236 4.88365 47.6077C4.99012 47.4918 5.07259 47.356 5.1263 47.208C5.18002 47.0601 5.2039 46.903 5.19659 46.7458C5.19659 46.3719 5.19659 46.0057 5.19659 45.6161V44.4475H7.12875C10.362 44.4475 12.2942 42.5231 12.2942 39.2899V37.3967H14.9041C16.8441 37.3967 18.7529 37.3967 20.6539 37.3967C20.9403 37.3846 21.2252 37.4447 21.4825 37.5713C21.7397 37.6978 21.9611 37.8869 22.1264 38.1212C23.2826 39.6917 24.7884 40.9718 26.5246 41.8601C28.2608 42.7485 30.1798 43.2209 32.1299 43.2399C34.2263 43.3286 36.3119 42.8953 38.1994 41.9787C40.0869 41.0622 41.7172 39.6912 42.9438 37.9888C43.0533 37.8269 43.1962 37.6904 43.3628 37.5883C43.5294 37.4861 43.716 37.4208 43.9099 37.3967C44.7669 37.3967 45.6317 37.3967 46.5121 37.3967H47.9768V44.0501C47.9768 45.3123 48.3429 45.6707 49.6207 45.6707H52.6124C55.16 45.6707 57.7934 45.6707 60.4033 45.6707C61.3616 45.6707 61.868 45.4369 62.1953 44.8059V34.7711C62.094 34.553 62.055 34.366 62.0239 34.1712ZM9.91791 39.3522C9.91791 41.1285 8.983 42.0712 7.22224 42.0712H5.24333V18.449H6.41198C6.85606 18.449 7.29236 18.449 7.72086 18.449C8.32705 18.4872 8.89458 18.7598 9.30323 19.2092C9.71187 19.6586 9.92954 20.2494 9.91012 20.8565C9.91012 22.0796 9.91012 23.3028 9.91012 24.5182L9.91791 39.3522ZM22.0251 9.91794C21.5978 9.9276 21.175 9.82997 20.7953 9.63397C20.4155 9.43798 20.091 9.14988 19.8514 8.79604C19.6441 8.4776 19.5217 8.11143 19.4958 7.73235C19.4699 7.35326 19.5413 6.97384 19.7034 6.63016C19.8993 6.18117 20.2287 5.80343 20.6469 5.54832C21.0651 5.29322 21.5518 5.17314 22.0406 5.20441H42.9983C43.4302 5.1901 43.8585 5.28723 44.2419 5.48646C44.6254 5.68568 44.951 5.98028 45.1876 6.34189C45.3956 6.67333 45.513 7.05354 45.528 7.44455C45.5431 7.83556 45.4552 8.22367 45.2733 8.57011C45.0812 9.00823 44.7594 9.37687 44.3512 9.62626C43.9429 9.87565 43.468 9.99377 42.9905 9.96469H22.0251V9.91794ZM59.7957 43.2321H50.353V36.3215C50.3725 36.1414 50.3516 35.9593 50.2916 35.7884C50.2317 35.6174 50.1343 35.4621 50.0066 35.3336C49.8789 35.2052 49.7241 35.1069 49.5535 35.046C49.383 34.985 49.2009 34.963 49.0208 34.9815H46.9717C45.7018 34.9815 44.4319 34.9815 43.1542 34.9815C42.8124 34.952 42.4697 35.0252 42.1699 35.1918C41.87 35.3583 41.6268 35.6107 41.4713 35.9164C40.5314 37.507 39.1744 38.8102 37.5471 39.685C35.9198 40.5597 34.0842 40.9727 32.239 40.8792C30.4982 40.8669 28.7892 40.4112 27.2734 39.5552C25.7576 38.6991 24.4849 37.4709 23.5755 35.9865C23.4054 35.6571 23.1413 35.3858 22.8167 35.2068C22.4921 35.0279 22.1217 34.9494 21.7524 34.9815C19.8046 34.9815 17.8569 34.9815 15.917 34.9815H12.3253V25.5388H15.917C17.9504 25.5388 19.9916 25.5388 22.0251 25.5388C22.306 25.5588 22.5867 25.4956 22.8319 25.357C23.0772 25.2185 23.2762 25.0107 23.4041 24.7597C24.6928 22.6145 26.7036 20.9987 29.0759 20.202C29.2427 20.1766 29.4026 20.118 29.5464 20.0297C29.6901 19.9414 29.8147 19.8252 29.9127 19.6879C30.0108 19.5506 30.0803 19.3951 30.1173 19.2305C30.1542 19.0659 30.1577 18.8955 30.1277 18.7295V12.3331H34.8412V18.8308C34.7989 19.1269 34.8701 19.428 35.0407 19.6736C35.2112 19.9193 35.4684 20.0914 35.7605 20.1553C38.2435 20.9777 40.3425 22.6752 41.6661 24.9311C41.7805 25.1372 41.9511 25.3066 42.1579 25.4197C42.3648 25.5328 42.5995 25.5849 42.8347 25.57H48.9896C50.4125 25.5416 51.8266 25.8001 53.1474 26.3301C54.4682 26.8602 55.6687 27.6509 56.6773 28.6551C57.6858 29.6592 58.4817 30.8563 59.0175 32.1748C59.5533 33.4933 59.8179 34.9063 59.7957 36.3293V43.2321Z" fill="white"/>
<path d="M59.3048 59.5541C59.612 58.9687 59.7796 58.3202 59.7945 57.6592C59.8093 56.9983 59.6711 56.3429 59.3905 55.7443C58.4957 53.8822 57.3125 52.1732 55.8846 50.6802C55.7856 50.5709 55.6656 50.4828 55.5317 50.4212C55.3978 50.3596 55.2528 50.3258 55.1055 50.3218C54.9582 50.3262 54.8133 50.3602 54.6795 50.4218C54.5456 50.4834 54.4256 50.5712 54.3264 50.6802C52.8897 52.1597 51.7101 53.8686 50.836 55.7365C50.3899 56.6923 50.3019 57.7764 50.5879 58.7917C50.8738 59.8069 51.5148 60.6857 52.3942 61.2681C52.8526 61.5476 53.3448 61.7675 53.8589 61.9225L54.5367 62.1796H55.7755C55.8839 62.1377 55.9961 62.1064 56.1105 62.0861C56.7963 61.9249 57.4382 61.6144 57.9903 61.1767C58.5424 60.7391 58.9913 60.185 59.3048 59.5541ZM55.0743 59.8034C54.6005 59.7923 54.1413 59.6374 53.7576 59.3593C53.3444 59.1126 53.0307 58.7288 52.8713 58.2746C52.7119 57.8205 52.7167 57.3249 52.885 56.874C53.2278 56.1962 53.6096 55.5417 53.9836 54.9107L54.451 54.1316L54.6224 53.8355H55.534L55.7054 54.1316C55.8534 54.3965 56.017 54.6613 56.1728 54.9107C56.539 55.5417 56.9519 56.1962 57.2636 56.8662C57.436 57.3073 57.4528 57.794 57.3111 58.2459C57.1695 58.6978 56.8778 59.0878 56.4845 59.3515C56.0745 59.6485 55.5805 59.8068 55.0743 59.8034Z" fill="white"/>
</svg>
