<svg width="65" height="65" viewBox="0 0 65 65" fill="none" xmlns="http://www.w3.org/2000/svg">
<path d="M55.8768 56.4922C54.4978 55.978 53.0486 55.5417 51.6541 55.121L49.7842 54.5367L49.4492 54.4354L48.8571 54.264V44.7435L49.6362 45.0941C50.8959 45.6955 52.2818 45.9855 53.677 45.9394C55.0722 45.8933 56.4358 45.5125 57.6531 44.8292C59.4764 43.8456 60.8781 42.2305 61.5953 40.287C62.3975 38.1565 62.3424 35.7978 61.4416 33.7071C60.5408 31.6163 58.8644 29.9562 56.7649 29.0758L56.3598 28.8966L56.4143 28.4603C56.6184 27.0941 56.4764 25.6985 56.0014 24.4013C55.4807 22.836 54.5194 21.4543 53.2328 20.4219C51.9461 19.3896 50.3889 18.7505 48.748 18.5814C48.4922 18.5563 48.2481 18.4617 48.0421 18.3079C47.8362 18.1541 47.6762 17.947 47.5794 17.7088C46.5984 15.5259 44.8915 13.7501 42.749 12.6837C42.5711 12.5932 42.4179 12.4608 42.3025 12.2979C42.1871 12.1351 42.1131 11.9466 42.0868 11.7487C41.9264 9.53237 41.0038 7.43984 39.4757 5.8265C37.9475 4.21317 35.9081 3.1785 33.7037 2.8982C33.6025 2.89082 33.5042 2.86158 33.4154 2.8125H31.3976C31.1015 2.9008 30.8055 2.97871 30.5094 3.04623C29.8505 3.18889 29.2063 3.39233 28.585 3.65392C27.0184 4.31294 25.6611 5.38654 24.659 6.75928C23.6569 8.13202 23.0479 9.75195 22.8976 11.4449C22.8771 11.7648 22.7708 12.0733 22.5898 12.3379C22.4088 12.6025 22.1599 12.8134 21.8692 12.9485C19.9414 13.9628 18.4043 15.5876 17.4985 17.5686C17.3699 17.8731 17.1603 18.1365 16.8924 18.3302C16.6246 18.5239 16.3087 18.6404 15.9792 18.6671C13.8718 18.9726 11.951 20.0443 10.5841 21.6771C9.21714 23.3099 8.50009 25.3893 8.57004 27.5176C8.63346 27.9518 8.5478 28.3947 8.32705 28.7739C8.10631 29.1531 7.76352 29.4463 7.35465 29.6056C6.15149 30.2472 5.12052 31.1691 4.3489 32.2933C3.57729 33.4175 3.08772 34.711 2.9216 36.0643C2.90158 36.1822 2.86758 36.2973 2.82031 36.4071V38.0978L2.89822 38.4484C2.96055 38.7366 3.03067 39.0327 3.10079 39.3209C3.40022 40.5113 3.94741 41.6251 4.70663 42.5896C5.46585 43.554 6.42 44.3475 7.50675 44.9181C8.59351 45.4887 9.78842 45.8235 11.0134 45.9008C12.2384 45.9782 13.466 45.7962 14.6158 45.3667L14.9431 45.2577L15.9169 44.9149V54.3186L15.4962 54.4354L14.3276 54.7626C13.4861 54.9964 12.6136 55.2457 11.7799 55.5417C8.95626 56.3263 6.31079 57.649 3.98896 59.4372C3.67119 59.7226 3.3792 60.0355 3.11637 60.3721L2.83589 60.7149V61.2759C2.83589 61.3382 2.9138 61.4005 2.94497 61.4629C3.0333 61.6431 3.16235 61.8002 3.32191 61.9219C3.48148 62.0436 3.66717 62.1265 3.8643 62.1641C4.02702 62.1927 4.19428 62.1815 4.3517 62.1313C4.50912 62.0811 4.652 61.9934 4.76805 61.8758C7.45594 59.3671 10.7905 58.2218 13.9848 57.3492C21.1593 55.4897 28.5783 54.7512 35.9786 55.16C41.5018 55.3031 46.983 56.1621 52.2851 57.7154C53.7333 58.1478 55.141 58.7056 56.4923 59.3827C57.7379 60.06 58.9238 60.8419 60.0371 61.72C60.2759 61.9466 60.5897 62.0775 60.9188 62.0875C61.2479 62.0976 61.5691 61.9862 61.8213 61.7745C61.9378 61.6571 62.0284 61.5166 62.0873 61.3621C62.1462 61.2076 62.172 61.0424 62.1632 60.8773C62.1544 60.7122 62.1111 60.5507 62.0361 60.4033C61.9611 60.2559 61.8561 60.1259 61.7278 60.0215C60.0519 58.4407 58.0568 57.2372 55.8768 56.4922ZM16.1429 41.5725C15.5505 42.1915 14.8396 42.6849 14.0526 43.0236C13.2656 43.3622 12.4185 43.5391 11.5618 43.5437C10.6235 43.5423 9.69736 43.3321 8.85052 42.9282C7.68871 42.3756 6.72107 41.4847 6.07455 40.3724C5.42804 39.2602 5.13285 37.9784 5.22772 36.6954C5.33095 35.3443 5.86739 34.0626 6.7573 33.0407C7.64721 32.0189 8.84309 31.3114 10.1672 31.0236C11.0554 30.8132 11.2346 30.3769 11.2969 29.9796C11.3011 29.693 11.2536 29.4079 11.1566 29.1382C10.9138 28.3 10.8404 27.4219 10.9407 26.5551C11.041 25.6883 11.3131 24.8501 11.741 24.0896C12.1147 23.4014 12.6233 22.7956 13.2363 22.3083C13.8494 21.8211 14.5544 21.4624 15.3092 21.2537L16.0026 21.0745L16.0416 21.7835C16.0416 22.2276 16.0805 22.6795 16.0961 23.1235C16.1002 24.0522 16.1731 24.9793 16.3143 25.8971C17.0934 30.0965 19.1034 32.909 22.547 34.5685C22.8628 34.7132 23.109 34.9762 23.2326 35.3008C23.9234 37.4586 25.3523 39.304 27.2684 40.513C27.3546 40.5735 27.4308 40.6471 27.4943 40.7311L27.7826 41.0973L27.5099 41.5024C26.9909 42.1071 26.3514 42.5969 25.6324 42.9403C24.9133 43.2837 24.1304 43.4733 23.3339 43.4969C22.4389 43.5419 21.5443 43.4026 20.7053 43.0877C19.8664 42.7727 19.1011 42.2889 18.4568 41.666C18.1633 41.3545 17.8002 41.1169 17.3972 40.9726C17.0622 40.9025 16.735 40.9648 16.1429 41.5725ZM31.2729 52.6201H30.7197L28.9122 52.737C27.5021 52.8149 26.1698 52.8928 24.8064 53.0175C23.443 53.1421 22.1107 53.3057 20.7941 53.4693L19.0021 53.6797L18.3477 53.7576V44.8292L19.1268 45.1252C23.5754 46.7925 27.206 45.7952 30.2289 42.0789L31.2651 40.8012L31.2729 52.6201ZM33.6803 19.2748C33.6899 19.0338 33.6663 18.7926 33.6102 18.558C33.5345 18.292 33.3669 18.0615 33.1372 17.9075C32.9076 17.7534 32.6307 17.6858 32.3559 17.7166C32.0777 17.7542 31.8212 17.8876 31.6307 18.0937C31.4402 18.2999 31.3274 18.566 31.3119 18.8463C31.3119 18.9787 31.3119 19.1034 31.3119 19.2358V39.6793L30.5328 39.4534C29.2332 39.098 28.0581 38.388 27.1389 37.4028C26.2198 36.4176 25.5929 35.1962 25.3284 33.8751L25.2817 33.6569C25.2598 33.4367 25.1746 33.2275 25.0363 33.0546C24.898 32.8818 24.7126 32.7527 24.5026 32.6831C21.4563 31.8105 19.5241 29.5667 18.7528 25.9984C18.3487 24.4077 18.3236 22.7444 18.6795 21.1423C19.0353 19.5401 19.7623 18.0439 20.8019 16.7739C21.6582 15.6959 22.8292 14.9116 24.152 14.5301C25.0635 14.2574 25.305 13.9146 25.2505 12.9719C25.1899 11.9772 25.3327 10.9805 25.6703 10.0428C26.0079 9.10512 26.5331 8.24611 27.2138 7.51824C27.8706 6.8074 28.6651 6.23773 29.5492 5.84394C30.4332 5.45014 31.3882 5.24047 32.3559 5.2277C33.3301 5.20745 34.2984 5.38479 35.2022 5.749C36.106 6.11321 36.9267 6.65676 37.6147 7.34684C38.3124 8.05195 38.8599 8.89117 39.2241 9.81379C39.5883 10.7364 39.7618 11.7233 39.7339 12.7148C39.7339 14.0003 39.8196 14.1561 41.0661 14.5846C42.2182 14.9847 43.2566 15.6567 44.0935 16.5437C44.9303 17.4308 45.5408 18.5066 45.8732 19.6799C47.2132 23.6689 46.6523 27.2605 44.1903 30.3691C43.3287 31.4776 42.1181 32.2628 40.7545 32.5973C40.4457 32.6597 40.1652 32.82 39.9547 33.0543C39.7442 33.2887 39.6148 33.5847 39.5859 33.8984C39.3308 35.203 38.7198 36.4117 37.8206 37.3907C36.9214 38.3697 35.7689 39.0809 34.4906 39.4456L33.7115 39.7027V19.2748H33.6803ZM46.4263 53.6563L33.7271 52.5266V40.7779L34.7711 42.0712C37.7005 45.7095 41.2609 46.7457 45.6784 45.1875L46.4575 44.9227L46.4263 53.6563ZM47.7586 40.996C47.3187 41.1293 46.9177 41.3672 46.5899 41.6894C45.4589 42.7981 43.9575 43.449 42.3752 43.5166C40.7928 43.5842 39.2414 43.0638 38.0199 42.0556L36.8434 41.1051L37.5057 40.6688C39.478 39.4321 40.9512 37.5397 41.666 35.3242C41.7224 35.1551 41.8121 34.999 41.9299 34.8651C42.0476 34.7313 42.1911 34.6225 42.3517 34.5451C45.8498 32.9869 47.9222 30.1042 48.6857 25.8348C48.8237 24.9166 48.8966 23.9897 48.9039 23.0612C48.9039 22.6171 48.9039 22.1575 48.9584 21.7056L48.9973 21.0044L49.6752 21.1758C50.5368 21.3994 51.3259 21.8423 51.9657 22.4613C52.9118 23.2662 53.5932 24.3375 53.9212 25.5355C54.2492 26.7335 54.2085 28.0026 53.8044 29.1771C53.5628 29.9562 53.8044 30.3146 54.0147 30.5327C54.2717 30.7455 54.5765 30.8925 54.9029 30.9612C56.2975 31.3042 57.5371 32.1043 58.4239 33.234C59.3107 34.3637 59.7936 35.7578 59.7956 37.194C59.7906 38.64 59.2874 40.0402 58.3706 41.1584C57.4538 42.2767 56.1796 43.0448 54.7627 43.3333C54.2993 43.4343 53.8267 43.4865 53.3525 43.4891C52.5151 43.4848 51.6873 43.3099 50.9198 42.975C50.1523 42.6401 49.461 42.1523 48.8883 41.5414C48.3507 41.0583 48.0702 40.9103 47.7586 40.996Z" fill="white"/>
</svg>
