<svg width="65" height="65" viewBox="0 0 65 65" fill="none" xmlns="http://www.w3.org/2000/svg">
<path d="M59.4372 38.7757C58.699 38.4279 57.8868 38.2667 57.0718 38.3061C56.2568 38.3455 55.4639 38.5843 54.7626 39.0016C52.5656 40.2404 50.314 41.4402 48.1325 42.6088L45.3122 44.167L44.8993 44.3696L44.2215 44.6968L43.9098 44.0969L43.8241 43.9333C43.2257 42.2562 42.1051 40.8153 40.627 39.8225C39.1489 38.8296 37.3913 38.337 35.6125 38.4173H29.8394C29.4425 38.4091 29.052 38.3162 28.6941 38.1446L26.2088 36.898C24.9466 36.267 23.6533 35.6047 22.36 35.0048C20.9144 34.242 19.2832 33.9018 17.6531 34.023C16.0231 34.1443 14.4602 34.7221 13.1433 35.6904C10.136 37.7706 7.3001 38.651 4.21488 38.4406C4.0364 38.4156 3.85471 38.4269 3.68068 38.4738C3.50665 38.5206 3.34386 38.6021 3.20205 38.7133C2.93286 39.0256 2.79838 39.4318 2.82809 39.843C2.82809 44.4189 2.82809 48.9896 2.82809 53.5551C2.82809 54.5446 3.26438 54.9886 4.23825 54.9886H10.6191C10.8802 54.9822 11.1413 55.003 11.3981 55.051L14.6392 55.6976C16.3298 56.0404 18.0283 56.3832 19.7267 56.7027L22.173 57.1779C24.5103 57.6532 27.0112 58.1362 29.442 58.4089C35.4128 59.1257 41.4589 57.9714 46.7457 55.1055C50.0803 53.3058 53.3681 51.2568 56.5468 49.2779C57.7466 48.5247 58.9516 47.7742 60.1618 47.0263C60.9252 46.5327 61.5012 45.7976 61.7979 44.9383C61.907 44.6812 61.9849 44.4163 62.0706 44.1592L62.1641 43.8554V42.4764C62.1231 42.4035 62.0942 42.3246 62.0784 42.2426C61.9491 41.4951 61.6415 40.7896 61.1818 40.1861C60.722 39.5826 60.1236 39.0988 59.4372 38.7757ZM58.4789 45.3123L55.8456 46.9484C53.22 48.5689 50.5088 50.2517 47.8053 51.8645C46.4682 52.6651 45.0722 53.3631 43.6294 53.9524C40.098 55.4194 36.3122 56.1766 32.4883 56.1807C30.6349 56.1762 28.7859 56.0015 26.9645 55.6587C23.5832 55.0198 20.1552 54.3342 16.8362 53.672L11.6163 52.6358C11.3594 52.5877 11.0985 52.5642 10.8372 52.5657H5.2355V40.8792L5.73412 40.8091L6.55996 40.7C7.13649 40.6299 7.7286 40.5598 8.28955 40.4429C10.362 40.0207 12.3184 39.1542 14.0237 37.9031C15.1277 37.0309 16.4684 36.5111 17.8718 36.411C19.2751 36.311 20.6761 36.6354 21.8926 37.3421C23.926 38.4095 25.9595 39.3989 28.211 40.4585C28.5366 40.6169 28.893 40.702 29.255 40.7078C30.2679 40.7078 31.2807 40.7078 32.2935 40.7078C33.5634 40.7078 34.8801 40.7078 36.189 40.7078C37.2862 40.7093 38.3602 41.0239 39.2848 41.6145C40.2094 42.2052 40.9463 43.0474 41.4089 44.0423C41.4635 44.1514 41.5102 44.2683 41.5648 44.4085L41.9465 45.4136H29.1382C28.9688 45.3929 28.797 45.4078 28.6337 45.4575C28.4705 45.5072 28.3194 45.5904 28.1903 45.702C28.0611 45.8135 27.9568 45.9508 27.8839 46.1051C27.811 46.2594 27.7711 46.4272 27.767 46.5978C27.7663 46.7423 27.7942 46.8855 27.8491 47.0191C27.9039 47.1528 27.9845 47.2744 28.0864 47.3769C28.2262 47.5068 28.3906 47.6075 28.5699 47.6731C28.7491 47.7386 28.9397 47.7677 29.1304 47.7586H31.3975C35.2463 47.7586 39.095 47.7586 42.9438 47.7586C43.3746 47.7227 43.7922 47.5924 44.1669 47.3769L49.8621 44.4085L55.9001 41.1519C56.4187 40.8718 57.0015 40.7321 57.5908 40.7468C58.1073 40.7786 58.5988 40.981 58.9879 41.3222C59.3771 41.6634 59.642 42.1242 59.7411 42.6322C59.8449 43.1551 59.7784 43.6976 59.5512 44.18C59.3241 44.6624 58.9482 45.0592 58.4789 45.3123Z" fill="white"/>
<path d="M39.5703 33.7193L40.2481 33.6414C40.737 33.5964 41.2233 33.5262 41.705 33.431C43.1286 33.1267 44.4688 32.5161 45.6326 31.6416C46.7964 30.767 47.7558 29.6496 48.4442 28.3669C49.0886 27.2421 49.4815 25.9911 49.5958 24.6999C49.7101 23.4087 49.5432 22.108 49.1064 20.8876C47.0496 15.5819 43.6995 10.9775 40.3883 6.78592C40.3026 6.68024 40.1946 6.59475 40.072 6.5355C39.9495 6.47625 39.8154 6.44471 39.6793 6.44312C39.5041 6.44549 39.3313 6.48409 39.1718 6.55649C39.0122 6.6289 38.8694 6.73354 38.7522 6.86383C38.5398 7.09814 38.3421 7.34533 38.1601 7.60397L38.0121 7.79095C35.119 11.3889 32.6535 15.3106 30.6652 19.4774C30.0201 20.7636 29.6487 22.1696 29.5745 23.6066C29.5783 26.2673 30.629 28.8196 32.4994 30.7119C34.3699 32.6042 36.9098 33.6845 39.5703 33.7193ZM32.6675 20.7941C34.1312 17.5377 35.9608 14.4587 38.1212 11.6163C38.3393 11.3047 38.5652 10.993 38.8145 10.6658L39.5936 9.5595L40.0689 10.2062C42.5595 13.5116 44.7299 17.0464 46.551 20.7629C47.0856 21.8971 47.3131 23.1518 47.2105 24.4015C47.108 25.6512 46.679 26.852 45.9666 27.8838C45.2576 28.9274 44.3058 29.7832 43.193 30.3776C42.0802 30.972 40.8397 31.2873 39.5781 31.2963H39.134C37.1802 31.1712 35.3478 30.3049 34.0113 28.8742C32.6748 27.4436 31.9349 25.5566 31.9429 23.5988C32.015 22.6281 32.2604 21.6782 32.6675 20.7941Z" fill="white"/>
</svg>
