<svg width="186" height="756" viewBox="0 0 186 756" fill="none" xmlns="http://www.w3.org/2000/svg">
<path d="M8.42332 443.817C8.87452 444.135 9.49848 444.028 9.81697 443.577L15.0071 436.224C15.3256 435.773 15.218 435.149 14.7668 434.83C14.3156 434.512 13.6917 434.619 13.3732 435.071L8.75972 441.606L2.22398 436.993C1.77278 436.674 1.14882 436.782 0.830328 437.233C0.511835 437.684 0.619414 438.308 1.07061 438.627L8.42332 443.817ZM76 364.5L76.606 365.295L76 364.5ZM9.67163 440.9C9.58825 440.354 9.07807 439.979 8.53212 440.062C7.98616 440.146 7.61117 440.656 7.69455 441.202L9.67163 440.9ZM7.1708 437.245C7.23209 437.794 7.72672 438.19 8.27559 438.128C8.82447 438.067 9.21973 437.572 9.15844 437.023L7.1708 437.245ZM8.80812 433.132C8.77071 432.581 8.29369 432.165 7.74267 432.202C7.19166 432.239 6.7753 432.716 6.81272 433.267L8.80812 433.132ZM6.63439 429.275C6.6459 429.827 7.10285 430.265 7.65501 430.254C8.20718 430.242 8.64546 429.785 8.63396 429.233L6.63439 429.275ZM8.65089 425.333C8.66761 424.781 8.23365 424.32 7.68161 424.303C7.12958 424.287 6.66852 424.72 6.65181 425.272L8.65089 425.333ZM6.88292 421.274C6.83547 421.824 7.24306 422.309 7.79331 422.356C8.34355 422.404 8.82808 421.996 8.87553 421.446L6.88292 421.274ZM9.32594 417.582C9.40684 417.036 9.02954 416.528 8.48321 416.447C7.93688 416.366 7.42842 416.743 7.34752 417.289L9.32594 417.582ZM8.06587 413.338C7.94878 413.878 8.2914 414.41 8.83113 414.528C9.37085 414.645 9.90331 414.302 10.0204 413.762L8.06587 413.338ZM10.9774 410.005C11.1333 409.475 10.8302 408.919 10.3003 408.764C9.77052 408.608 9.21462 408.911 9.05871 409.441L10.9774 410.005ZM10.3446 405.624C10.1476 406.14 10.4062 406.718 10.9222 406.915C11.4382 407.112 12.0161 406.853 12.2131 406.337L10.3446 405.624ZM13.74 402.787C13.9795 402.289 13.7703 401.691 13.2726 401.452C12.775 401.212 12.1774 401.422 11.9379 401.919L13.74 402.787ZM13.8466 398.362C13.5641 398.836 13.7197 399.45 14.1943 399.733C14.6688 400.015 15.2826 399.859 15.5651 399.385L13.8466 398.362ZM17.6871 396.164C18.0118 395.717 17.9128 395.092 17.466 394.767C17.0193 394.442 16.3939 394.541 16.0692 394.988L17.6871 396.164ZM18.5924 391.834C18.2278 392.249 18.2686 392.88 18.6835 393.245C19.0983 393.61 19.7302 393.569 20.0947 393.154L18.5924 391.834ZM22.7746 390.373C23.1755 389.993 23.1927 389.36 22.813 388.959C22.4332 388.558 21.8003 388.541 21.3993 388.921L22.7746 390.373ZM24.4456 386.283C24.0127 386.626 23.9397 387.255 24.2826 387.688C24.6255 388.121 25.2544 388.194 25.6873 387.851L24.4456 386.283ZM28.8171 385.581C29.2773 385.276 29.4028 384.655 29.0974 384.195C28.792 383.735 28.1714 383.609 27.7112 383.915L28.8171 385.581ZM31.1613 381.818C30.6786 382.086 30.5048 382.695 30.7732 383.178C31.0415 383.66 31.6504 383.834 32.1331 383.566L31.1613 381.818ZM35.5796 381.811C36.0803 381.578 36.2973 380.983 36.0643 380.482C35.8313 379.982 35.2365 379.765 34.7357 379.998L35.5796 381.811ZM38.4254 378.428C37.9105 378.628 37.655 379.207 37.8547 379.722C38.0544 380.237 38.6337 380.492 39.1486 380.293L38.4254 378.428ZM42.8143 378.997C43.3402 378.829 43.6297 378.265 43.461 377.74C43.2923 377.214 42.7293 376.924 42.2034 377.093L42.8143 378.997ZM46.0467 375.975C45.5125 376.115 45.193 376.662 45.3332 377.196C45.4733 377.73 46.02 378.05 46.5542 377.91L46.0467 375.975ZM50.3501 377.013C50.8904 376.899 51.2361 376.369 51.122 375.828C51.008 375.288 50.4775 374.942 49.9371 375.056L50.3501 377.013ZM53.861 374.319C53.3161 374.41 52.9475 374.924 53.0377 375.469C53.1279 376.014 53.6427 376.383 54.1876 376.293L53.861 374.319ZM58.1083 375.731C58.6568 375.666 59.0488 375.169 58.9838 374.62C58.9188 374.072 58.4216 373.68 57.8731 373.745L58.1083 375.731ZM61.8535 373.384C61.3022 373.418 60.8831 373.892 60.9172 374.444C60.9513 374.995 61.4259 375.414 61.9771 375.38L61.8535 373.384ZM65.8507 375.263C66.4029 375.265 66.8522 374.819 66.8541 374.267C66.856 373.714 66.4098 373.265 65.8575 373.263L65.8507 375.263ZM69.8675 373.427C69.317 373.382 68.8349 373.793 68.7906 374.343C68.7464 374.894 69.1568 375.376 69.7073 375.42L69.8675 373.427ZM73.5116 375.895C74.0558 375.989 74.5732 375.624 74.6672 375.08C74.7612 374.536 74.3962 374.018 73.852 373.924L73.5116 375.895ZM77.8131 374.828C77.2824 374.675 76.7282 374.981 76.5753 375.512C76.4224 376.042 76.7287 376.596 77.2594 376.749L77.8131 374.828ZM80.8424 378.032C81.3488 378.252 81.938 378.021 82.1586 377.514C82.3792 377.008 82.1476 376.419 81.6413 376.198L80.8424 378.032ZM85.2633 378.113C84.7971 377.817 84.1791 377.955 83.8831 378.421C83.5871 378.887 83.7251 379.505 84.1913 379.801L85.2633 378.113ZM87.1728 382.082C87.579 382.456 88.2117 382.43 88.5858 382.024C88.96 381.618 88.9341 380.985 88.5278 380.611L87.1728 382.082ZM91.279 383.696C90.9546 383.248 90.3293 383.149 89.8823 383.473C89.4353 383.798 89.3358 384.423 89.6602 384.87L91.279 383.696ZM91.5216 388.099C91.7453 388.603 92.336 388.831 92.8409 388.608C93.3459 388.384 93.5738 387.793 93.3501 387.288L91.5216 388.099ZM94.6171 391.241C94.5055 390.7 93.9766 390.352 93.4357 390.463C92.8948 390.575 92.5467 391.104 92.6583 391.645L94.6171 391.241ZM93.0185 395.352C93.0134 395.904 93.4569 396.356 94.0091 396.361C94.5614 396.366 95.0133 395.923 95.0185 395.37L93.0185 395.352ZM94.5385 399.492C94.6607 398.954 94.3231 398.418 93.7845 398.296C93.2459 398.174 92.7102 398.511 92.5881 399.05L94.5385 399.492ZM91.3754 402.561C91.138 403.059 91.3499 403.656 91.8485 403.894C92.3472 404.131 92.9439 403.919 93.1813 403.42L91.3754 402.561ZM90.9604 406.953C91.3082 406.524 91.2425 405.894 90.8135 405.546C90.3845 405.198 89.7548 405.264 89.4069 405.693L90.9604 406.953ZM86.749 408.233C86.3036 408.559 86.2072 409.185 86.5338 409.631C86.8604 410.076 87.4862 410.172 87.9316 409.846L86.749 408.233ZM84.2424 411.855C84.7584 411.658 85.0172 411.08 84.8203 410.564C84.6235 410.048 84.0457 409.789 83.5296 409.986L84.2424 411.855ZM79.973 410.831C79.4235 410.887 79.0227 411.377 79.0779 411.926C79.1331 412.476 79.6233 412.877 80.1729 412.821L79.973 410.831ZM75.9827 412.611C76.5232 412.725 77.0534 412.379 77.1668 411.838C77.2803 411.298 76.9341 410.768 76.3936 410.654L75.9827 412.611ZM73.0646 409.371C72.5866 409.095 71.9749 409.258 71.6982 409.736C71.4215 410.214 71.5848 410.826 72.0628 411.102L73.0646 409.371ZM68.792 408.531C69.1773 408.927 69.8105 408.935 70.2061 408.55C70.6018 408.165 70.6102 407.532 70.2249 407.136L68.792 408.531ZM67.9726 404.226C67.6819 403.757 67.0655 403.612 66.596 403.903C66.1264 404.193 65.9815 404.81 66.2723 405.279L67.9726 404.226ZM64.4462 401.635C64.6512 402.148 65.2331 402.398 65.7459 402.193C66.2588 401.988 66.5083 401.406 66.3034 400.893L64.4462 401.635ZM65.1755 397.315C65.0473 396.778 64.5079 396.446 63.9707 396.574C63.4335 396.702 63.1019 397.242 63.2301 397.779L65.1755 397.315ZM62.5546 393.806C62.6123 394.355 63.1043 394.754 63.6535 394.696C64.2028 394.639 64.6013 394.147 64.5436 393.597L62.5546 393.806ZM64.3782 389.82C64.3871 389.268 63.9466 388.813 63.3944 388.804C62.8422 388.795 62.3873 389.236 62.3785 389.788L64.3782 389.82ZM62.6778 385.783C62.6046 386.331 62.989 386.834 63.5365 386.907C64.0839 386.98 64.587 386.596 64.6601 386.048L62.6778 385.783ZM65.3785 382.334C65.5148 381.799 65.1914 381.255 64.6562 381.118C64.121 380.982 63.5766 381.305 63.4403 381.841L65.3785 382.334ZM64.6598 378.012C64.4613 378.527 64.7181 379.106 65.2335 379.305C65.7488 379.503 66.3276 379.246 66.5261 378.731L64.6598 378.012ZM68.0951 375.292C68.3545 374.805 68.1695 374.199 67.6819 373.94C67.1943 373.68 66.5887 373.865 66.3294 374.353L68.0951 375.292ZM68.4351 370.922C68.1176 371.374 68.2266 371.998 68.6785 372.315C69.1304 372.633 69.7542 372.524 70.0716 372.072L68.4351 370.922ZM72.4269 369.126C72.798 368.717 72.7671 368.085 72.358 367.714C71.9489 367.343 71.3165 367.373 70.9455 367.783L72.4269 369.126ZM73.827 364.974C73.4086 365.335 73.3617 365.966 73.7223 366.385C74.0828 366.803 74.7142 366.85 75.1326 366.49L73.827 364.974ZM78.2604 364.07C78.7086 363.748 78.8105 363.123 78.4878 362.674C78.1652 362.226 77.5403 362.124 77.092 362.447L78.2604 364.07ZM80.5558 360.094C80.0907 360.392 79.9551 361.01 80.2529 361.475C80.5508 361.94 81.1692 362.076 81.6343 361.778L80.5558 360.094ZM85.1275 359.672C85.608 359.4 85.7768 358.79 85.5046 358.309C85.2324 357.829 84.6221 357.66 84.1416 357.932L85.1275 359.672ZM87.8385 355.967C87.3441 356.213 87.1429 356.813 87.3892 357.308C87.6354 357.802 88.2357 358.003 88.7301 357.757L87.8385 355.967ZM92.4342 356.032C92.9407 355.812 93.1729 355.222 92.9527 354.716C92.7326 354.209 92.1435 353.977 91.637 354.197L92.4342 356.032ZM95.5206 352.625C95.0037 352.819 94.7423 353.396 94.9369 353.913C95.1314 354.43 95.7081 354.691 96.225 354.497L95.5206 352.625ZM100.088 353.148C100.613 352.978 100.902 352.415 100.732 351.889C100.562 351.363 99.9986 351.075 99.473 351.245L100.088 353.148ZM103.482 350.05C102.949 350.196 102.636 350.746 102.782 351.278C102.928 351.811 103.478 352.124 104.011 351.978L103.482 350.05ZM107.983 350.978C108.522 350.854 108.857 350.317 108.734 349.779C108.61 349.241 108.073 348.905 107.535 349.029L107.983 350.978ZM111.622 348.17C111.079 348.274 110.723 348.797 110.827 349.34C110.93 349.883 111.454 350.238 111.996 350.135L111.622 348.17ZM116.041 349.437C116.586 349.352 116.96 348.841 116.875 348.295C116.79 347.749 116.279 347.376 115.733 347.461L116.041 349.437ZM119.862 346.884C119.314 346.952 118.925 347.452 118.993 348C119.062 348.548 119.561 348.937 120.109 348.869L119.862 346.884ZM124.197 348.416C124.746 348.362 125.148 347.873 125.094 347.323C125.041 346.774 124.551 346.372 124.002 346.425L124.197 348.416ZM128.147 346.067C127.596 346.109 127.184 346.589 127.225 347.14C127.267 347.69 127.747 348.103 128.298 348.061L128.147 346.067ZM132.41 347.788C132.961 347.756 133.382 347.283 133.35 346.732C133.318 346.18 132.845 345.759 132.294 345.791L132.41 347.788ZM136.44 345.579C135.888 345.604 135.461 346.071 135.486 346.623C135.511 347.175 135.978 347.602 136.53 347.577L136.44 345.579ZM140.657 347.407C141.209 347.386 141.639 346.922 141.618 346.37C141.597 345.818 141.133 345.388 140.581 345.409L140.657 347.407ZM144.715 345.257C144.164 345.277 143.732 345.741 143.753 346.293C143.773 346.845 144.237 347.276 144.789 347.256L144.715 345.257ZM148.924 347.095C149.475 347.072 149.904 346.606 149.88 346.054C149.857 345.502 149.391 345.074 148.839 345.097L148.924 347.095ZM152.966 344.895C152.415 344.926 151.993 345.399 152.025 345.95C152.056 346.502 152.529 346.923 153.08 346.891L152.966 344.895ZM157.242 346.603C157.792 346.556 158.201 346.073 158.155 345.523C158.109 344.972 157.625 344.563 157.075 344.61L157.242 346.603ZM161.148 344.189C160.6 344.258 160.212 344.758 160.281 345.306C160.35 345.854 160.85 346.242 161.398 346.173L161.148 344.189ZM165.538 345.526C166.08 345.422 166.436 344.899 166.332 344.356C166.229 343.814 165.705 343.458 165.163 343.562L165.538 345.526ZM169.107 342.624C168.577 342.779 168.273 343.335 168.427 343.865C168.582 344.395 169.138 344.699 169.668 344.544L169.107 342.624ZM173.673 343.083C174.177 342.856 174.401 342.264 174.174 341.761C173.947 341.257 173.354 341.033 172.851 341.26L173.673 343.083ZM176.274 339.315C175.825 339.636 175.721 340.26 176.041 340.71C176.362 341.159 176.987 341.263 177.436 340.943L176.274 339.315ZM180.661 338.004C181.021 337.584 180.972 336.953 180.552 336.594C180.133 336.234 179.501 336.283 179.142 336.703L180.661 338.004ZM181.279 333.465C181.032 333.959 181.233 334.56 181.727 334.807C182.221 335.054 182.821 334.853 183.068 334.359L181.279 333.465ZM9.98547 442.83C9.87481 442.188 9.7701 441.545 9.67163 440.9L7.69455 441.202C7.79499 441.86 7.90175 442.516 8.01455 443.17L9.98547 442.83ZM9.15844 437.023C9.01378 435.728 8.89626 434.43 8.80812 433.132L6.81272 433.267C6.90289 434.595 7.02304 435.922 7.1708 437.245L9.15844 437.023ZM8.63396 429.233C8.60678 427.929 8.61167 426.628 8.65089 425.333L6.65181 425.272C6.61152 426.603 6.60653 427.938 6.63439 429.275L8.63396 429.233ZM8.87553 421.446C8.98741 420.149 9.13678 418.86 9.32594 417.582L7.34752 417.289C7.15215 418.609 6.99815 419.938 6.88292 421.274L8.87553 421.446ZM10.0204 413.762C10.2954 412.495 10.6136 411.241 10.9774 410.005L9.05871 409.441C8.68081 410.725 8.35076 412.025 8.06587 413.338L10.0204 413.762ZM12.2131 406.337C12.6728 405.132 13.181 403.948 13.74 402.787L11.9379 401.919C11.3539 403.133 10.8237 404.369 10.3446 405.624L12.2131 406.337ZM15.5651 399.385C16.2195 398.286 16.9261 397.211 17.6871 396.164L16.0692 394.988C15.2717 396.086 14.5317 397.211 13.8466 398.362L15.5651 399.385ZM20.0947 393.154C20.9341 392.199 21.8266 391.271 22.7746 390.373L21.3993 388.921C20.4069 389.861 19.4719 390.833 18.5924 391.834L20.0947 393.154ZM25.6873 387.851C26.6789 387.065 27.7215 386.308 28.8171 385.581L27.7112 383.915C26.5696 384.672 25.4816 385.462 24.4456 386.283L25.6873 387.851ZM32.1331 383.566C33.2349 382.953 34.3832 382.368 35.5796 381.811L34.7357 379.998C33.4969 380.574 32.3059 381.181 31.1613 381.818L32.1331 383.566ZM39.1486 380.293C40.3286 379.835 41.5501 379.403 42.8143 378.997L42.2034 377.093C40.9024 377.51 39.6435 377.956 38.4254 378.428L39.1486 380.293ZM46.5542 377.91C47.7828 377.587 49.0478 377.288 50.3501 377.013L49.9371 375.056C48.604 375.338 47.3075 375.644 46.0467 375.975L46.5542 377.91ZM54.1876 376.293C54.831 376.186 55.4828 376.085 56.143 375.99L55.8571 374.01C55.1835 374.108 54.5181 374.211 53.861 374.319L54.1876 376.293ZM56.143 375.99C56.8083 375.894 57.4634 375.808 58.1083 375.731L57.8731 373.745C57.211 373.823 56.539 373.912 55.8571 374.01L56.143 375.99ZM61.9771 375.38C63.3174 375.297 64.6082 375.259 65.8507 375.263L65.8575 373.263C64.5697 373.259 63.2353 373.298 61.8535 373.384L61.9771 375.38ZM69.7073 375.42C71.0397 375.527 72.3072 375.687 73.5116 375.895L73.852 373.924C72.5853 373.706 71.2575 373.538 69.8675 373.427L69.7073 375.42ZM77.2594 376.749C78.5407 377.118 79.734 377.549 80.8424 378.032L81.6413 376.198C80.4497 375.679 79.1743 375.22 77.8131 374.828L77.2594 376.749ZM84.1913 379.801C85.2977 380.504 86.2896 381.269 87.1728 382.082L88.5278 380.611C87.5549 379.715 86.4679 378.878 85.2633 378.113L84.1913 379.801ZM89.6602 384.87C90.4113 385.905 91.0294 386.988 91.5216 388.099L93.3501 387.288C92.8015 386.05 92.1133 384.845 91.279 383.696L89.6602 384.87ZM92.6583 391.645C92.9126 392.878 93.0301 394.122 93.0185 395.352L95.0185 395.37C95.0313 394.001 94.9005 392.615 94.6171 391.241L92.6583 391.645ZM92.5881 399.05C92.3109 400.272 91.9034 401.451 91.3754 402.561L93.1813 403.42C93.7739 402.175 94.2293 400.856 94.5385 399.492L92.5881 399.05ZM89.4069 405.693C88.6315 406.649 87.7422 407.505 86.749 408.233L87.9316 409.846C89.0684 409.012 90.0812 408.037 90.9604 406.953L89.4069 405.693ZM83.5296 409.986C82.9651 410.201 82.3781 410.383 81.7695 410.527L82.2305 412.473C82.9246 412.309 83.5956 412.102 84.2424 411.855L83.5296 409.986ZM81.7695 410.527C81.1558 410.672 80.5568 410.773 79.973 410.831L80.1729 412.821C80.8475 412.754 81.5338 412.638 82.2305 412.473L81.7695 410.527ZM76.3936 410.654C75.2129 410.406 74.101 409.971 73.0646 409.371L72.0628 411.102C73.275 411.804 74.5855 412.318 75.9827 412.611L76.3936 410.654ZM70.2249 407.136C69.3984 406.287 68.6445 405.311 67.9726 404.226L66.2723 405.279C67.0136 406.476 67.8554 407.569 68.792 408.531L70.2249 407.136ZM66.3034 400.893C65.8518 399.763 65.4738 398.566 65.1755 397.315L63.2301 397.779C63.5499 399.12 63.9568 400.411 64.4462 401.635L66.3034 400.893ZM64.5436 393.597C64.4142 392.365 64.3576 391.101 64.3782 389.82L62.3785 389.788C62.3566 391.149 62.4167 392.493 62.5546 393.806L64.5436 393.597ZM64.6601 386.048C64.8255 384.811 65.0638 383.57 65.3785 382.334L63.4403 381.841C63.1062 383.153 62.8532 384.471 62.6778 385.783L64.6601 386.048ZM66.5261 378.731C66.9748 377.566 67.4968 376.417 68.0951 375.292L66.3294 374.353C65.6923 375.551 65.1369 376.774 64.6598 378.012L66.5261 378.731ZM70.0716 372.072C70.7842 371.057 71.5684 370.073 72.4269 369.126L70.9455 367.783C70.0305 368.792 69.1946 369.841 68.4351 370.922L70.0716 372.072ZM75.1326 366.49C75.6064 366.081 76.0975 365.683 76.606 365.295L75.394 363.705C74.8535 364.116 74.3312 364.54 73.827 364.974L75.1326 366.49ZM76.606 365.295C77.1553 364.877 77.7068 364.469 78.2604 364.07L77.092 362.447C76.5238 362.856 75.9577 363.275 75.394 363.705L76.606 365.295ZM81.6343 361.778C82.7912 361.037 83.9559 360.336 85.1275 359.672L84.1416 357.932C82.9391 358.614 81.7434 359.333 80.5558 360.094L81.6343 361.778ZM88.7301 357.757C89.9591 357.145 91.1942 356.571 92.4342 356.032L91.637 354.197C90.3659 354.75 89.0993 355.339 87.8385 355.967L88.7301 357.757ZM96.225 354.497C97.5091 354.013 98.7971 353.565 100.088 353.148L99.473 351.245C98.1534 351.671 96.8354 352.13 95.5206 352.625L96.225 354.497ZM104.011 351.978C105.334 351.615 106.659 351.283 107.983 350.978L107.535 349.029C106.185 349.34 104.833 349.679 103.482 350.05L104.011 351.978ZM111.996 350.135C113.347 349.878 114.695 349.646 116.041 349.437L115.733 347.461C114.367 347.673 112.996 347.908 111.622 348.17L111.996 350.135ZM120.109 348.869C121.478 348.699 122.841 348.549 124.197 348.416L124.002 346.425C122.63 346.56 121.249 346.711 119.862 346.884L120.109 348.869ZM128.298 348.061C129.679 347.957 131.05 347.867 132.41 347.788L132.294 345.791C130.924 345.871 129.541 345.962 128.147 346.067L128.298 348.061ZM136.53 347.577C137.921 347.514 139.297 347.459 140.657 347.407L140.581 345.409C139.218 345.46 137.837 345.516 136.44 345.579L136.53 347.577ZM144.789 347.256C146.188 347.205 147.568 347.153 148.924 347.095L148.839 345.097C147.489 345.154 146.114 345.206 144.715 345.257L144.789 347.256ZM153.08 346.891C154.499 346.81 155.887 346.716 157.242 346.603L157.075 344.61C155.741 344.721 154.371 344.814 152.966 344.895L153.08 346.891ZM161.398 346.173C162.824 345.993 164.206 345.781 165.538 345.526L165.163 343.562C163.879 343.807 162.539 344.013 161.148 344.189L161.398 346.173ZM169.668 344.544C171.076 344.133 172.414 343.651 173.673 343.083L172.851 341.26C171.689 341.784 170.439 342.235 169.107 342.624L169.668 344.544ZM177.436 340.943C178.627 340.093 179.706 339.12 180.661 338.004L179.142 336.703C178.298 337.688 177.341 338.554 176.274 339.315L177.436 340.943ZM183.068 334.359C183.387 333.72 183.678 333.05 183.938 332.347L182.062 331.653C181.826 332.29 181.565 332.893 181.279 333.465L183.068 334.359Z" fill="#DD0E1D"/>
<path d="M112 699.5L111.849 698.511L112 699.5ZM178.949 755.834C179.41 756.139 180.03 756.012 180.334 755.551L185.294 748.041C185.598 747.58 185.471 746.96 185.011 746.655C184.55 746.351 183.929 746.478 183.625 746.939L179.217 753.614L172.541 749.206C172.08 748.902 171.46 749.029 171.155 749.489C170.851 749.95 170.978 750.571 171.439 750.875L178.949 755.834ZM19.8509 606.937C19.8415 607.489 20.2816 607.945 20.8338 607.954C21.386 607.963 21.8413 607.523 21.8506 606.971L19.8509 606.937ZM22.1739 610.676C22.0747 610.133 21.5538 609.773 21.0105 609.872C20.4672 609.971 20.1073 610.492 20.2065 611.035L22.1739 610.676ZM21.2397 614.969C21.4165 615.492 21.984 615.773 22.5072 615.596C23.0304 615.419 23.3112 614.852 23.1345 614.328L21.2397 614.969ZM24.5587 617.871C24.3267 617.369 23.7324 617.151 23.2312 617.383C22.73 617.615 22.5117 618.21 22.7437 618.711L24.5587 617.871ZM24.5829 622.276C24.8553 622.756 25.4656 622.925 25.946 622.652C26.4265 622.38 26.5951 621.77 26.3227 621.289L24.5829 622.276ZM28.3375 624.579C28.0345 624.118 27.4145 623.989 26.9528 624.292C26.4911 624.595 26.3625 625.215 26.6655 625.677L28.3375 624.579ZM28.9383 628.941C29.2654 629.386 29.8913 629.481 30.3363 629.154C30.7813 628.827 30.8767 628.201 30.5496 627.756L28.9383 628.941ZM32.9222 630.832C32.5754 630.402 31.9458 630.335 31.516 630.682C31.0862 631.028 31.0189 631.658 31.3657 632.088L32.9222 630.832ZM33.9149 635.122C34.2782 635.538 34.9099 635.581 35.3259 635.217C35.7419 634.854 35.7847 634.222 35.4215 633.806L33.9149 635.122ZM38.0329 636.693C37.6555 636.29 37.0226 636.269 36.6194 636.646C36.2162 637.024 36.1953 637.657 36.5727 638.06L38.0329 636.693ZM39.3232 640.906C39.7132 641.297 40.3463 641.298 40.7374 640.908C41.1285 640.518 41.1294 639.885 40.7395 639.493L39.3232 640.906ZM43.5323 642.212C43.131 641.833 42.4981 641.851 42.1187 642.252C41.7393 642.653 41.7571 643.286 42.1584 643.666L43.5323 642.212ZM45.0692 646.34C45.4812 646.708 46.1133 646.672 46.4812 646.26C46.849 645.848 46.8132 645.216 46.4013 644.848L45.0692 646.34ZM49.3481 647.405C48.9259 647.049 48.295 647.103 47.939 647.525C47.583 647.947 47.6366 648.578 48.0588 648.934L49.3481 647.405ZM51.1182 651.439C51.5506 651.782 52.1796 651.71 52.5232 651.278C52.8667 650.846 52.7947 650.217 52.3622 649.873L51.1182 651.439ZM55.4451 652.245C55.0021 651.915 54.3756 652.007 54.0459 652.45C53.7162 652.893 53.8081 653.52 54.2512 653.85L55.4451 652.245ZM57.4753 656.161C57.9302 656.474 58.5529 656.359 58.8661 655.904C59.1793 655.449 59.0645 654.827 58.6096 654.514L57.4753 656.161ZM61.8514 656.642C61.3825 656.35 60.7658 656.494 60.4742 656.963C60.1825 657.432 60.3262 658.048 60.7952 658.34L61.8514 656.642ZM64.3401 660.343C64.8379 660.582 65.4353 660.372 65.6744 659.874C65.9135 659.376 65.7037 658.779 65.2058 658.54L64.3401 660.343ZM68.7518 659.839C68.2153 659.707 67.674 660.036 67.5426 660.572C67.4112 661.108 67.7395 661.65 68.276 661.781L68.7518 659.839ZM72.5585 662.179C73.1092 662.138 73.5218 661.657 73.4801 661.107C73.4383 660.556 72.9581 660.143 72.4074 660.185L72.5585 662.179ZM75.768 659.177C75.2917 659.457 75.1323 660.07 75.412 660.546C75.6916 661.022 76.3044 661.181 76.7806 660.902L75.768 659.177ZM79.9294 657.762C80.2141 657.289 80.0613 656.674 79.5881 656.39C79.1148 656.105 78.5004 656.258 78.2157 656.731L79.9294 657.762ZM79.3868 653.348C79.3047 653.894 79.6809 654.403 80.227 654.485C80.7731 654.567 81.2825 654.191 81.3646 653.645L79.3868 653.348ZM81.3759 649.378C81.3047 648.831 80.8029 648.444 80.2553 648.516C79.7076 648.587 79.3214 649.089 79.3926 649.636L81.3759 649.378ZM78.5051 645.956C78.6861 646.478 79.2559 646.754 79.7776 646.573C80.2994 646.392 80.5756 645.822 80.3945 645.301L78.5051 645.956ZM78.7176 641.509C78.4562 641.022 77.85 640.84 77.3634 641.101C76.8769 641.363 76.6944 641.969 76.9558 642.455L78.7176 641.509ZM74.9004 639.175C75.2223 639.624 75.8471 639.727 76.2958 639.405C76.7446 639.083 76.8474 638.458 76.5254 638.01L74.9004 639.175ZM73.7011 634.729C73.2836 634.367 72.6521 634.412 72.2905 634.83C71.929 635.247 71.9743 635.879 72.3918 636.24L73.7011 634.729ZM69.1389 634.48C69.6723 634.624 70.2209 634.307 70.3642 633.774C70.5075 633.241 70.1912 632.692 69.6579 632.549L69.1389 634.48ZM65.0905 632.366C64.5456 632.456 64.1771 632.971 64.2674 633.516C64.3576 634.061 64.8725 634.429 65.4174 634.339L65.0905 632.366ZM61.7352 635.569C62.2304 635.325 62.4338 634.725 62.1894 634.23C61.9449 633.735 61.3453 633.531 60.8501 633.776L61.7352 635.569ZM57.1539 636.109C56.7166 636.447 56.6356 637.075 56.9729 637.512C57.3103 637.949 57.9382 638.03 58.3755 637.693L57.1539 636.109ZM55.3821 640.396C55.7646 639.998 55.7517 639.364 55.3533 638.982C54.9548 638.6 54.3218 638.612 53.9393 639.011L55.3821 640.396ZM51.1582 642.3C50.8277 642.743 50.9184 643.369 51.3609 643.7C51.8034 644.03 52.43 643.94 52.7605 643.497L51.1582 642.3ZM50.5105 646.893C50.7897 646.416 50.6297 645.804 50.1532 645.525C49.6767 645.245 49.064 645.405 48.7848 645.882L50.5105 646.893ZM46.8177 649.698C46.5915 650.202 46.8165 650.793 47.3204 651.02C47.8242 651.246 48.416 651.021 48.6422 650.517L46.8177 649.698ZM47.1796 654.317C47.3491 653.792 47.0604 653.228 46.5348 653.058C46.0092 652.889 45.4457 653.178 45.2761 653.703L47.1796 654.317ZM44.1945 657.864C44.0873 658.406 44.4397 658.932 44.9815 659.039C45.5233 659.147 46.0493 658.794 46.1565 658.252L44.1945 657.864ZM45.6198 662.272C45.6575 661.721 45.2413 661.244 44.6903 661.206C44.1393 661.169 43.6621 661.585 43.6245 662.136L45.6198 662.272ZM43.6265 666.457C43.6657 667.007 44.1442 667.422 44.6951 667.383C45.2459 667.344 45.6607 666.865 45.6214 666.314L43.6265 666.457ZM46.2076 670.3C46.0856 669.762 45.5501 669.424 45.0114 669.546C44.4728 669.668 44.135 670.203 44.2571 670.742L46.2076 670.3ZM45.5478 674.882C45.754 675.394 46.3365 675.642 46.8488 675.436C47.3612 675.23 47.6094 674.648 47.4032 674.135L45.5478 674.882ZM49.1999 677.731C48.9142 677.258 48.2995 677.107 47.8268 677.392C47.3542 677.678 47.2027 678.293 47.4884 678.765L49.1999 677.731ZM49.8631 682.161C50.201 682.598 50.8291 682.678 51.2659 682.34C51.7027 682.002 51.7829 681.374 51.445 680.937L49.8631 682.161ZM53.8625 683.832C53.4926 683.422 52.8603 683.39 52.4502 683.759C52.04 684.129 52.0074 684.762 52.3773 685.172L53.8625 683.832ZM55.1196 687.982C55.5208 688.361 56.1537 688.343 56.5332 687.942C56.9128 687.541 56.8952 686.908 56.494 686.529L55.1196 687.982ZM59.3344 689.004C58.9034 688.658 58.274 688.728 57.9287 689.159C57.5833 689.59 57.6527 690.219 58.0836 690.564L59.3344 689.004ZM61.248 692.891C61.7061 693.2 62.3276 693.078 62.636 692.62C62.9444 692.162 62.8231 691.541 62.3649 691.232L61.248 692.891ZM65.5737 693.205C65.0917 692.935 64.4824 693.107 64.2128 693.589C63.9432 694.071 64.1154 694.681 64.5974 694.95L65.5737 693.205ZM68.1012 696.728C68.6033 696.958 69.1968 696.737 69.4268 696.235C69.6569 695.733 69.4363 695.14 68.9342 694.91L68.1012 696.728ZM72.4207 696.346C71.9024 696.155 71.3276 696.421 71.1368 696.939C70.9459 697.457 71.2114 698.032 71.7297 698.223L72.4207 696.346ZM75.455 699.442C75.9857 699.595 76.5399 699.289 76.6928 698.758C76.8458 698.228 76.5396 697.673 76.0089 697.521L75.455 699.442ZM79.6762 698.444C79.1364 698.327 78.604 698.669 78.487 699.209C78.3699 699.749 78.7126 700.281 79.2523 700.398L79.6762 698.444ZM83.0982 701.107C83.6441 701.191 84.1545 700.816 84.2381 700.27C84.3217 699.724 83.9469 699.214 83.401 699.13L83.0982 701.107ZM87.1651 699.597C86.6153 699.545 86.1268 699.947 86.074 700.497C86.0211 701.047 86.4239 701.535 86.9737 701.588L87.1651 699.597ZM90.864 701.861C91.4157 701.886 91.8831 701.459 91.908 700.907C91.9328 700.355 91.5057 699.888 90.9539 699.863L90.864 701.861ZM94.7559 699.945C94.2036 699.946 93.7563 700.394 93.7568 700.946C93.7573 701.498 94.2054 701.946 94.7577 701.945L94.7559 699.945ZM98.6462 701.86C99.198 701.837 99.6265 701.371 99.6033 700.819C99.5801 700.267 99.114 699.839 98.5622 699.862L98.6462 701.86ZM102.367 699.631C101.817 699.674 101.406 700.156 101.449 700.706C101.492 701.257 101.974 701.668 102.525 701.625L102.367 699.631ZM106.389 701.255C106.938 701.194 107.333 700.699 107.272 700.15C107.211 699.602 106.716 699.206 106.167 699.268L106.389 701.255ZM109.958 698.789C109.411 698.866 109.03 699.371 109.106 699.918C109.183 700.465 109.688 700.846 110.235 700.77L109.958 698.789ZM114.06 700.262C114.61 700.214 115.017 699.729 114.97 699.179C114.922 698.629 114.437 698.222 113.887 698.269L114.06 700.262ZM117.972 698.143C117.419 698.131 116.963 698.57 116.952 699.122C116.94 699.674 117.379 700.131 117.931 700.142L117.972 698.143ZM121.811 700.394C122.36 700.453 122.853 700.056 122.912 699.507C122.971 698.958 122.573 698.465 122.024 698.406L121.811 700.394ZM126.032 698.992C125.489 698.892 124.968 699.251 124.867 699.794C124.767 700.338 125.127 700.859 125.67 700.959L126.032 698.992ZM129.495 701.801C130.03 701.938 130.574 701.615 130.711 701.08C130.848 700.545 130.525 700.001 129.99 699.864L129.495 701.801ZM133.87 700.99C133.345 700.82 132.781 701.107 132.61 701.632C132.44 702.158 132.727 702.722 133.252 702.892L133.87 700.99ZM136.943 704.218C137.457 704.421 138.037 704.168 138.24 703.654C138.442 703.14 138.19 702.56 137.676 702.357L136.943 704.218ZM141.386 703.948C140.885 703.715 140.29 703.933 140.058 704.434C139.825 704.935 140.042 705.529 140.543 705.762L141.386 703.948ZM144.055 707.52C144.542 707.782 145.148 707.6 145.41 707.113C145.671 706.627 145.489 706.021 145.003 705.759L144.055 707.52ZM148.496 707.772C148.026 707.482 147.41 707.629 147.121 708.099C146.831 708.569 146.978 709.185 147.448 709.475L148.496 707.772ZM150.726 711.628C151.178 711.944 151.802 711.834 152.118 711.381C152.435 710.929 152.325 710.305 151.872 709.989L150.726 711.628ZM155.116 712.403C154.683 712.06 154.054 712.133 153.712 712.567C153.369 713 153.442 713.629 153.876 713.971L155.116 712.403ZM156.874 716.49C157.286 716.857 157.919 716.821 158.286 716.409C158.654 715.996 158.617 715.364 158.205 714.997L156.874 716.49ZM161.138 717.771C160.748 717.38 160.115 717.379 159.724 717.769C159.332 718.158 159.331 718.791 159.721 719.183L161.138 717.771ZM162.405 722.042C162.77 722.456 163.402 722.495 163.816 722.129C164.23 721.763 164.269 721.131 163.903 720.717L162.405 722.042ZM166.49 723.824C166.149 723.389 165.52 723.313 165.086 723.654C164.651 723.994 164.575 724.623 164.915 725.057L166.49 723.824ZM167.24 728.213C167.555 728.667 168.178 728.78 168.632 728.466C169.086 728.151 169.199 727.528 168.885 727.074L167.24 728.213ZM171.083 730.457C170.796 729.985 170.181 729.836 169.709 730.123C169.237 730.41 169.088 731.026 169.375 731.497L171.083 730.457ZM171.318 734.902C171.577 735.389 172.183 735.574 172.67 735.314C173.158 735.054 173.342 734.449 173.082 733.961L171.318 734.902ZM174.879 737.574C174.647 737.072 174.053 736.854 173.551 737.086C173.05 737.318 172.832 737.912 173.064 738.414L174.879 737.574ZM174.614 742.019C174.818 742.532 175.399 742.782 175.912 742.578C176.426 742.374 176.676 741.792 176.472 741.279L174.614 742.019ZM177.862 745.064C177.685 744.54 177.118 744.259 176.595 744.436C176.071 744.613 175.791 745.18 175.967 745.704L177.862 745.064ZM177.128 749.456C177.278 749.987 177.83 750.297 178.362 750.147C178.893 749.997 179.203 749.445 179.053 748.913L177.128 749.456ZM180.049 752.816C179.926 752.277 179.389 751.941 178.851 752.065C178.313 752.188 177.976 752.725 178.1 753.263L180.049 752.816ZM20.0095 604.862C19.9147 605.545 19.8627 606.237 19.8509 606.937L21.8506 606.971C21.8611 606.348 21.9073 605.737 21.9905 605.138L20.0095 604.862ZM20.2065 611.035C20.4432 612.331 20.7925 613.645 21.2397 614.969L23.1345 614.328C22.7144 613.085 22.3912 611.866 22.1739 610.676L20.2065 611.035ZM22.7437 618.711C23.2919 619.895 23.908 621.085 24.5829 622.276L26.3227 621.289C25.6721 620.142 25.0817 619.001 24.5587 617.871L22.7437 618.711ZM26.6655 625.677C27.3818 626.768 28.1416 627.857 28.9383 628.941L30.5496 627.756C29.7722 626.699 29.0329 625.639 28.3375 624.579L26.6655 625.677ZM31.3657 632.088C32.189 633.108 33.0405 634.12 33.9149 635.122L35.4215 633.806C34.5631 632.823 33.7283 631.831 32.9222 630.832L31.3657 632.088ZM36.5727 638.06C37.4742 639.023 38.3927 639.972 39.3232 640.906L40.7395 639.493C39.8233 638.575 38.9194 637.64 38.0329 636.693L36.5727 638.06ZM42.1584 643.666C43.1234 644.578 44.0955 645.47 45.0692 646.34L46.4013 644.848C45.4414 643.991 44.4833 643.111 43.5323 642.212L42.1584 643.666ZM48.0588 648.934C49.085 649.799 50.1069 650.636 51.1182 651.439L52.3622 649.873C51.3663 649.082 50.3595 648.258 49.3481 647.405L48.0588 648.934ZM54.2512 653.85C55.3502 654.667 56.4279 655.439 57.4753 656.161L58.6096 654.514C57.5834 653.807 56.5256 653.049 55.4451 652.245L54.2512 653.85ZM60.7952 658.34C61.3773 658.702 61.9455 659.044 62.4979 659.365L63.5021 657.635C62.9685 657.325 62.4177 656.994 61.8514 656.642L60.7952 658.34ZM62.4979 659.365C63.1212 659.727 63.7355 660.052 64.3401 660.343L65.2058 658.54C64.6506 658.273 64.0824 657.972 63.5021 657.635L62.4979 659.365ZM68.276 661.781C69.7921 662.153 71.2268 662.28 72.5585 662.179L72.4074 660.185C71.3106 660.268 70.0883 660.166 68.7518 659.839L68.276 661.781ZM76.7806 660.902C78.0834 660.137 79.1449 659.066 79.9294 657.762L78.2157 656.731C77.5956 657.762 76.7702 658.589 75.768 659.177L76.7806 660.902ZM81.3646 653.645C81.5646 652.315 81.5715 650.882 81.3759 649.378L79.3926 649.636C79.5666 650.973 79.5565 652.219 79.3868 653.348L81.3646 653.645ZM80.3945 645.301C79.9645 644.061 79.4076 642.793 78.7176 641.509L76.9558 642.455C77.5984 643.652 78.1117 644.823 78.5051 645.956L80.3945 645.301ZM76.5254 638.01C76.1343 637.464 75.7188 636.918 75.2784 636.372L73.7216 637.628C74.1389 638.145 74.5316 638.661 74.9004 639.175L76.5254 638.01ZM75.2784 636.372C74.7805 635.755 74.2539 635.207 73.7011 634.729L72.3918 636.24C72.8491 636.636 73.2936 637.097 73.7216 637.628L75.2784 636.372ZM69.6579 632.549C68.1757 632.151 66.6359 632.11 65.0905 632.366L65.4174 634.339C66.7156 634.124 67.9645 634.165 69.1389 634.48L69.6579 632.549ZM60.8501 633.776C59.5949 634.395 58.3558 635.182 57.1539 636.109L58.3755 637.693C59.4858 636.836 60.6131 636.123 61.7352 635.569L60.8501 633.776ZM53.9393 639.011C52.9694 640.021 52.0377 641.123 51.1582 642.3L52.7605 643.497C53.593 642.383 54.4716 641.344 55.3821 640.396L53.9393 639.011ZM48.7848 645.882C48.0697 647.103 47.4102 648.378 46.8177 649.698L48.6422 650.517C49.2049 649.264 49.8314 648.052 50.5105 646.893L48.7848 645.882ZM45.2761 653.703C44.8378 655.062 44.4736 656.453 44.1945 657.864L46.1565 658.252C46.4199 656.92 46.7642 655.605 47.1796 654.317L45.2761 653.703ZM43.6245 662.136C43.5265 663.569 43.5235 665.013 43.6265 666.457L45.6214 666.314C45.5253 664.968 45.5279 663.617 45.6198 662.272L43.6245 662.136ZM44.2571 670.742C44.573 672.137 45 673.52 45.5478 674.882L47.4032 674.135C46.8963 672.876 46.5007 671.594 46.2076 670.3L44.2571 670.742ZM47.4884 678.765C47.8593 679.379 48.2587 679.985 48.6875 680.583L50.3125 679.417C49.9143 678.862 49.5437 678.299 49.1999 677.731L47.4884 678.765ZM48.6875 680.583C49.0738 681.121 49.4657 681.647 49.8631 682.161L51.445 680.937C51.0624 680.443 50.6849 679.936 50.3125 679.417L48.6875 680.583ZM52.3773 685.172C53.2696 686.161 54.1844 687.097 55.1196 687.982L56.494 686.529C55.5974 685.68 54.7195 684.783 53.8625 683.832L52.3773 685.172ZM58.0836 690.564C59.1192 691.394 60.1748 692.169 61.248 692.891L62.3649 691.232C61.3372 690.54 60.3262 689.799 59.3344 689.004L58.0836 690.564ZM64.5974 694.95C65.7506 695.595 66.9195 696.187 68.1012 696.728L68.9342 694.91C67.7999 694.39 66.6789 693.823 65.5737 693.205L64.5974 694.95ZM71.7297 698.223C72.9625 698.677 74.2054 699.082 75.455 699.442L76.0089 697.521C74.8037 697.173 73.6066 696.783 72.4207 696.346L71.7297 698.223ZM79.2523 700.398C80.5316 700.676 81.8147 700.911 83.0982 701.107L83.401 699.13C82.1561 698.94 80.9135 698.712 79.6762 698.444L79.2523 700.398ZM86.9737 701.588C88.2744 701.713 89.5723 701.803 90.864 701.861L90.9539 699.863C89.6942 699.806 88.4302 699.719 87.1651 699.597L86.9737 701.588ZM94.7577 701.945C96.065 701.944 97.3624 701.914 98.6462 701.86L98.5622 699.862C97.304 699.915 96.0341 699.944 94.7559 699.945L94.7577 701.945ZM102.525 701.625C103.833 701.521 105.122 701.397 106.389 701.255L106.167 699.268C104.92 699.407 103.652 699.529 102.367 699.631L102.525 701.625ZM110.235 700.77C110.882 700.679 111.521 700.585 112.151 700.489L111.849 698.511C111.226 698.607 110.595 698.699 109.958 698.789L110.235 700.77ZM112.151 700.489C112.765 700.395 113.402 700.319 114.06 700.262L113.887 698.269C113.188 698.33 112.508 698.411 111.849 698.511L112.151 700.489ZM117.931 700.142C119.177 700.167 120.473 700.251 121.811 700.394L122.024 698.406C120.632 698.256 119.278 698.169 117.972 698.143L117.931 700.142ZM125.67 700.959C126.922 701.19 128.199 701.47 129.495 701.801L129.99 699.864C128.651 699.521 127.329 699.231 126.032 698.992L125.67 700.959ZM133.252 702.892C134.474 703.289 135.706 703.731 136.943 704.218L137.676 702.357C136.401 701.855 135.13 701.4 133.87 700.99L133.252 702.892ZM140.543 705.762C141.715 706.306 142.887 706.892 144.055 707.52L145.003 705.759C143.799 705.112 142.592 704.508 141.386 703.948L140.543 705.762ZM147.448 709.475C148.549 710.153 149.643 710.87 150.726 711.628L151.872 709.989C150.757 709.208 149.63 708.47 148.496 707.772L147.448 709.475ZM153.876 713.971C154.889 714.773 155.89 715.612 156.874 716.49L158.205 714.997C157.191 714.093 156.16 713.228 155.116 712.403L153.876 713.971ZM159.721 719.183C160.634 720.099 161.529 721.052 162.405 722.042L163.903 720.717C163.001 719.697 162.079 718.716 161.138 717.771L159.721 719.183ZM164.915 725.057C165.712 726.075 166.488 727.126 167.24 728.213L168.885 727.074C168.11 725.955 167.311 724.872 166.49 723.824L164.915 725.057ZM169.375 731.497C170.047 732.6 170.695 733.734 171.318 734.902L173.082 733.961C172.442 732.76 171.775 731.592 171.083 730.457L169.375 731.497ZM173.064 738.414C173.606 739.585 174.123 740.786 174.614 742.019L176.472 741.279C175.968 740.013 175.436 738.778 174.879 737.574L173.064 738.414ZM175.967 745.704C176.38 746.926 176.768 748.177 177.128 749.456L179.053 748.913C178.683 747.602 178.286 746.319 177.862 745.064L175.967 745.704ZM178.1 753.263C178.247 753.902 178.387 754.548 178.52 755.2L180.48 754.8C180.343 754.132 180.2 753.47 180.049 752.816L178.1 753.263Z" fill="#DD0E1D"/>
<path d="M41.5 78.5L40.8302 79.2426L41.5 78.5ZM70.5 53L69.6162 53.4679L70.5 53ZM153.735 178.964C154.267 179.111 154.817 178.798 154.964 178.265L157.353 169.588C157.5 169.056 157.187 168.505 156.655 168.359C156.122 168.212 155.572 168.525 155.425 169.057L153.301 176.77L145.588 174.647C145.056 174.5 144.505 174.813 144.359 175.345C144.212 175.878 144.525 176.428 145.057 176.575L153.735 178.964ZM20.9918 1.91889C20.9872 2.47115 21.4311 2.92261 21.9834 2.92724C22.5357 2.93187 22.9871 2.48793 22.9918 1.93566L20.9918 1.91889ZM22.9308 5.78675C22.9433 5.23461 22.5059 4.77684 21.9538 4.7643C21.4016 4.75176 20.9439 5.1892 20.9313 5.74134L22.9308 5.78675ZM20.8225 9.57531C20.804 10.1273 21.2365 10.5897 21.7885 10.6082C22.3405 10.6266 22.8029 10.1941 22.8213 9.64211L20.8225 9.57531ZM22.679 13.4883C22.7009 12.9364 22.2714 12.4712 21.7196 12.4492C21.1677 12.4272 20.7025 12.8568 20.6805 13.4086L22.679 13.4883ZM20.5232 17.2426C20.5004 17.7945 20.9292 18.2603 21.481 18.2831C22.0328 18.3059 22.4987 17.8771 22.5215 17.3253L20.5232 17.2426ZM22.3689 21.164C22.3894 20.6121 21.9586 20.148 21.4067 20.1275C20.8548 20.107 20.3907 20.5378 20.3702 21.0897L22.3689 21.164ZM20.2456 24.9359C20.231 25.488 20.6666 25.9474 21.2187 25.962C21.7708 25.9767 22.2303 25.541 22.2449 24.9889L20.2456 24.9359ZM22.1753 28.8166C22.18 28.2643 21.7361 27.8128 21.1839 27.8081C20.6316 27.8033 20.1801 28.2472 20.1754 28.7995L22.1753 28.8166ZM20.1898 32.6636C20.1995 33.2158 20.6549 33.6556 21.2071 33.646C21.7593 33.6363 22.1992 33.1809 22.1895 32.6287L20.1898 32.6636ZM22.3196 36.4366C22.2907 35.8851 21.8202 35.4614 21.2686 35.4903C20.7171 35.5192 20.2934 35.9898 20.3224 36.5413L22.3196 36.4366ZM20.6085 40.4152C20.6618 40.9649 21.1506 41.3674 21.7003 41.3141C22.25 41.2608 22.6524 40.772 22.5991 40.2223L20.6085 40.4152ZM23.0626 43.9819C22.98 43.4359 22.4703 43.0602 21.9242 43.1429C21.3781 43.2256 21.0025 43.7352 21.0852 44.2813L23.0626 43.9819ZM21.787 48.1208C21.9036 48.6607 22.4357 49.0038 22.9755 48.8873C23.5154 48.7707 23.8585 48.2386 23.7419 47.6987L21.787 48.1208ZM24.6642 51.3565C24.5103 50.8261 23.9555 50.5209 23.4251 50.6747C22.8947 50.8286 22.5895 51.3834 22.7434 51.9138L24.6642 51.3565ZM23.9719 55.6289C24.1649 56.1464 24.7408 56.4095 25.2583 56.2165C25.7757 56.0235 26.0388 55.4476 25.8458 54.9301L23.9719 55.6289ZM27.2955 58.4047C27.0634 57.9035 26.469 57.6854 25.9678 57.9174C25.4667 58.1495 25.2486 58.7439 25.4806 59.2451L27.2955 58.4047ZM27.2597 62.7323C27.5291 63.2144 28.1383 63.3869 28.6205 63.1175C29.1026 62.8482 29.2751 62.239 29.0057 61.7568L27.2597 62.7323ZM30.9635 64.9782C30.66 64.5169 30.0398 64.3889 29.5785 64.6925C29.1171 64.9961 28.9892 65.6162 29.2927 66.0775L30.9635 64.9782ZM31.5483 69.2635C31.8822 69.7034 32.5095 69.7893 32.9494 69.4554C33.3893 69.1216 33.4753 68.4943 33.1414 68.0543L31.5483 69.2635ZM35.5251 70.9993C35.1649 70.5807 34.5335 70.5334 34.1149 70.8937C33.6963 71.2539 33.649 71.8853 34.0093 72.3039L35.5251 70.9993ZM36.6282 75.1802C37.0109 75.5784 37.644 75.591 38.0422 75.2083C38.4404 74.8256 38.4529 74.1925 38.0702 73.7943L36.6282 75.1802ZM40.7612 76.4582C40.3596 76.0792 39.7267 76.0975 39.3476 76.4992C38.9686 76.9009 38.9869 77.5338 39.3886 77.9128L40.7612 76.4582ZM42.4236 80.6305C42.8464 80.9857 43.4772 80.9309 43.8325 80.5081C44.1877 80.0852 44.1329 79.4544 43.7101 79.0992L42.4236 80.6305ZM46.8768 81.5553C46.4265 81.2355 45.8022 81.3412 45.4824 81.7914C45.1625 82.2417 45.2682 82.8659 45.7185 83.1858L46.8768 81.5553ZM49.2805 85.46C49.7613 85.7318 50.3714 85.5625 50.6432 85.0817C50.915 84.601 50.7457 83.9909 50.2649 83.719L49.2805 85.46ZM53.8368 85.4498C53.3242 85.2442 52.742 85.493 52.5363 86.0055C52.3306 86.5181 52.5794 87.1003 53.092 87.306L53.8368 85.4498ZM57.1809 88.5588C57.7216 88.6712 58.251 88.3239 58.3633 87.7831C58.4757 87.2424 58.1284 86.713 57.5876 86.6006L57.1809 88.5588ZM61.434 86.9582C60.8819 86.9753 60.4483 87.4366 60.4653 87.9886C60.4823 88.5407 60.9437 88.9743 61.4957 88.9573L61.434 86.9582ZM65.8101 88.1937C66.3329 88.0159 66.6127 87.4478 66.4349 86.925C66.2571 86.4021 65.689 86.1223 65.1662 86.3002L65.8101 88.1937ZM68.4869 84.5241C68.0488 84.8604 67.9663 85.4881 68.3026 85.9262C68.6389 86.3643 69.2666 86.4469 69.7047 86.1106L68.4869 84.5241ZM72.7358 82.9331C73.0544 82.482 72.9469 81.858 72.4958 81.5394C72.0446 81.2208 71.4206 81.3283 71.1021 81.7794L72.7358 82.9331ZM72.9006 78.3744C72.7025 78.89 72.9598 79.4685 73.4754 79.6666C73.9909 79.8647 74.5694 79.6073 74.7675 79.0918L72.9006 78.3744ZM75.8913 74.9363C75.9838 74.3919 75.6174 73.8755 75.0729 73.783C74.5284 73.6905 74.012 74.0569 73.9195 74.6014L75.8913 74.9363ZM74.2536 70.6756C74.2498 71.2278 74.6945 71.6786 75.2468 71.6824C75.799 71.6861 76.2498 71.2415 76.2535 70.6892L74.2536 70.6756ZM75.9872 66.4549C75.9161 65.9072 75.4145 65.5208 74.8668 65.5919C74.3191 65.6629 73.9327 66.1645 74.0038 66.7122L75.9872 66.4549ZM73.2542 62.7938C73.3889 63.3294 73.9322 63.6544 74.4679 63.5197C75.0035 63.385 75.3285 62.8416 75.1938 62.306L73.2542 62.7938ZM73.9552 58.2895C73.7659 57.7707 73.1918 57.5036 72.673 57.693C72.1542 57.8823 71.8871 58.4564 72.0765 58.9752L73.9552 58.2895ZM70.522 55.2722C70.7589 55.7711 71.3554 55.9834 71.8543 55.7466C72.3532 55.5097 72.5656 54.9132 72.3287 54.4143L70.522 55.2722ZM70.363 50.7064C70.0819 50.231 69.4686 50.0736 68.9932 50.3547C68.5179 50.6359 68.3604 51.2491 68.6415 51.7245L70.363 50.7064ZM66.5573 48.6071C66.8926 49.046 67.5201 49.13 67.959 48.7947C68.3979 48.4594 68.4819 47.8319 68.1466 47.393L66.5573 48.6071ZM65.4195 44.3828C65.0109 44.0112 64.3785 44.0412 64.0069 44.4497C63.6353 44.8583 63.6652 45.4908 64.0738 45.8624L65.4195 44.3828ZM61.1282 43.8158C61.6247 44.0578 62.2233 43.8515 62.4653 43.3551C62.7073 42.8586 62.501 42.26 62.0045 42.018L61.1282 43.8158ZM57.9143 40.9287C57.3629 40.8985 56.8913 41.321 56.8611 41.8724C56.8308 42.4239 57.2534 42.8955 57.8048 42.9257L57.9143 40.9287ZM54.3774 43.446C54.8983 43.2624 55.1717 42.6913 54.9882 42.1704C54.8046 41.6495 54.2335 41.3761 53.7126 41.5597L54.3774 43.446ZM50.0227 43.5151C49.5722 43.8346 49.466 44.4588 49.7854 44.9093C50.1049 45.3598 50.7291 45.466 51.1796 45.1465L50.0227 43.5151ZM48.3788 47.5683C48.7651 47.1735 48.7582 46.5404 48.3635 46.1541C47.9687 45.7679 47.3356 45.7747 46.9494 46.1695L48.3788 47.5683ZM44.3385 49.2107C44.0038 49.65 44.0887 50.2775 44.5281 50.6121C44.9675 50.9467 45.5949 50.8618 45.9295 50.4225L44.3385 49.2107ZM43.774 53.5544C44.0668 53.0861 43.9245 52.4691 43.4562 52.1764C42.9879 51.8836 42.3709 52.0258 42.0782 52.4941L43.774 53.5544ZM40.1016 55.9389C39.8439 56.4274 40.031 57.0323 40.5195 57.29C41.0079 57.5477 41.6128 57.3606 41.8705 56.8721L40.1016 55.9389ZM40.1875 60.3224C40.4146 59.819 40.1906 59.2268 39.6871 58.9997C39.1837 58.7726 38.5915 58.9966 38.3644 59.5L40.1875 60.3224ZM36.838 63.1496C36.6385 63.6646 36.8944 64.2438 37.4094 64.4432C37.9244 64.6427 38.5036 64.3868 38.703 63.8718L36.838 63.1496ZM37.4054 67.4902C37.5791 66.9659 37.2948 66.4001 36.7705 66.2265C36.2462 66.0529 35.6804 66.3372 35.5068 66.8615L37.4054 67.4902ZM34.3579 70.6276C34.2092 71.1595 34.5198 71.7112 35.0516 71.86C35.5835 72.0087 36.1353 71.6981 36.284 71.1663L34.3579 70.6276ZM35.3331 74.8966C35.4572 74.3584 35.1215 73.8216 34.5833 73.6975C34.0451 73.5735 33.5083 73.9092 33.3842 74.4474L35.3331 74.8966ZM32.5875 78.3107C32.4887 78.854 32.849 79.3747 33.3923 79.4736C33.9357 79.5725 34.4563 79.2121 34.5552 78.6688L32.5875 78.3107ZM33.9567 82.4707C34.0293 81.9232 33.6444 81.4205 33.0969 81.3479C32.5494 81.2753 32.0467 81.6602 31.9741 82.2077L33.9567 82.4707ZM31.5544 86.1291C31.5098 86.6796 31.92 87.1619 32.4705 87.2065C33.0209 87.251 33.5033 86.8409 33.5479 86.2904L31.5544 86.1291ZM33.3433 90.1198C33.3571 89.5677 32.9208 89.1089 32.3687 89.0951C31.8165 89.0813 31.3578 89.5177 31.3439 90.0698L33.3433 90.1198ZM31.366 94.0326C31.3867 94.5845 31.8508 95.0152 32.4027 94.9945C32.9546 94.9738 33.3853 94.5097 33.3646 93.9578L31.366 94.0326ZM33.6415 97.7756C33.5813 97.2267 33.0875 96.8304 32.5385 96.8906C31.9895 96.9508 31.5932 97.4446 31.6534 97.9936L33.6415 97.7756ZM32.2491 101.931C32.3554 102.473 32.8809 102.826 33.4228 102.719C33.9648 102.613 34.318 102.088 34.2118 101.546L32.2491 101.931ZM35.1233 105.228C34.9626 104.699 34.404 104.401 33.8756 104.562C33.3473 104.722 33.0492 105.281 33.2099 105.809L35.1233 105.228ZM34.607 109.574C34.832 110.079 35.4233 110.305 35.9277 110.08C36.432 109.855 36.6585 109.264 36.4335 108.759L34.607 109.574ZM38.2023 112.049C37.9031 111.584 37.2843 111.451 36.82 111.75C36.3558 112.049 36.2219 112.668 36.5211 113.132L38.2023 112.049ZM39.0192 116.34C39.3978 116.742 40.0307 116.761 40.4328 116.383C40.8349 116.004 40.8539 115.371 40.4752 114.969L39.0192 116.34ZM43.2545 117.377C42.8018 117.061 42.1783 117.171 41.862 117.624C41.5456 118.077 41.6561 118.7 42.1088 119.016L43.2545 117.377ZM45.6912 120.997C46.1996 121.213 46.7867 120.975 47.0025 120.467C47.2184 119.959 46.9812 119.372 46.4729 119.156L45.6912 120.997ZM49.9981 120.264C49.4582 120.147 48.9262 120.491 48.8098 121.031C48.6934 121.57 49.0367 122.102 49.5766 122.219L49.9981 120.264ZM53.5726 122.745C54.124 122.775 54.5955 122.352 54.6255 121.801C54.6556 121.249 54.2329 120.778 53.6815 120.748L53.5726 122.745ZM57.4192 120.705C56.8683 120.745 56.4541 121.224 56.4939 121.775C56.5338 122.326 57.0126 122.74 57.5635 122.7L57.4192 120.705ZM61.6404 122.243C62.1889 122.178 62.5809 121.681 62.5159 121.133C62.4509 120.584 61.9537 120.192 61.4052 120.257L61.6404 122.243ZM65.411 119.825C64.8613 119.878 64.4589 120.367 64.5122 120.917C64.5655 121.466 65.0543 121.869 65.604 121.816L65.411 119.825ZM69.5696 121.478C70.1204 121.438 70.5344 120.959 70.4943 120.408C70.4542 119.857 69.9752 119.443 69.4244 119.483L69.5696 121.478ZM73.4644 119.243C72.9127 119.268 72.4858 119.736 72.5108 120.288C72.5359 120.839 73.0034 121.266 73.5552 121.241L73.4644 119.243ZM77.5461 121.121C78.0983 121.113 78.5396 120.659 78.5317 120.107C78.5237 119.554 78.0696 119.113 77.5174 119.121L77.5461 121.121ZM81.5721 119.133C81.02 119.121 80.563 119.559 80.5514 120.112C80.5399 120.664 80.9782 121.121 81.5303 121.132L81.5721 119.133ZM85.5036 121.293C86.0548 121.327 86.529 120.907 86.5627 120.356C86.5963 119.805 86.1767 119.331 85.6255 119.297L85.5036 121.293ZM89.6711 119.635C89.1219 119.576 88.6292 119.974 88.5705 120.523C88.5118 121.072 88.9094 121.565 89.4586 121.623L89.6711 119.635ZM93.3848 122.143C93.9302 122.23 94.4427 121.858 94.5294 121.312C94.6162 120.767 94.2443 120.255 93.6989 120.168L93.3848 122.143ZM97.7042 120.921C97.1647 120.803 96.6317 121.145 96.5138 121.685C96.3959 122.224 96.7377 122.757 97.2772 122.875L97.7042 120.921ZM101.116 123.841C101.647 123.993 102.201 123.685 102.353 123.154C102.505 122.623 102.197 122.07 101.666 121.918L101.116 123.841ZM105.555 123.174C105.035 122.986 104.462 123.255 104.274 123.774C104.086 124.293 104.355 124.867 104.874 125.055L105.555 123.174ZM108.529 126.528C109.034 126.753 109.625 126.527 109.85 126.023C110.075 125.518 109.849 124.927 109.344 124.702L108.529 126.528ZM113.012 126.505C112.526 126.243 111.92 126.425 111.658 126.911C111.396 127.397 111.578 128.004 112.064 128.266L113.012 126.505ZM115.464 130.263C115.93 130.56 116.548 130.423 116.845 129.957C117.142 129.492 117.005 128.874 116.54 128.577L115.464 130.263ZM119.904 130.896C119.46 130.567 118.834 130.659 118.505 131.103C118.176 131.546 118.268 132.172 118.711 132.502L119.904 130.896ZM121.804 134.963C122.225 135.32 122.856 135.269 123.213 134.849C123.571 134.428 123.52 133.797 123.099 133.439L121.804 134.963ZM126.123 136.173C125.725 135.791 125.091 135.804 124.709 136.203C124.327 136.601 124.34 137.234 124.739 137.616L126.123 136.173ZM127.522 140.433C127.9 140.836 128.533 140.856 128.936 140.478C129.339 140.1 129.359 139.467 128.981 139.064L127.522 140.433ZM131.69 142.089C131.331 141.67 130.699 141.621 130.28 141.98C129.86 142.339 129.811 142.971 130.171 143.39L131.69 142.089ZM132.697 146.464C133.04 146.897 133.669 146.971 134.102 146.628C134.535 146.286 134.609 145.657 134.266 145.223L132.697 146.464ZM136.726 148.445C136.397 148.001 135.771 147.906 135.327 148.234C134.883 148.563 134.789 149.189 135.117 149.633L136.726 148.445ZM137.443 152.878C137.759 153.331 138.382 153.443 138.835 153.127C139.288 152.811 139.4 152.188 139.084 151.735L137.443 152.878ZM141.356 155.079C141.051 154.618 140.43 154.493 139.97 154.798C139.51 155.104 139.384 155.724 139.69 156.184L141.356 155.079ZM141.869 159.538C142.166 160.004 142.784 160.141 143.25 159.844C143.716 159.547 143.853 158.929 143.556 158.464L141.869 159.538ZM145.696 161.88C145.406 161.41 144.79 161.264 144.32 161.554C143.85 161.843 143.704 162.459 143.993 162.93L145.696 161.88ZM146.073 166.35C146.357 166.824 146.971 166.978 147.444 166.693C147.918 166.409 148.072 165.795 147.788 165.321L146.073 166.35ZM149.84 168.781C149.561 168.305 148.948 168.146 148.472 168.426C147.996 168.705 147.836 169.318 148.116 169.794L149.84 168.781ZM150.132 173.257C150.408 173.735 151.02 173.898 151.498 173.622C151.976 173.346 152.14 172.734 151.864 172.256L150.132 173.257ZM153.865 175.742C153.591 175.263 152.981 175.096 152.501 175.37C152.021 175.643 151.854 176.254 152.128 176.734L153.865 175.742ZM21 0C21 0.643287 20.9972 1.28288 20.9918 1.91889L22.9918 1.93566C22.9971 1.29435 23 0.649156 23 0H21ZM20.9313 5.74134C20.902 7.03378 20.8647 8.31144 20.8225 9.57531L22.8213 9.64211C22.8638 8.37258 22.9013 7.08766 22.9308 5.78675L20.9313 5.74134ZM20.6805 13.4086C20.629 14.7009 20.5755 15.9778 20.5232 17.2426L22.5215 17.3253C22.5737 16.062 22.6274 14.7825 22.679 13.4883L20.6805 13.4086ZM20.3702 21.0897C20.3221 22.3847 20.2793 23.6666 20.2456 24.9359L22.2449 24.9889C22.2783 23.7287 22.3209 22.4543 22.3689 21.164L20.3702 21.0897ZM20.1754 28.7995C20.1642 30.0992 20.1675 31.387 20.1898 32.6636L22.1895 32.6287C22.1676 31.372 22.1643 30.1018 22.1753 28.8166L20.1754 28.7995ZM20.3224 36.5413C20.3906 37.8427 20.4843 39.1336 20.6085 40.4152L22.5991 40.2223C22.4781 38.9729 22.3865 37.7115 22.3196 36.4366L20.3224 36.5413ZM21.0852 44.2813C21.2802 45.5692 21.5123 46.8486 21.787 48.1208L23.7419 47.6987C23.4766 46.4698 23.2518 45.2313 23.0626 43.9819L21.0852 44.2813ZM22.7434 51.9138C23.1043 53.1581 23.5121 54.396 23.9719 55.6289L25.8458 54.9301C25.404 53.7453 25.0117 52.5546 24.6642 51.3565L22.7434 51.9138ZM25.4806 59.2451C26.0207 60.4113 26.6123 61.5733 27.2597 62.7323L29.0057 61.7568C28.3829 60.6421 27.8143 59.5251 27.2955 58.4047L25.4806 59.2451ZM29.2927 66.0775C29.9927 67.1413 30.7434 68.203 31.5483 69.2635L33.1414 68.0543C32.3631 67.0289 31.6383 66.0038 30.9635 64.9782L29.2927 66.0775ZM34.0093 72.3039C34.8346 73.2628 35.7067 74.2214 36.6282 75.1802L38.0702 73.7943C37.1733 72.8611 36.3258 71.9296 35.5251 70.9993L34.0093 72.3039ZM39.3886 77.9128C39.8581 78.3558 40.3385 78.7991 40.8302 79.2426L42.1698 77.7574C41.689 77.3238 41.2196 76.8908 40.7612 76.4582L39.3886 77.9128ZM40.8302 79.2426C41.3646 79.7246 41.8958 80.1871 42.4236 80.6305L43.7101 79.0992C43.2008 78.6713 42.6873 78.2242 42.1698 77.7574L40.8302 79.2426ZM45.7185 83.1858C46.9272 84.0445 48.1153 84.8011 49.2805 85.46L50.2649 83.719C49.1636 83.0963 48.0334 82.377 46.8768 81.5553L45.7185 83.1858ZM53.092 87.306C54.4964 87.8695 55.8612 88.2847 57.1809 88.5588L57.5876 86.6006C56.3927 86.3524 55.1409 85.9731 53.8368 85.4498L53.092 87.306ZM61.4957 88.9573C63.0257 88.9101 64.4687 88.6498 65.8101 88.1937L65.1662 86.3002C64.021 86.6896 62.7749 86.9168 61.434 86.9582L61.4957 88.9573ZM69.7047 86.1106C70.8584 85.2249 71.8724 84.1557 72.7358 82.9331L71.1021 81.7794C70.3478 82.8475 69.4717 83.7681 68.4869 84.5241L69.7047 86.1106ZM74.7675 79.0918C75.2652 77.7966 75.6417 76.4055 75.8913 74.9363L73.9195 74.6014C73.6906 75.949 73.3475 77.2113 72.9006 78.3744L74.7675 79.0918ZM76.2535 70.6892C76.2629 69.3214 76.1755 67.9066 75.9872 66.4549L74.0038 66.7122C74.1809 68.0779 74.2623 69.4022 74.2536 70.6756L76.2535 70.6892ZM75.1938 62.306C74.862 60.9864 74.4501 59.6454 73.9552 58.2895L72.0765 58.9752C72.5483 60.2679 72.9396 61.5429 73.2542 62.7938L75.1938 62.306ZM72.3287 54.4143C72.0316 53.7885 71.7167 53.1609 71.3838 52.5321L69.6162 53.4679C69.9356 54.0712 70.2375 54.6729 70.522 55.2722L72.3287 54.4143ZM71.3838 52.5321C71.0467 51.8953 70.7064 51.2869 70.363 50.7064L68.6415 51.7245C68.968 52.2765 69.293 52.8574 69.6162 53.4679L71.3838 52.5321ZM68.1466 47.393C67.2564 46.2277 66.3467 45.2262 65.4195 44.3828L64.0738 45.8624C64.9003 46.6141 65.7299 47.524 66.5573 48.6071L68.1466 47.393ZM62.0045 42.018C60.6567 41.3611 59.2879 41.004 57.9143 40.9287L57.8048 42.9257C58.8991 42.9857 60.0082 43.2699 61.1282 43.8158L62.0045 42.018ZM53.7126 41.5597C52.4461 42.0061 51.2132 42.6708 50.0227 43.5151L51.1796 45.1465C52.2445 44.3913 53.3135 43.821 54.3774 43.446L53.7126 41.5597ZM46.9494 46.1695C46.0522 47.0863 45.1806 48.105 44.3385 49.2107L45.9295 50.4225C46.728 49.3742 47.5461 48.4193 48.3788 47.5683L46.9494 46.1695ZM42.0782 52.4941C41.3948 53.587 40.7351 54.7382 40.1016 55.9389L41.8705 56.8721C42.4828 55.7115 43.1184 54.6029 43.774 53.5544L42.0782 52.4941ZM38.3644 59.5C37.8308 60.683 37.3212 61.9017 36.838 63.1496L38.703 63.8718C39.1737 62.6564 39.6693 61.4711 40.1875 60.3224L38.3644 59.5ZM35.5068 66.8615C35.0975 68.0975 34.7139 69.3547 34.3579 70.6276L36.284 71.1663C36.6316 69.9233 37.0061 68.6961 37.4054 67.4902L35.5068 66.8615ZM33.3842 74.4474C33.0893 75.7267 32.8231 77.0163 32.5875 78.3107L34.5552 78.6688C34.7852 77.4052 35.0451 76.1461 35.3331 74.8966L33.3842 74.4474ZM31.9741 82.2077C31.8004 83.5167 31.6599 84.8257 31.5544 86.1291L33.5479 86.2904C33.6505 85.022 33.7874 83.747 33.9567 82.4707L31.9741 82.2077ZM31.3439 90.0698C31.3105 91.4041 31.3171 92.7271 31.366 94.0326L33.3646 93.9578C33.3173 92.696 33.3109 91.4147 33.3433 90.1198L31.3439 90.0698ZM31.6534 97.9936C31.8003 99.3343 31.9979 100.649 32.2491 101.931L34.2118 101.546C33.9721 100.323 33.7827 99.0644 33.6415 97.7756L31.6534 97.9936ZM33.2099 105.809C33.6068 107.115 34.0711 108.373 34.607 109.574L36.4335 108.759C35.9341 107.64 35.4982 106.46 35.1233 105.228L33.2099 105.809ZM36.5211 113.132C37.2636 114.284 38.0946 115.358 39.0192 116.34L40.4752 114.969C39.6398 114.082 38.8832 113.105 38.2023 112.049L36.5211 113.132ZM42.1088 119.016C43.21 119.786 44.4032 120.45 45.6912 120.997L46.4729 119.156C45.3128 118.663 44.2416 118.067 43.2545 117.377L42.1088 119.016ZM49.5766 122.219C50.8388 122.491 52.1703 122.668 53.5726 122.745L53.6815 120.748C52.3783 120.677 51.1516 120.513 49.9981 120.264L49.5766 122.219ZM57.5635 122.7C58.2374 122.651 58.9253 122.582 59.6274 122.492L59.3726 120.508C58.7059 120.594 58.0549 120.659 57.4192 120.705L57.5635 122.7ZM59.6274 122.492C60.3046 122.405 60.9756 122.322 61.6404 122.243L61.4052 120.257C60.7337 120.337 60.0562 120.42 59.3726 120.508L59.6274 122.492ZM65.604 121.816C66.9519 121.685 68.2734 121.572 69.5696 121.478L69.4244 119.483C68.1116 119.579 66.7741 119.693 65.411 119.825L65.604 121.816ZM73.5552 121.241C74.9144 121.18 76.2443 121.139 77.5461 121.121L77.5174 119.121C76.194 119.14 74.8434 119.181 73.4644 119.243L73.5552 121.241ZM81.5303 121.132C82.8862 121.161 84.2101 121.214 85.5036 121.293L85.6255 119.297C84.3042 119.216 82.9536 119.162 81.5721 119.133L81.5303 121.132ZM89.4586 121.623C90.8008 121.767 92.1089 121.94 93.3848 122.143L93.6989 120.168C92.388 119.959 91.046 119.782 89.6711 119.635L89.4586 121.623ZM97.2772 122.875C98.5914 123.162 99.8702 123.484 101.116 123.841L101.666 121.918C100.378 121.549 99.0585 121.217 97.7042 120.921L97.2772 122.875ZM104.874 125.055C106.125 125.507 107.342 125.999 108.529 126.528L109.344 124.702C108.112 124.152 106.85 123.643 105.555 123.174L104.874 125.055ZM112.064 128.266C113.225 128.891 114.357 129.556 115.464 130.263L116.54 128.577C115.391 127.844 114.217 127.153 113.012 126.505L112.064 128.266ZM118.711 132.502C119.762 133.282 120.792 134.102 121.804 134.963L123.099 133.439C122.055 132.551 120.991 131.703 119.904 130.896L118.711 132.502ZM124.739 137.616C125.679 138.518 126.606 139.457 127.522 140.433L128.981 139.064C128.042 138.064 127.09 137.1 126.123 136.173L124.739 137.616ZM130.171 143.39C131.019 144.381 131.861 145.406 132.697 146.464L134.266 145.223C133.415 144.147 132.557 143.102 131.69 142.089L130.171 143.39ZM135.117 149.633C135.894 150.686 136.669 151.767 137.443 152.878L139.084 151.735C138.3 150.61 137.515 149.513 136.726 148.445L135.117 149.633ZM139.69 156.184C140.415 157.277 141.141 158.395 141.869 159.538L143.556 158.464C142.821 157.311 142.089 156.182 141.356 155.079L139.69 156.184ZM143.993 162.93C144.683 164.048 145.375 165.188 146.073 166.35L147.788 165.321C147.086 164.153 146.39 163.006 145.696 161.88L143.993 162.93ZM148.116 169.794C148.782 170.929 149.454 172.083 150.132 173.257L151.864 172.256C151.184 171.079 150.509 169.921 149.84 168.781L148.116 169.794ZM152.128 176.734C152.461 177.316 152.795 177.903 153.131 178.494L154.869 177.506C154.533 176.914 154.198 176.326 153.865 175.742L152.128 176.734Z" fill="#DD0E1D"/>
</svg>
