<svg width="328" height="102" viewBox="0 0 328 102" fill="none" xmlns="http://www.w3.org/2000/svg">
<g clip-path="url(#clip0_62_103)">
<path d="M10.6517 351.02C82.2743 351.02 140.336 292.959 140.336 221.336C140.336 149.713 82.2743 91.6519 10.6517 91.6519C-60.9708 91.6519 -119.032 149.713 -119.032 221.336C-119.032 292.959 -60.9708 351.02 10.6517 351.02Z" stroke="#DD0E1D" stroke-width="1.61" stroke-miterlimit="10"/>
<path d="M10.6518 364.474C89.7046 364.474 153.79 300.389 153.79 221.336C153.79 142.283 89.7046 78.1982 10.6518 78.1982C-68.4009 78.1982 -132.486 142.283 -132.486 221.336C-132.486 300.389 -68.4009 364.474 10.6518 364.474Z" stroke="#DD0E1D" stroke-width="1.56" stroke-miterlimit="10"/>
<path d="M10.6517 377.943C97.1433 377.943 167.258 307.827 167.258 221.336C167.258 134.844 97.1433 64.7292 10.6517 64.7292C-75.8398 64.7292 -145.955 134.844 -145.955 221.336C-145.955 307.827 -75.8398 377.943 10.6517 377.943Z" stroke="#DD0E1D" stroke-width="1.52" stroke-miterlimit="10"/>
<path d="M10.6517 391.412C104.582 391.412 180.728 315.266 180.728 221.336C180.728 127.406 104.582 51.2603 10.6517 51.2603C-83.2785 51.2603 -159.424 127.406 -159.424 221.336C-159.424 315.266 -83.2785 391.412 10.6517 391.412Z" stroke="#DD0E1D" stroke-width="1.47" stroke-miterlimit="10"/>
<path d="M10.6517 404.881C112.021 404.881 194.197 322.705 194.197 221.336C194.197 119.967 112.021 37.791 10.6517 37.791C-90.7172 37.791 -172.893 119.967 -172.893 221.336C-172.893 322.705 -90.7172 404.881 10.6517 404.881Z" stroke="#DD0E1D" stroke-width="1.42" stroke-miterlimit="10"/>
<path d="M10.6518 418.334C119.451 418.334 207.65 330.135 207.65 221.336C207.65 112.537 119.451 24.3376 10.6518 24.3376C-98.1474 24.3376 -186.347 112.537 -186.347 221.336C-186.347 330.135 -98.1474 418.334 10.6518 418.334Z" stroke="#DD0E1D" stroke-width="1.37" stroke-miterlimit="10"/>
<path d="M10.6518 431.803C126.89 431.803 221.119 337.574 221.119 221.336C221.119 105.098 126.89 10.8687 10.6518 10.8687C-105.586 10.8687 -199.816 105.098 -199.816 221.336C-199.816 337.574 -105.586 431.803 10.6518 431.803Z" stroke="#DD0E1D" stroke-width="1.32" stroke-miterlimit="10"/>
<path d="M10.6518 445.272C134.328 445.272 234.588 345.013 234.588 221.336C234.588 97.6592 134.328 -2.60059 10.6518 -2.60059C-113.025 -2.60059 -213.285 97.6592 -213.285 221.336C-213.285 345.013 -113.025 445.272 10.6518 445.272Z" stroke="#DD0E1D" stroke-width="1.27" stroke-miterlimit="10"/>
<path d="M10.6517 458.726C141.759 458.726 248.042 352.443 248.042 221.336C248.042 90.2292 141.759 -16.054 10.6517 -16.054C-120.455 -16.054 -226.738 90.2292 -226.738 221.336C-226.738 352.443 -120.455 458.726 10.6517 458.726Z" stroke="#DD0E1D" stroke-width="1.23" stroke-miterlimit="10"/>
<path d="M10.6517 472.195C149.197 472.195 261.511 359.882 261.511 221.336C261.511 82.7905 149.197 -29.5229 10.6517 -29.5229C-127.894 -29.5229 -240.207 82.7905 -240.207 221.336C-240.207 359.882 -127.894 472.195 10.6517 472.195Z" stroke="#DD0E1D" stroke-width="1.18" stroke-miterlimit="10"/>
<path d="M10.6517 485.664C156.636 485.664 274.98 367.32 274.98 221.336C274.98 75.3515 156.636 -42.9922 10.6517 -42.9922C-135.333 -42.9922 -253.676 75.3515 -253.676 221.336C-253.676 367.32 -135.333 485.664 10.6517 485.664Z" stroke="#DD0E1D" stroke-width="1.13" stroke-miterlimit="10"/>
<path d="M10.6518 499.118C164.066 499.118 288.433 374.751 288.433 221.336C288.433 67.9215 164.066 -56.4456 10.6518 -56.4456C-142.763 -56.4456 -267.13 67.9215 -267.13 221.336C-267.13 374.751 -142.763 499.118 10.6518 499.118Z" stroke="#DD0E1D" stroke-width="1.08" stroke-miterlimit="10"/>
<path d="M10.6517 512.587C171.505 512.587 301.902 382.189 301.902 221.336C301.902 60.4826 171.505 -69.9148 10.6517 -69.9148C-150.202 -69.9148 -280.599 60.4826 -280.599 221.336C-280.599 382.189 -150.202 512.587 10.6517 512.587Z" stroke="#DD0E1D" stroke-width="1.03" stroke-miterlimit="10"/>
<path d="M10.6517 526.056C178.944 526.056 315.372 389.628 315.372 221.336C315.372 53.0439 178.944 -83.3838 10.6517 -83.3838C-157.64 -83.3838 -294.068 53.0439 -294.068 221.336C-294.068 389.628 -157.64 526.056 10.6517 526.056Z" stroke="#DD0E1D" stroke-width="0.98" stroke-miterlimit="10"/>
<path d="M10.6518 539.509C186.374 539.509 328.825 397.058 328.825 221.336C328.825 45.6136 186.374 -96.8374 10.6518 -96.8374C-165.07 -96.8374 -307.521 45.6136 -307.521 221.336C-307.521 397.058 -165.07 539.509 10.6518 539.509Z" stroke="#DD0E1D" stroke-width="0.94" stroke-miterlimit="10"/>
<path d="M10.6518 552.978C193.813 552.978 342.294 404.497 342.294 221.336C342.294 38.1749 193.813 -110.306 10.6518 -110.306C-172.509 -110.306 -320.991 38.1749 -320.991 221.336C-320.991 404.497 -172.509 552.978 10.6518 552.978Z" stroke="#DD0E1D" stroke-width="0.89" stroke-miterlimit="10"/>
<path d="M10.6518 566.447C201.252 566.447 355.763 411.936 355.763 221.336C355.763 30.7362 201.252 -123.775 10.6518 -123.775C-179.948 -123.775 -334.46 30.7362 -334.46 221.336C-334.46 411.936 -179.948 566.447 10.6518 566.447Z" stroke="#DD0E1D" stroke-width="0.84" stroke-miterlimit="10"/>
<path d="M10.6517 579.901C208.682 579.901 369.217 419.366 369.217 221.336C369.217 23.306 208.682 -137.229 10.6517 -137.229C-187.378 -137.229 -347.913 23.306 -347.913 221.336C-347.913 419.366 -187.378 579.901 10.6517 579.901Z" stroke="#DD0E1D" stroke-width="0.79" stroke-miterlimit="10"/>
<path d="M10.6517 593.37C216.12 593.37 382.686 426.805 382.686 221.336C382.686 15.8673 216.12 -150.698 10.6517 -150.698C-194.817 -150.698 -361.382 15.8673 -361.382 221.336C-361.382 426.805 -194.817 593.37 10.6517 593.37Z" stroke="#DD0E1D" stroke-width="0.74" stroke-miterlimit="10"/>
<path d="M10.6518 606.839C223.559 606.839 396.155 434.243 396.155 221.336C396.155 8.42857 223.559 -164.167 10.6518 -164.167C-202.256 -164.167 -374.851 8.42857 -374.851 221.336C-374.851 434.243 -202.256 606.839 10.6518 606.839Z" stroke="#DD0E1D" stroke-width="0.69" stroke-miterlimit="10"/>
<path d="M10.6517 620.292C230.989 620.292 409.608 441.674 409.608 221.336C409.608 0.998306 230.989 -177.621 10.6517 -177.621C-209.686 -177.621 -388.305 0.998306 -388.305 221.336C-388.305 441.674 -209.686 620.292 10.6517 620.292Z" stroke="#DD0E1D" stroke-width="0.65" stroke-miterlimit="10"/>
<path d="M10.6518 633.762C238.428 633.762 423.077 449.112 423.077 221.336C423.077 -6.44035 238.428 -191.09 10.6518 -191.09C-217.125 -191.09 -401.774 -6.44035 -401.774 221.336C-401.774 449.112 -217.125 633.762 10.6518 633.762Z" stroke="#DD0E1D" stroke-width="0.6" stroke-miterlimit="10"/>
<path d="M10.6517 647.23C245.867 647.23 436.546 456.551 436.546 221.336C436.546 -13.8793 245.867 -204.559 10.6517 -204.559C-224.563 -204.559 -415.243 -13.8793 -415.243 221.336C-415.243 456.551 -224.563 647.23 10.6517 647.23Z" stroke="#DD0E1D" stroke-width="0.55" stroke-miterlimit="10"/>
<path d="M10.6518 660.684C253.297 660.684 450 463.981 450 221.336C450 -21.3093 253.297 -218.012 10.6518 -218.012C-231.994 -218.012 -428.696 -21.3093 -428.696 221.336C-428.696 463.981 -231.994 660.684 10.6518 660.684Z" stroke="#DD0E1D" stroke-width="0.5" stroke-miterlimit="10"/>
</g>
<defs>
<clipPath id="clip0_62_103">
<rect width="328" height="102" fill="white"/>
</clipPath>
</defs>
</svg>
