<svg width="329" height="140" viewBox="0 0 329 140" fill="none" xmlns="http://www.w3.org/2000/svg">
<g clip-path="url(#clip0_62_69)">
<path d="M-0.348272 162.299C11.7814 162.299 21.6145 152.466 21.6145 140.336C21.6145 128.206 11.7814 118.373 -0.348272 118.373C-12.478 118.373 -22.311 128.206 -22.311 140.336C-22.311 152.466 -12.478 162.299 -0.348272 162.299Z" stroke="black" stroke-width="2" stroke-miterlimit="10"/>
<path d="M-0.348244 175.768C19.2202 175.768 35.0836 159.905 35.0836 140.336C35.0836 120.768 19.2202 104.904 -0.348244 104.904C-19.9167 104.904 -35.78 120.768 -35.78 140.336C-35.78 159.905 -19.9167 175.768 -0.348244 175.768Z" stroke="black" stroke-width="1.95" stroke-miterlimit="10"/>
<path d="M-0.348251 189.237C26.6589 189.237 48.5526 167.343 48.5526 140.336C48.5526 113.329 26.6589 91.4351 -0.348251 91.4351C-27.3554 91.4351 -49.2491 113.329 -49.2491 140.336C-49.2491 167.343 -27.3554 189.237 -0.348251 189.237Z" stroke="black" stroke-width="1.9" stroke-miterlimit="10"/>
<path d="M-0.348278 202.69C34.0891 202.69 62.0061 174.773 62.0061 140.336C62.0061 105.898 34.0891 77.9814 -0.348278 77.9814C-34.7857 77.9814 -62.7027 105.898 -62.7027 140.336C-62.7027 174.773 -34.7857 202.69 -0.348278 202.69Z" stroke="black" stroke-width="1.85" stroke-miterlimit="10"/>
<path d="M-0.348244 216.16C41.5279 216.16 75.4752 182.212 75.4752 140.336C75.4752 98.46 41.5279 64.5127 -0.348244 64.5127C-42.2244 64.5127 -76.1717 98.46 -76.1717 140.336C-76.1717 182.212 -42.2244 216.16 -0.348244 216.16Z" stroke="black" stroke-width="1.81" stroke-miterlimit="10"/>
<path d="M-0.348282 229.628C48.9666 229.628 88.9442 189.651 88.9442 140.336C88.9442 91.021 48.9666 51.0435 -0.348282 51.0435C-49.6632 51.0435 -89.6407 91.021 -89.6407 140.336C-89.6407 189.651 -49.6632 229.628 -0.348282 229.628Z" stroke="black" stroke-width="1.76" stroke-miterlimit="10"/>
<path d="M-0.348213 243.082C56.3969 243.082 102.398 197.081 102.398 140.336C102.398 83.5908 56.3969 37.5898 -0.348213 37.5898C-57.0933 37.5898 -103.094 83.5908 -103.094 140.336C-103.094 197.081 -57.0933 243.082 -0.348213 243.082Z" stroke="black" stroke-width="1.71" stroke-miterlimit="10"/>
<path d="M-0.348282 256.551C63.8355 256.551 115.867 204.52 115.867 140.336C115.867 76.1521 63.8355 24.1208 -0.348282 24.1208C-64.5321 24.1208 -116.563 76.1521 -116.563 140.336C-116.563 204.52 -64.5321 256.551 -0.348282 256.551Z" stroke="black" stroke-width="1.66" stroke-miterlimit="10"/>
<path d="M-0.348282 270.02C71.2743 270.02 129.336 211.959 129.336 140.336C129.336 68.7134 71.2743 10.6519 -0.348282 10.6519C-71.9708 10.6519 -130.032 68.7134 -130.032 140.336C-130.032 211.959 -71.9708 270.02 -0.348282 270.02Z" stroke="black" stroke-width="1.61" stroke-miterlimit="10"/>
<path d="M-0.348175 283.474C78.7046 283.474 142.79 219.389 142.79 140.336C142.79 61.2831 78.7046 -2.80176 -0.348175 -2.80176C-79.4009 -2.80176 -143.486 61.2831 -143.486 140.336C-143.486 219.389 -79.4009 283.474 -0.348175 283.474Z" stroke="black" stroke-width="1.56" stroke-miterlimit="10"/>
<path d="M-0.348251 296.943C86.1433 296.943 156.258 226.827 156.258 140.336C156.258 53.8445 86.1433 -16.2708 -0.348251 -16.2708C-86.8398 -16.2708 -156.955 53.8445 -156.955 140.336C-156.955 226.827 -86.8398 296.943 -0.348251 296.943Z" stroke="black" stroke-width="1.52" stroke-miterlimit="10"/>
<path d="M-0.348251 310.412C93.582 310.412 169.728 234.266 169.728 140.336C169.728 46.4058 93.582 -29.7397 -0.348251 -29.7397C-94.2785 -29.7397 -170.424 46.4058 -170.424 140.336C-170.424 234.266 -94.2785 310.412 -0.348251 310.412Z" stroke="black" stroke-width="1.47" stroke-miterlimit="10"/>
<path d="M-0.348251 323.881C101.021 323.881 183.197 241.705 183.197 140.336C183.197 38.9668 101.021 -43.209 -0.348251 -43.209C-101.717 -43.209 -183.893 38.9668 -183.893 140.336C-183.893 241.705 -101.717 323.881 -0.348251 323.881Z" stroke="black" stroke-width="1.42" stroke-miterlimit="10"/>
<path d="M-0.348221 337.334C108.451 337.334 196.65 249.135 196.65 140.336C196.65 31.5368 108.451 -56.6624 -0.348221 -56.6624C-109.147 -56.6624 -197.347 31.5368 -197.347 140.336C-197.347 249.135 -109.147 337.334 -0.348221 337.334Z" stroke="black" stroke-width="1.37" stroke-miterlimit="10"/>
<path d="M-0.348221 350.803C115.89 350.803 210.119 256.574 210.119 140.336C210.119 24.0981 115.89 -70.1313 -0.348221 -70.1313C-116.586 -70.1313 -210.816 24.0981 -210.816 140.336C-210.816 256.574 -116.586 350.803 -0.348221 350.803Z" stroke="black" stroke-width="1.32" stroke-miterlimit="10"/>
<path d="M-0.348206 364.272C123.328 364.272 223.588 264.013 223.588 140.336C223.588 16.6592 123.328 -83.6006 -0.348206 -83.6006C-124.025 -83.6006 -224.285 16.6592 -224.285 140.336C-224.285 264.013 -124.025 364.272 -0.348206 364.272Z" stroke="black" stroke-width="1.27" stroke-miterlimit="10"/>
<path d="M-0.348282 377.726C130.759 377.726 237.042 271.443 237.042 140.336C237.042 9.22916 130.759 -97.054 -0.348282 -97.054C-131.455 -97.054 -237.738 9.22916 -237.738 140.336C-237.738 271.443 -131.455 377.726 -0.348282 377.726Z" stroke="black" stroke-width="1.23" stroke-miterlimit="10"/>
<path d="M-0.348251 391.195C138.197 391.195 250.511 278.882 250.511 140.336C250.511 1.79046 138.197 -110.523 -0.348251 -110.523C-138.894 -110.523 -251.207 1.79046 -251.207 140.336C-251.207 278.882 -138.894 391.195 -0.348251 391.195Z" stroke="black" stroke-width="1.18" stroke-miterlimit="10"/>
<path d="M-0.348328 404.664C145.636 404.664 263.98 286.32 263.98 140.336C263.98 -5.64848 145.636 -123.992 -0.348328 -123.992C-146.333 -123.992 -264.676 -5.64848 -264.676 140.336C-264.676 286.32 -146.333 404.664 -0.348328 404.664Z" stroke="black" stroke-width="1.13" stroke-miterlimit="10"/>
<path d="M-0.348236 418.118C153.066 418.118 277.433 293.751 277.433 140.336C277.433 -13.0785 153.066 -137.446 -0.348236 -137.446C-153.763 -137.446 -278.13 -13.0785 -278.13 140.336C-278.13 293.751 -153.763 418.118 -0.348236 418.118Z" stroke="black" stroke-width="1.08" stroke-miterlimit="10"/>
<path d="M-0.348267 431.587C160.505 431.587 290.902 301.189 290.902 140.336C290.902 -20.5174 160.505 -150.915 -0.348267 -150.915C-161.202 -150.915 -291.599 -20.5174 -291.599 140.336C-291.599 301.189 -161.202 431.587 -0.348267 431.587Z" stroke="black" stroke-width="1.03" stroke-miterlimit="10"/>
<path d="M-0.348267 445.056C167.944 445.056 304.372 308.628 304.372 140.336C304.372 -27.9561 167.944 -164.384 -0.348267 -164.384C-168.64 -164.384 -305.068 -27.9561 -305.068 140.336C-305.068 308.628 -168.64 445.056 -0.348267 445.056Z" stroke="black" stroke-width="0.98" stroke-miterlimit="10"/>
<path d="M-0.348206 458.509C175.374 458.509 317.825 316.058 317.825 140.336C317.825 -35.3864 175.374 -177.837 -0.348206 -177.837C-176.07 -177.837 -318.521 -35.3864 -318.521 140.336C-318.521 316.058 -176.07 458.509 -0.348206 458.509Z" stroke="black" stroke-width="0.94" stroke-miterlimit="10"/>
<path d="M-0.348206 471.978C182.813 471.978 331.294 323.497 331.294 140.336C331.294 -42.8251 182.813 -191.306 -0.348206 -191.306C-183.509 -191.306 -331.991 -42.8251 -331.991 140.336C-331.991 323.497 -183.509 471.978 -0.348206 471.978Z" stroke="black" stroke-width="0.89" stroke-miterlimit="10"/>
<path d="M-0.348236 485.447C190.252 485.447 344.763 330.936 344.763 140.336C344.763 -50.2638 190.252 -204.775 -0.348236 -204.775C-190.948 -204.775 -345.46 -50.2638 -345.46 140.336C-345.46 330.936 -190.948 485.447 -0.348236 485.447Z" stroke="black" stroke-width="0.84" stroke-miterlimit="10"/>
<path d="M-0.348267 498.901C197.682 498.901 358.217 338.366 358.217 140.336C358.217 -57.694 197.682 -218.229 -0.348267 -218.229C-198.378 -218.229 -358.913 -57.694 -358.913 140.336C-358.913 338.366 -198.378 498.901 -0.348267 498.901Z" stroke="black" stroke-width="0.79" stroke-miterlimit="10"/>
<path d="M-0.348297 512.37C205.12 512.37 371.686 345.805 371.686 140.336C371.686 -65.1327 205.12 -231.698 -0.348297 -231.698C-205.817 -231.698 -372.382 -65.1327 -372.382 140.336C-372.382 345.805 -205.817 512.37 -0.348297 512.37Z" stroke="black" stroke-width="0.74" stroke-miterlimit="10"/>
<path d="M-0.348236 525.839C212.559 525.839 385.155 353.243 385.155 140.336C385.155 -72.5714 212.559 -245.167 -0.348236 -245.167C-213.256 -245.167 -385.851 -72.5714 -385.851 140.336C-385.851 353.243 -213.256 525.839 -0.348236 525.839Z" stroke="black" stroke-width="0.69" stroke-miterlimit="10"/>
<path d="M-0.348267 539.292C219.989 539.292 398.608 360.674 398.608 140.336C398.608 -80.0017 219.989 -258.621 -0.348267 -258.621C-220.686 -258.621 -399.305 -80.0017 -399.305 140.336C-399.305 360.674 -220.686 539.292 -0.348267 539.292Z" stroke="black" stroke-width="0.65" stroke-miterlimit="10"/>
<path d="M-0.348236 552.762C227.428 552.762 412.077 368.112 412.077 140.336C412.077 -87.4404 227.428 -272.09 -0.348236 -272.09C-228.125 -272.09 -412.774 -87.4404 -412.774 140.336C-412.774 368.112 -228.125 552.762 -0.348236 552.762Z" stroke="black" stroke-width="0.6" stroke-miterlimit="10"/>
<path d="M-0.348297 566.23C234.867 566.23 425.546 375.551 425.546 140.336C425.546 -94.8793 234.867 -285.559 -0.348297 -285.559C-235.563 -285.559 -426.243 -94.8793 -426.243 140.336C-426.243 375.551 -235.563 566.23 -0.348297 566.23Z" stroke="black" stroke-width="0.55" stroke-miterlimit="10"/>
<path d="M-0.348206 579.684C242.297 579.684 439 382.981 439 140.336C439 -102.309 242.297 -299.012 -0.348206 -299.012C-242.994 -299.012 -439.696 -102.309 -439.696 140.336C-439.696 382.981 -242.994 579.684 -0.348206 579.684Z" stroke="black" stroke-width="0.5" stroke-miterlimit="10"/>
</g>
<defs>
<clipPath id="clip0_62_69">
<rect width="329" height="140" fill="white"/>
</clipPath>
</defs>
</svg>
