<svg width="342" height="222" viewBox="0 0 342 222" fill="none" xmlns="http://www.w3.org/2000/svg">
<g clip-path="url(#clip0_62_206)">
<path d="M6.65172 390.629C55.9666 390.629 95.9442 350.651 95.9442 301.336C95.9442 252.021 55.9666 212.044 6.65172 212.044C-42.6632 212.044 -82.6407 252.021 -82.6407 301.336C-82.6407 350.651 -42.6632 390.629 6.65172 390.629Z" stroke="#F7F7F7" stroke-width="1.76" stroke-miterlimit="10"/>
<path d="M6.65179 404.082C63.3969 404.082 109.398 358.081 109.398 301.336C109.398 244.591 63.3969 198.59 6.65179 198.59C-50.0933 198.59 -96.0942 244.591 -96.0942 301.336C-96.0942 358.081 -50.0933 404.082 6.65179 404.082Z" stroke="#F7F7F7" stroke-width="1.71" stroke-miterlimit="10"/>
<path d="M6.65172 417.551C70.8355 417.551 122.867 365.52 122.867 301.336C122.867 237.152 70.8355 185.121 6.65172 185.121C-57.5321 185.121 -109.563 237.152 -109.563 301.336C-109.563 365.52 -57.5321 417.551 6.65172 417.551Z" stroke="#F7F7F7" stroke-width="1.66" stroke-miterlimit="10"/>
<path d="M6.65172 431.02C78.2743 431.02 136.336 372.959 136.336 301.336C136.336 229.713 78.2743 171.652 6.65172 171.652C-64.9708 171.652 -123.032 229.713 -123.032 301.336C-123.032 372.959 -64.9708 431.02 6.65172 431.02Z" stroke="#F7F7F7" stroke-width="1.61" stroke-miterlimit="10"/>
<path d="M6.65182 444.474C85.7046 444.474 149.79 380.389 149.79 301.336C149.79 222.283 85.7046 158.198 6.65182 158.198C-72.4009 158.198 -136.486 222.283 -136.486 301.336C-136.486 380.389 -72.4009 444.474 6.65182 444.474Z" stroke="#F7F7F7" stroke-width="1.56" stroke-miterlimit="10"/>
<path d="M6.65175 457.943C93.1433 457.943 163.258 387.828 163.258 301.336C163.258 214.845 93.1433 144.729 6.65175 144.729C-79.8398 144.729 -149.955 214.845 -149.955 301.336C-149.955 387.828 -79.8398 457.943 6.65175 457.943Z" stroke="#F7F7F7" stroke-width="1.52" stroke-miterlimit="10"/>
<path d="M6.65175 471.412C100.582 471.412 176.728 395.266 176.728 301.336C176.728 207.406 100.582 131.26 6.65175 131.26C-87.2785 131.26 -163.424 207.406 -163.424 301.336C-163.424 395.266 -87.2785 471.412 6.65175 471.412Z" stroke="#F7F7F7" stroke-width="1.47" stroke-miterlimit="10"/>
<path d="M6.65175 484.881C108.021 484.881 190.197 402.705 190.197 301.336C190.197 199.967 108.021 117.791 6.65175 117.791C-94.7172 117.791 -176.893 199.967 -176.893 301.336C-176.893 402.705 -94.7172 484.881 6.65175 484.881Z" stroke="#F7F7F7" stroke-width="1.42" stroke-miterlimit="10"/>
<path d="M6.65178 498.334C115.451 498.334 203.65 410.135 203.65 301.336C203.65 192.537 115.451 104.338 6.65178 104.338C-102.147 104.338 -190.347 192.537 -190.347 301.336C-190.347 410.135 -102.147 498.334 6.65178 498.334Z" stroke="#F7F7F7" stroke-width="1.37" stroke-miterlimit="10"/>
<path d="M6.65178 511.803C122.89 511.803 217.119 417.574 217.119 301.336C217.119 185.098 122.89 90.8687 6.65178 90.8687C-109.586 90.8687 -203.816 185.098 -203.816 301.336C-203.816 417.574 -109.586 511.803 6.65178 511.803Z" stroke="#F7F7F7" stroke-width="1.32" stroke-miterlimit="10"/>
<path d="M6.65179 525.273C130.328 525.273 230.588 425.013 230.588 301.336C230.588 177.659 130.328 77.3997 6.65179 77.3997C-117.025 77.3997 -217.285 177.659 -217.285 301.336C-217.285 425.013 -117.025 525.273 6.65179 525.273Z" stroke="#F7F7F7" stroke-width="1.27" stroke-miterlimit="10"/>
<path d="M6.65172 538.726C137.759 538.726 244.042 432.443 244.042 301.336C244.042 170.229 137.759 63.946 6.65172 63.946C-124.455 63.946 -230.738 170.229 -230.738 301.336C-230.738 432.443 -124.455 538.726 6.65172 538.726Z" stroke="#F7F7F7" stroke-width="1.23" stroke-miterlimit="10"/>
<path d="M6.65175 552.195C145.197 552.195 257.511 439.882 257.511 301.336C257.511 162.79 145.197 50.4771 6.65175 50.4771C-131.894 50.4771 -244.207 162.79 -244.207 301.336C-244.207 439.882 -131.894 552.195 6.65175 552.195Z" stroke="#F7F7F7" stroke-width="1.18" stroke-miterlimit="10"/>
<path d="M6.65167 565.664C152.636 565.664 270.98 447.32 270.98 301.336C270.98 155.352 152.636 37.0079 6.65167 37.0079C-139.333 37.0079 -257.676 155.352 -257.676 301.336C-257.676 447.32 -139.333 565.664 6.65167 565.664Z" stroke="#F7F7F7" stroke-width="1.13" stroke-miterlimit="10"/>
<path d="M6.65176 579.118C160.066 579.118 284.433 454.751 284.433 301.336C284.433 147.922 160.066 23.5544 6.65176 23.5544C-146.763 23.5544 -271.13 147.922 -271.13 301.336C-271.13 454.751 -146.763 579.118 6.65176 579.118Z" stroke="#F7F7F7" stroke-width="1.08" stroke-miterlimit="10"/>
<path d="M6.65173 592.587C167.505 592.587 297.902 462.189 297.902 301.336C297.902 140.483 167.505 10.0854 6.65173 10.0854C-154.202 10.0854 -284.599 140.483 -284.599 301.336C-284.599 462.189 -154.202 592.587 6.65173 592.587Z" stroke="#F7F7F7" stroke-width="1.03" stroke-miterlimit="10"/>
<path d="M6.65173 606.056C174.944 606.056 311.372 469.628 311.372 301.336C311.372 133.044 174.944 -3.38367 6.65173 -3.38367C-161.64 -3.38367 -298.068 133.044 -298.068 301.336C-298.068 469.628 -161.64 606.056 6.65173 606.056Z" stroke="#F7F7F7" stroke-width="0.98" stroke-miterlimit="10"/>
<path d="M6.65179 619.509C182.374 619.509 324.825 477.058 324.825 301.336C324.825 125.614 182.374 -16.8372 6.65179 -16.8372C-169.07 -16.8372 -311.521 125.614 -311.521 301.336C-311.521 477.058 -169.07 619.509 6.65179 619.509Z" stroke="#F7F7F7" stroke-width="0.94" stroke-miterlimit="10"/>
<path d="M6.65179 632.978C189.813 632.978 338.294 484.497 338.294 301.336C338.294 118.175 189.813 -30.3063 6.65179 -30.3063C-176.509 -30.3063 -324.991 118.175 -324.991 301.336C-324.991 484.497 -176.509 632.978 6.65179 632.978Z" stroke="#F7F7F7" stroke-width="0.89" stroke-miterlimit="10"/>
<path d="M6.65176 646.448C197.252 646.448 351.763 491.936 351.763 301.336C351.763 110.736 197.252 -43.7753 6.65176 -43.7753C-183.948 -43.7753 -338.46 110.736 -338.46 301.336C-338.46 491.936 -183.948 646.448 6.65176 646.448Z" stroke="#F7F7F7" stroke-width="0.84" stroke-miterlimit="10"/>
<path d="M6.65173 659.901C204.682 659.901 365.217 499.366 365.217 301.336C365.217 103.306 204.682 -57.2289 6.65173 -57.2289C-191.378 -57.2289 -351.913 103.306 -351.913 301.336C-351.913 499.366 -191.378 659.901 6.65173 659.901Z" stroke="#F7F7F7" stroke-width="0.79" stroke-miterlimit="10"/>
<path d="M6.6517 673.37C212.12 673.37 378.686 506.805 378.686 301.336C378.686 95.8674 212.12 -70.6979 6.6517 -70.6979C-198.817 -70.6979 -365.382 95.8674 -365.382 301.336C-365.382 506.805 -198.817 673.37 6.6517 673.37Z" stroke="#F7F7F7" stroke-width="0.74" stroke-miterlimit="10"/>
<path d="M6.65176 686.839C219.559 686.839 392.155 514.244 392.155 301.336C392.155 88.4287 219.559 -84.1669 6.65176 -84.1669C-206.256 -84.1669 -378.851 88.4287 -378.851 301.336C-378.851 514.244 -206.256 686.839 6.65176 686.839Z" stroke="#F7F7F7" stroke-width="0.69" stroke-miterlimit="10"/>
<path d="M6.65173 700.293C226.989 700.293 405.608 521.674 405.608 301.336C405.608 80.9984 226.989 -97.6205 6.65173 -97.6205C-213.686 -97.6205 -392.305 80.9984 -392.305 301.336C-392.305 521.674 -213.686 700.293 6.65173 700.293Z" stroke="#F7F7F7" stroke-width="0.65" stroke-miterlimit="10"/>
<path d="M6.65176 713.762C234.428 713.762 419.077 529.112 419.077 301.336C419.077 73.5598 234.428 -111.089 6.65176 -111.089C-221.125 -111.089 -405.774 73.5598 -405.774 301.336C-405.774 529.112 -221.125 713.762 6.65176 713.762Z" stroke="#F7F7F7" stroke-width="0.6" stroke-miterlimit="10"/>
<path d="M6.6517 727.231C241.867 727.231 432.546 536.551 432.546 301.336C432.546 66.1209 241.867 -124.559 6.6517 -124.559C-228.563 -124.559 -419.243 66.1209 -419.243 301.336C-419.243 536.551 -228.563 727.231 6.6517 727.231Z" stroke="#F7F7F7" stroke-width="0.55" stroke-miterlimit="10"/>
<path d="M6.65179 740.684C249.297 740.684 446 543.981 446 301.336C446 58.6908 249.297 -138.012 6.65179 -138.012C-235.994 -138.012 -432.696 58.6908 -432.696 301.336C-432.696 543.981 -235.994 740.684 6.65179 740.684Z" stroke="#F7F7F7" stroke-width="0.5" stroke-miterlimit="10"/>
</g>
<defs>
<clipPath id="clip0_62_206">
<rect width="348" height="222" fill="#F7F7F7" transform="translate(-6)"/>
</clipPath>
</defs>
</svg>
