<svg width="290" height="91" viewBox="0 0 290 91" fill="none" xmlns="http://www.w3.org/2000/svg">
<g clip-path="url(#clip0_139_129)">
<path d="M203.158 6.92564C203.158 6.92564 197.713 9.08433 191.394 16.0616C185.075 23.0389 181.402 30.8899 184.125 32.9587C185.165 33.7554 187.58 33.8838 191.972 29.939C196.004 26.4245 199.173 22.0276 201.232 17.0895C204.057 10.1765 203.158 7.0156 203.158 6.9385M237.833 19.4667C230.808 15.8689 225.671 11.4615 220.329 8.7246C215.192 6.1547 211.929 5.01107 207.807 5.5636C207.232 5.66343 206.666 5.80517 206.112 5.98765C206.112 5.98765 208.244 13.2348 199.806 25.4289C191.368 37.6231 183.496 37.713 181.287 34.295C179.078 30.877 181.955 23.4116 186.938 16.9226C192.152 10.1252 201.309 4.47142 201.309 4.47142C201.309 4.47142 198.38 2.69815 191.201 6.75859C184.022 10.819 172.143 20.1606 160.995 36.0811C149.848 52.0016 147.613 60.7521 145.995 67.6523C144.377 74.5524 145.854 81.928 153.508 81.928C161.162 81.928 170.037 70.2607 172.528 66.2003C177.19 58.6448 180.234 47.0674 173.89 48.6607C170.756 49.4574 168.226 52.9268 166.633 56.2548C165.592 58.3878 164.787 60.6284 164.232 62.9365C162.016 63.8575 159.934 65.0719 158.042 66.5472C155.949 68.0937 153.99 69.813 152.185 71.687C152.185 71.687 152.185 66.1874 156.59 57.257C160.995 48.3266 169.035 44.2662 173.594 43.8807C177.717 43.5467 183.059 47.0417 178.539 59.9426C174.018 72.8435 160.636 88.4813 146.573 88.6869C133.615 88.8796 125.113 72.3166 143.144 43.4053C163.102 11.4358 186.552 1.61883 194.168 0.526623C201.784 -0.565583 204.249 2.78814 204.249 2.78814C208.824 0.897274 213.77 0.0754052 218.71 0.385219C228.008 1.01484 235.2 7.59379 244.678 12.2068C242.2 14.6096 239.849 17.0768 237.73 19.4025M279.469 8.62178C273.048 12.7593 264.058 16.5114 255.556 15.689C253.398 17.9376 251.074 20.5204 248.749 23.3987C263.608 26.3284 276.592 17.1281 283.514 9.26425C286.022 6.44754 288.178 3.33658 289.936 -0.000249483C286.791 3.28615 283.269 6.18894 279.443 8.6475M259.691 50.5239C259.805 50.3279 259.9 50.1214 259.974 49.9072C259.923 49.5714 259.762 49.2623 259.515 49.0293C259.268 48.7963 258.95 48.653 258.612 48.6222C257.2 48.6222 255.26 48.8278 250.213 54.4302C246.021 59.0651 242.411 64.1958 239.464 69.7082C236.574 75.015 235.406 78.9598 237.062 79.9877C237.605 80.267 238.234 80.3312 238.822 80.1677C239.952 79.8978 241.223 78.8827 243.176 76.5955C244.087 75.5419 245.089 74.0256 246.296 72.3937C249.623 67.8322 258.035 53.4665 259.691 50.5496M207.139 56.666C207.987 54.4559 209.053 50.1256 206.818 48.4294C204.583 46.7333 198.303 50.858 198.265 55.2011C198.226 59.5443 202.58 61.6259 203.633 61.96C204.224 62.1142 204.429 62.0884 204.712 61.613C205.644 60.0271 206.455 58.3735 207.139 56.666ZM202.529 64.774C201.013 64.0669 199.597 63.164 198.316 62.0884C197.032 61.0086 195.957 59.702 195.144 58.2336C195.067 58.0794 194.977 58.2336 194.874 58.3235C194.772 58.4135 194.412 58.7733 191.15 63.579C187.888 68.3847 182.879 78.2788 187.426 79.9621C190.328 81.0415 195.131 75.9531 197.803 72.5736C199.597 70.22 201.224 67.7425 202.67 65.1595C202.798 64.8768 202.67 64.7997 202.529 64.7483M253.976 76.1715C252.692 78.1503 251.408 81.9152 255.428 79.5638C260.372 76.6983 267.435 65.9819 267.435 65.9819H270.62C267.715 70.4657 264.474 74.7225 260.924 78.7157C255.903 84.2795 249.79 89.3422 245.513 88.8539C240.466 88.2628 242.045 81.6454 242.045 81.6454C242.045 81.6454 234.802 89.355 229.832 88.7768C223.102 88.0315 225.157 79.7051 225.157 79.7051C225.157 79.7051 217.542 89.0723 212.315 88.7768C204.172 88.3142 206.214 78.3687 208.462 71.4172C209.669 67.6908 210.799 64.7611 210.799 64.7611C210.799 64.7611 209.99 64.9667 208.231 65.2237C207.319 65.3522 205.662 65.4421 205.662 65.4421C203.792 68.7427 201.756 71.9464 199.562 75.0407C196.852 78.6386 185.332 91.0255 178.551 88.5584C172.284 86.2583 174.352 76.6598 177.999 69.0143C183.329 57.8995 198.291 41.9019 206.934 43.9963C215.924 46.1551 207.152 62.5253 207.152 62.5253C207.152 62.5253 207.152 62.5254 207.242 62.6153C207.819 62.7254 208.413 62.6945 208.976 62.5253C210.096 62.3037 211.192 61.9767 212.251 61.5488C212.251 61.5488 221.24 42.6729 231.193 30.3246C241.146 17.9762 260.963 -3.28971 268.771 1.85008C270.672 3.13503 269.798 7.46529 267.243 12.7593C266.113 13.1191 264.931 13.4275 263.724 13.6845C265.149 11.3263 266.222 8.77214 266.909 6.10325C268.077 -0.321486 253.193 13.1705 242.508 27.6518C236.101 36.3662 230.414 45.5884 225.504 55.2269C227.426 54.0805 229.259 52.792 230.988 51.372C235.731 47.4259 240.242 43.2085 244.498 38.741C248.589 34.5518 252.423 30.1192 255.98 25.4674C257.115 25.4117 258.247 25.2958 259.37 25.1205C255.488 30.3996 251.253 35.4096 246.694 40.1159C242.456 44.4076 237.859 49.0334 233.852 52.4C230.293 55.4368 226.534 58.2314 222.602 60.765C222.602 60.765 213.291 79.5252 218.351 80.733C221.33 81.4398 227.199 72.3937 227.199 72.3937C227.199 72.3937 234.905 60.675 239.477 55.4195C245.783 48.2367 251.202 44.0992 256.622 44.0092C259.781 44.0092 261.643 47.3244 261.643 47.3244L263.133 45.0244H272.29C272.29 45.0244 255.415 73.987 254.041 76.1971M279.508 8.67315C273.086 12.8107 264.096 16.5627 255.594 15.7404C253.437 17.989 251.112 20.5718 248.788 23.45C263.647 26.3797 276.631 17.1795 283.553 9.31562C286.06 6.49891 288.217 3.38803 289.974 0.0511986C286.83 3.3376 283.308 6.24031 279.482 8.69887M151.055 23.0003H142.399L137.493 30.967H146.188L151.055 23.0003ZM109.869 50.5496C113.568 45.4098 123.777 27.6776 123.777 27.6776C123.729 27.3409 123.568 27.0305 123.321 26.7972C123.074 26.5638 122.755 26.4212 122.416 26.3926C120.991 26.3926 118.653 26.8038 113.966 32.6632C109.878 37.4782 106.213 42.6371 103.011 48.0825C100.108 53.3894 98.837 57.0771 100.442 58.1308C100.982 58.4043 101.605 58.4684 102.189 58.3107C103.281 58.0408 104.757 56.9486 106.645 54.7C107.557 53.6463 108.585 52.2457 109.805 50.5881M63.1601 26.444C60.7714 24.6194 54.6455 28.8726 54.6198 33.2157C54.5941 37.5588 60.1421 38.9465 60.8613 38.9851C61.0261 39.0329 61.2022 39.0233 61.3609 38.958C61.5195 38.8926 61.6512 38.7753 61.7346 38.6253C62.3913 37.3429 62.9787 36.026 63.494 34.6805C64.3416 32.4704 65.4076 28.1401 63.1601 26.444ZM59.5385 41.8634C57.884 41.3364 56.301 40.607 54.8252 39.6918C53.4054 38.7521 52.2441 37.4708 51.4476 35.9654C51.3706 35.8241 51.2806 35.9654 51.1907 36.0554C51.1008 36.1453 50.6128 36.8007 47.3379 41.6064C44.0631 46.4121 39.2214 56.2419 43.7677 57.9252C46.6702 59.0046 51.5504 53.8904 54.1831 50.511C56.1715 47.8731 58.0068 45.1231 59.6798 42.2746C59.8082 41.979 59.6797 41.9148 59.5256 41.8634M130.623 44.7802H133.82C133.82 44.7802 117.844 67.9093 108.816 66.8428C103.781 66.2645 105.271 60.0325 105.271 60.0325C105.271 60.0325 98.1821 68.3333 91.7094 66.6757C85.8146 65.1595 89.616 55.3553 89.616 55.3553C88.9482 55.6252 76.1954 70.0165 67.2312 66.5729C57.8561 62.9493 62.7107 50.9094 64.4958 47.2987C66.0112 44.2405 67.6807 41.2595 67.6807 41.2595C67.6807 41.2595 66.2424 41.6706 65.3434 41.8762C64.4444 42.0818 63.0959 42.3517 63.0959 42.3517C63.0959 42.3517 58.6652 49.5602 55.9554 53.1709C53.2456 56.7816 41.7257 69.1557 34.932 66.6886C28.1382 64.2215 29.7949 54.7257 33.6477 47.1702C39.825 34.9247 54.5042 19.8651 63.3399 22.1266C72.1757 24.3881 64.8811 38.8309 64.8811 38.8309C64.8811 38.8309 66.6534 39.0622 70.9171 36.1582C77.0559 31.9693 85.121 20.7388 93.8797 22.0238C98.0022 22.6405 101.829 26.868 96.5896 34.8732C94.92 37.4431 92.1075 39.7561 89.9371 37.4431C88.6528 36.0425 89.7701 33.447 91.2214 31.6866C91.7718 30.9658 92.4904 30.391 93.3143 30.0124C94.1382 29.6339 95.0423 29.4631 95.9474 29.515C95.9474 29.515 97.3858 26.187 93.7128 26.2641C90.7333 26.2641 83.1947 33.2671 78.9438 40.2958C75.091 46.7205 69.1191 57.7325 75.091 60.1225C80.5491 62.3198 90.9003 49.9971 95.7034 43.5466C100.507 37.0962 111.346 22.5892 120.567 21.9467C121.56 21.9496 122.537 22.1944 123.414 22.6601C124.291 23.1258 125.042 23.7983 125.601 24.6194L126.667 22.9361H135.824C135.824 22.9361 118.563 51.8089 117.202 53.9804C116.136 55.7022 114.736 59.5443 118.64 57.3856C122.545 55.2268 130.674 44.7545 130.674 44.7545M125.704 91.0126C118.932 86.3179 110.82 83.9505 102.587 84.2666C100.364 84.3262 98.1865 84.9101 96.2316 85.9707C94.2767 87.0313 92.5996 88.5386 91.3369 90.3701C87.8309 84.2666 80.9086 80.5146 70.2107 80.6046C52.9373 80.8102 35.7924 88.7897 22.2177 88.7897C9.18242 88.7897 -0.308283 80.6046 -5.88768e-05 66.059C0.552175 40.5656 22.0764 17.5778 38.1811 7.23401C47.4278 1.2847 55.172 -0.475683 60.2449 0.0768442C63.9436 0.488027 68.3999 4.76697 65.5874 11.0632C61.4777 20.2891 55.7756 19.5181 55.9811 15.1107C56.0733 13.9633 56.434 12.8536 57.0341 11.8714C57.6343 10.8892 58.457 10.0622 59.4358 9.45702C60.466 8.90467 61.619 8.62177 62.7877 8.63464C63.6096 7.94077 64.2261 2.89087 57.6506 4.5613C51.0752 6.23173 43.0486 12.7464 35.4329 21.1372C27.8172 29.5279 15.989 45.4612 13.0609 62.1527C11.7766 69.8624 12.6242 83.9968 30.9507 83.8554C46.4903 83.7141 69.4787 73.4731 90.515 73.653C97.8568 73.6177 105.069 75.5905 111.371 79.3581C116.842 82.7375 123.392 87.646 125.704 90.9227" fill="white"/>
<path d="M262.003 85.706C262.452 85.706 262.838 85.706 262.838 85.1407C262.838 84.5753 262.452 84.6395 262.093 84.6395H261.387V85.706H262.003ZM261.387 87.6206H260.873V84.2669H262.157C262.966 84.2669 263.364 84.5624 263.364 85.2435C263.371 85.3642 263.354 85.485 263.312 85.5986C263.271 85.7122 263.207 85.8161 263.124 85.9039C263.041 85.9918 262.941 86.0616 262.83 86.1094C262.719 86.1571 262.599 86.1817 262.478 86.1815L263.454 87.6848H262.876L261.977 86.2072H261.374L261.387 87.6206ZM262.016 88.3787C262.505 88.3889 262.986 88.2533 263.398 87.989C263.81 87.7248 264.134 87.3439 264.329 86.8948C264.524 86.4458 264.581 85.9488 264.493 85.4673C264.404 84.9858 264.175 84.5414 263.833 84.1907C263.492 83.84 263.054 83.5989 262.575 83.498C262.096 83.3971 261.598 83.441 261.145 83.6242C260.691 83.8073 260.302 84.1214 260.027 84.5265C259.752 84.9315 259.604 85.4092 259.601 85.8988C259.591 86.2219 259.646 86.5437 259.763 86.845C259.88 87.1464 260.056 87.421 260.281 87.6525C260.507 87.884 260.777 88.0677 261.075 88.1925C261.373 88.3173 261.693 88.3806 262.016 88.3787ZM259.011 85.8988C259.006 85.3031 259.177 84.7192 259.505 84.2213C259.832 83.7235 260.299 83.3342 260.848 83.1026C261.397 82.8711 262.002 82.8079 262.586 82.921C263.171 83.0341 263.709 83.3184 264.132 83.7378C264.554 84.1573 264.843 84.693 264.961 85.277C265.079 85.8609 265.021 86.4668 264.795 87.0177C264.568 87.5686 264.183 88.0398 263.688 88.3713C263.193 88.7028 262.611 88.8799 262.016 88.8799C261.621 88.8868 261.23 88.8145 260.864 88.6674C260.498 88.5204 260.165 88.3015 259.885 88.0236C259.605 87.7458 259.383 87.4146 259.233 87.0496C259.083 86.6847 259.007 86.2934 259.011 85.8988Z" fill="white"/>
</g>
<defs>
<clipPath id="clip0_139_129">
<rect width="290" height="91" fill="white"/>
</clipPath>
</defs>
</svg>
