<svg width="230" height="105" viewBox="0 0 230 105" fill="none" xmlns="http://www.w3.org/2000/svg">
<g clip-path="url(#clip0_41_123)">
<path d="M160.764 5.50613C160.764 5.50613 156.481 7.21119 151.51 12.6932C146.539 18.1751 143.634 24.3461 145.775 25.9818C146.598 26.6063 148.496 26.7102 151.946 23.6124C155.126 20.8484 157.623 17.3859 159.242 13.4959C161.473 8.04371 160.764 5.56561 160.764 5.50613ZM187.995 15.3796C182.469 12.5444 178.429 9.07987 174.226 6.9188C170.211 4.86183 167.619 3.99938 164.377 4.44052C163.924 4.52096 163.477 4.63187 163.039 4.77257C163.039 4.77257 164.709 10.4724 158.082 20.0634C151.351 29.7684 145.24 29.7139 143.51 27.0324C141.691 24.217 144.035 18.4725 147.971 13.3672C152.075 8.024 159.292 3.58788 159.292 3.58788C159.292 3.58788 156.992 2.18027 151.361 5.38222C145.86 8.49495 136.353 15.9099 127.57 28.4252C118.787 40.9405 117.027 47.8302 115.758 53.2477C114.489 58.6653 115.644 64.4744 121.657 64.4794C127.669 64.4844 134.668 55.3098 136.64 52.1177C140.313 46.1699 142.707 37.0744 137.711 38.3284C135.233 38.943 133.25 41.6741 132.006 44.2763C131.209 45.9599 130.602 47.7273 130.197 49.5453C128.452 50.2635 126.813 51.2156 125.324 52.3755C123.673 53.6046 122.127 54.9708 120.705 56.4596C120.705 56.4596 120.705 52.1326 124.174 45.119C127.644 38.1055 133.974 34.8985 137.557 34.6011C140.794 34.3384 144.992 37.0793 141.433 47.2304C137.874 57.3814 127.342 69.669 116.279 69.8276C106.073 69.9713 99.3916 56.9404 113.602 34.2146C129.314 9.07482 147.773 1.36736 153.75 0.509872C159.728 -0.347615 161.681 2.29429 161.681 2.29429C165.289 0.81096 169.188 0.168528 173.081 0.415726C180.392 0.911383 186.052 6.08594 193.507 9.72406C191.559 11.6125 189.7 13.5505 188.055 15.3745L187.995 15.3796ZM220.907 6.91372C215.841 10.1652 208.823 13.1144 202.072 12.4601C200.372 14.2246 198.538 16.2617 196.709 18.4922C208.397 20.802 218.627 13.5704 224.074 7.39946C226.057 5.18845 227.761 2.74325 229.15 0.118283C226.675 2.70169 223.903 4.98273 220.892 6.91372H220.907ZM205.314 39.8451C205.401 39.6873 205.472 39.5213 205.527 39.3495C205.493 39.0815 205.369 38.8331 205.174 38.6462C204.979 38.4593 204.725 38.3454 204.456 38.3236C203.346 38.269 201.824 38.4822 197.849 42.8885C194.544 46.5274 191.702 50.5613 189.388 54.8983C187.103 59.0668 186.186 62.1647 187.495 62.9627C187.92 63.1801 188.411 63.2314 188.873 63.1064C189.765 62.8883 190.761 62.0656 192.298 60.2961C193.016 59.4683 193.814 58.2886 194.776 56.985C197.398 53.3965 204.015 42.1152 205.328 39.8352L205.314 39.8451ZM163.971 44.6282C164.635 42.8884 165.458 39.4784 163.723 38.1401C161.83 36.7176 157.017 40.0584 156.987 43.4735C156.957 46.9778 160.377 48.5638 161.2 48.7868C161.671 48.9107 161.835 48.8958 162.058 48.5191C162.787 47.2694 163.427 45.9691 163.971 44.6282ZM160.328 50.9974C159.137 50.4424 158.026 49.7325 157.022 48.8861C156.017 48.0423 155.177 47.0207 154.543 45.8724C154.479 45.7535 154.405 45.8427 154.335 45.9419C154.266 46.041 153.973 46.2985 151.396 50.0705C148.819 53.8424 144.883 61.6342 148.457 62.9576C150.742 63.8052 154.548 59.8053 156.63 57.1486C158.044 55.3007 159.324 53.3545 160.462 51.3246C160.561 51.0966 160.462 51.042 160.343 50.9974H160.328ZM200.833 60.0035C199.866 61.5549 198.766 64.5289 201.968 62.6751C205.869 60.4199 211.425 51.9938 211.425 51.9938H213.938C211.647 55.5198 209.094 58.8683 206.3 62.011C202.335 66.3877 197.527 70.3679 194.132 69.9713C190.166 69.5153 191.405 64.3008 191.405 64.3008C191.405 64.3008 185.71 70.348 181.805 69.9118C176.501 69.3269 178.117 62.7693 178.117 62.7693C178.117 62.7693 172.124 70.1398 168.04 69.9019C161.631 69.5351 163.247 61.7185 165.027 56.2514C165.983 53.3221 166.865 51.0124 166.865 51.0124C166.865 51.0124 166.226 51.1808 164.883 51.3791C164.169 51.4832 162.87 51.5526 162.87 51.5526C161.402 54.1448 159.8 56.6595 158.072 59.0867C155.936 61.9219 146.866 71.6665 141.527 69.7136C136.596 67.9094 138.226 60.3556 141.101 54.3482C145.294 45.5999 157.086 33.0349 163.901 34.6705C170.955 36.3855 164.065 49.2428 164.065 49.2428C164.065 49.2428 164.065 49.2924 164.134 49.3222C164.588 49.4038 165.054 49.38 165.497 49.2527C166.377 49.0727 167.24 48.8158 168.075 48.4845C168.075 48.4845 175.163 33.6395 182.994 23.9345C190.826 14.2295 206.444 -2.48892 212.575 1.55564C214.062 2.54695 213.393 5.97693 211.37 10.1355C210.478 10.4131 209.551 10.6609 208.605 10.8591C209.953 8.41059 210.85 6.3437 211.118 4.91125C212.035 -0.104801 200.322 10.4626 191.951 21.8478C186.91 28.7001 182.434 35.9508 178.568 43.528C180.079 42.6093 181.522 41.5822 182.885 40.4548C186.62 37.3608 190.17 34.0508 193.517 30.5417C196.739 27.2433 199.761 23.7561 202.568 20.0982C203.459 20.0561 204.348 19.9649 205.229 19.8255C202.17 23.9758 198.835 27.9153 195.247 31.6172C191.916 34.9926 188.308 38.6258 185.15 41.2726C182.347 43.6574 179.39 45.8547 176.298 47.85C176.298 47.85 168.957 62.596 172.942 63.5476C175.287 64.1077 179.911 56.9898 179.911 56.9898C179.911 56.9898 185.938 47.7855 189.576 43.6468C194.533 38.0062 198.806 34.7498 203.073 34.6804C205.551 34.6408 207.038 37.2875 207.038 37.2875L208.213 35.4784H215.41C215.41 35.4784 201.968 58.2787 200.892 60.0086L200.833 60.0035ZM220.847 6.92365C215.782 10.1752 208.763 13.1243 202.012 12.47C200.312 14.2346 198.478 16.2717 196.65 18.5021C208.337 20.8119 218.567 13.5803 224.015 7.40938C225.997 5.19837 227.702 2.75317 229.09 0.128206C226.616 2.71161 223.844 4.99265 220.833 6.92365H220.847ZM119.719 18.1205H112.908L109.037 24.3808H115.887L119.719 18.1205ZM87.3472 39.7658C90.2616 35.7708 98.3012 21.7834 98.3012 21.7834C98.267 21.5158 98.1421 21.2678 97.9473 21.0811C97.7524 20.8944 97.4995 20.7803 97.2306 20.7575C96.1203 20.703 94.2567 21.0795 90.5838 25.6892C86.911 30.2988 84.0411 33.9765 81.9544 37.7931C79.6694 41.9566 78.6732 44.896 79.9718 45.694C80.3955 45.9116 80.8852 45.9627 81.3448 45.8376C82.2023 45.6244 83.3274 44.7671 84.8491 43.0025C85.5727 42.1748 86.3856 41.0644 87.3274 39.7658H87.3472ZM50.5942 20.8417C48.7057 19.4142 43.888 22.755 43.8582 26.17C43.8285 29.6793 48.2051 30.6755 48.7702 30.7053C48.9 30.7436 49.0391 30.7365 49.1643 30.6852C49.2896 30.6338 49.3936 30.5413 49.4592 30.4228C49.9788 29.4167 50.4421 28.3825 50.847 27.325C51.5112 25.5902 52.334 22.18 50.5942 20.8417ZM47.7343 32.9059C46.4291 32.4984 45.1815 31.9254 44.0218 31.2009C42.902 30.4672 41.989 29.4586 41.37 28.2715C41.3056 28.1526 41.2313 28.2418 41.1668 28.341C41.1024 28.4401 40.7108 28.9257 38.1383 32.7027C35.5659 36.4796 31.7493 44.2119 35.3181 45.5353C37.608 46.3829 41.4493 42.368 43.5261 39.7113C45.0917 37.635 46.5364 35.4703 47.8532 33.2281C47.9524 33.005 47.8532 32.9456 47.7343 32.9059ZM103.679 35.2356H106.182C106.182 35.2356 93.6123 53.3965 86.5046 52.5836C82.5393 52.1276 83.714 47.2304 83.714 47.2304C83.714 47.2304 78.1329 53.7483 73.0425 52.4447C68.4032 51.2551 71.3969 43.5229 71.3969 43.5229C70.8715 43.736 60.8295 55.052 53.7813 52.3358C46.401 49.4907 50.2324 40.0136 51.6401 37.1636C52.8247 34.7646 54.1183 32.4253 54.1183 32.4253C54.1183 32.4253 52.9833 32.7425 52.2794 32.921C51.5756 33.0994 50.5099 33.2927 50.5099 33.2927C50.5099 33.2927 47.0404 38.963 44.8842 41.7932C42.7281 44.6234 33.6824 54.3579 28.3392 52.4149C22.996 50.472 24.3194 42.9975 27.3479 37.0496C32.2202 27.419 43.774 15.5926 50.7231 17.3671C57.6722 19.1415 51.9325 30.5615 51.9325 30.5615C51.9325 30.5615 53.3253 30.7399 56.6759 28.455C61.5135 25.1688 67.8679 16.3164 74.7624 17.3523C77.9991 17.8479 81.0127 21.1639 76.8888 27.4736C75.5654 29.4958 73.3548 31.3049 71.6547 29.5206C70.5989 28.4103 71.5159 26.3782 72.646 24.9854C73.0811 24.4193 73.6485 23.9687 74.2984 23.6731C74.9483 23.3776 75.6608 23.2462 76.3733 23.2903C76.3733 23.2903 77.5084 20.6731 74.6187 20.7227C72.2743 20.7673 66.3363 26.2345 62.9807 31.7561C59.9027 36.8217 55.2484 45.4609 59.9274 47.3444C64.2149 49.0742 72.3684 39.4139 76.1503 34.3235C79.9321 29.2331 88.5417 17.7487 95.7436 17.2828C98.2219 17.1242 99.7089 19.3894 99.7089 19.3894L100.547 18.066H107.753C107.753 18.066 94.1526 40.7572 93.0869 42.4771C92.2492 43.8253 91.139 46.8439 94.2219 45.1488C97.3049 43.4536 103.694 35.2356 103.694 35.2356H103.679ZM99.7386 71.6021C94.421 67.9229 88.0544 66.0655 81.5926 66.3083C79.8438 66.3559 78.1308 66.815 76.5927 67.6487C75.0546 68.4823 73.7347 69.6671 72.7402 71.1064C69.9992 66.3035 64.547 63.3492 56.1208 63.4286C42.5249 63.5822 29.0232 69.8722 18.3418 69.8474C8.08667 69.8474 0.617109 63.4038 0.864937 51.9641C1.31103 31.9048 18.2625 13.838 30.9364 5.70919C38.2176 1.03514 44.3192 -0.352494 48.2844 0.0935973C51.194 0.420731 54.6933 3.78113 52.4826 8.73275C49.2411 15.9892 44.7653 15.3795 44.9288 11.9148C45.023 9.65958 46.5199 8.24201 47.6451 7.45391C48.4567 7.01772 49.3656 6.7943 50.2869 6.80457C50.9263 6.26431 51.417 2.29411 46.2027 3.60265C40.9884 4.91118 34.7034 10.0463 28.711 16.6287C22.7185 23.211 13.4001 35.751 11.0953 48.881C10.0197 54.9726 10.7335 66.0753 25.1571 65.9514C37.385 65.8522 55.4516 57.8028 72.0363 57.9565C77.8129 57.9294 83.4867 59.484 88.4426 62.452C92.7499 65.1137 97.8948 68.9701 99.7138 71.6021" fill="black"/>
<path d="M94.0088 96.6984C94.6213 97.5376 94.9417 98.5543 94.9209 99.593C94.9377 100.52 94.6864 101.432 94.1972 102.22C93.6831 103.021 92.9455 103.653 92.0758 104.039C91.03 104.504 89.8938 104.729 88.7499 104.698H79.1242V86.4085H87.937C88.9635 86.3818 89.9819 86.5958 90.911 87.0331C91.692 87.4048 92.3481 87.9953 92.7994 88.7331C93.2065 89.4295 93.4296 90.2181 93.4478 91.0245C93.466 91.8309 93.2787 92.6288 92.9035 93.3428C92.5104 94.0464 91.9121 94.6134 91.1885 94.9685C92.3038 95.1929 93.3033 95.806 94.0088 96.6984ZM81.6174 88.5944V94.2845H87.7388C88.1749 94.3204 88.6138 94.2653 89.0276 94.1229C89.4414 93.9804 89.8211 93.7536 90.1427 93.4568C90.6595 92.9046 90.9373 92.1706 90.9159 91.4146C90.931 91.032 90.8625 90.6508 90.7153 90.2972C90.5681 89.9437 90.3456 89.6265 90.0634 89.3676C89.374 88.8103 88.4993 88.534 87.6148 88.5944H81.6174ZM91.3125 101.69C91.6234 101.412 91.8733 101.073 92.0464 100.694C92.2194 100.315 92.312 99.9048 92.318 99.4882C92.3241 99.0716 92.2435 98.6583 92.0815 98.2745C91.9195 97.8906 91.6796 97.5447 91.3769 97.2585C90.6339 96.6754 89.7024 96.386 88.7598 96.4455H81.6224V102.512H88.5318C89.5264 102.572 90.5104 102.281 91.3125 101.69Z" fill="black"/>
<path d="M106.584 90.8042V93.0891C106.116 92.9893 105.639 92.9378 105.161 92.9354C103.97 92.8881 102.801 93.2718 101.87 94.0161C101.438 94.3908 101.098 94.8594 100.875 95.3861C100.653 95.9128 100.554 96.4835 100.586 97.0544V104.697H98.1475V90.8538H100.462V93.0148C100.949 92.2173 101.671 91.5903 102.529 91.2205C103.366 90.8498 104.271 90.6559 105.186 90.6505C105.656 90.6435 106.126 90.6952 106.584 90.8042Z" fill="black"/>
<path d="M122.38 102.586V104.619C122 104.768 121.594 104.837 121.186 104.822C120.48 104.838 119.787 104.634 119.203 104.237C118.924 104.042 118.691 103.788 118.52 103.494C118.349 103.199 118.243 102.871 118.212 102.532C117.643 103.353 116.854 103.997 115.937 104.391C114.947 104.82 113.878 105.036 112.799 105.025C111.422 105.075 110.065 104.683 108.928 103.905C108.424 103.555 108.016 103.082 107.743 102.532C107.47 101.982 107.341 101.371 107.367 100.758C107.351 100.104 107.508 99.4574 107.822 98.8838C108.136 98.3102 108.597 97.8298 109.156 97.4912C110.352 96.7015 112.127 96.3081 114.479 96.3114H118.132V96.133C118.156 95.665 118.071 95.1979 117.885 94.768C117.698 94.3382 117.415 93.9571 117.057 93.6547C116.222 93.0255 115.192 92.7098 114.147 92.7626C113.352 92.7664 112.563 92.8952 111.808 93.1443C111.068 93.3784 110.378 93.75 109.776 94.2397L108.432 92.4601C109.205 91.8109 110.105 91.3299 111.074 91.0477C112.103 90.7369 113.172 90.5797 114.246 90.5816C116.18 90.5816 117.708 91.0642 118.831 92.0291C119.393 92.5201 119.837 93.1317 120.13 93.8183C120.423 94.5049 120.556 95.2488 120.521 95.9943V101.595C120.5 101.749 120.515 101.906 120.565 102.054C120.616 102.201 120.7 102.334 120.812 102.443C120.923 102.551 121.058 102.632 121.207 102.679C121.356 102.725 121.513 102.736 121.666 102.71C121.91 102.717 122.153 102.674 122.38 102.586ZM116.477 101.823C117.468 101.096 118.022 99.9282 118.137 98.3189H114.534C111.382 98.3189 109.805 99.1053 109.805 100.678C109.797 101.004 109.874 101.327 110.027 101.614C110.181 101.902 110.407 102.145 110.683 102.319C111.38 102.746 112.19 102.954 113.007 102.914C114.253 102.927 115.47 102.538 116.477 101.803V101.823Z" fill="black"/>
<path d="M127.282 102.284C128.234 102.636 129.241 102.818 130.256 102.819C131.147 102.858 132.033 102.662 132.824 102.249C133.106 102.114 133.345 101.904 133.515 101.641C133.685 101.379 133.778 101.074 133.785 100.762C133.795 100.561 133.755 100.361 133.668 100.179C133.582 99.9977 133.452 99.8403 133.29 99.7211C132.826 99.4204 132.301 99.2287 131.753 99.1609L128.07 98.5016C126.956 98.3543 125.907 97.8917 125.047 97.1683C124.726 96.8679 124.472 96.5035 124.302 96.0988C124.131 95.6941 124.047 95.2582 124.056 94.819C124.043 94.0219 124.298 93.2436 124.779 92.6084C125.323 91.9257 126.048 91.4103 126.871 91.1214C127.897 90.7504 128.982 90.5705 130.073 90.5909C131.125 90.5912 132.173 90.7364 133.186 91.0222C134.211 91.3108 135.172 91.7938 136.016 92.4448L134.722 94.2491C134.067 93.7412 133.327 93.3535 132.536 93.1041C131.693 92.8197 130.809 92.674 129.919 92.6728C129.078 92.6409 128.242 92.8289 127.495 93.2181C127.218 93.3448 126.982 93.5465 126.814 93.8006C126.646 94.0547 126.552 94.3508 126.544 94.6554C126.538 94.8542 126.586 95.0507 126.682 95.2249C126.778 95.3991 126.918 95.5447 127.089 95.6467C127.641 95.9606 128.249 96.1628 128.878 96.2416L132.308 96.8513C133.422 96.9951 134.468 97.4639 135.317 98.1993C135.638 98.5072 135.893 98.8786 136.063 99.2899C136.234 99.7011 136.317 100.143 136.308 100.589C136.319 101.412 136.056 102.216 135.56 102.873C135.006 103.573 134.273 104.109 133.438 104.425C132.433 104.812 131.363 105 130.286 104.98C129.043 104.975 127.807 104.788 126.618 104.425C125.513 104.125 124.48 103.606 123.58 102.898L124.849 100.995C125.588 101.548 126.409 101.983 127.282 102.284Z" fill="black"/>
<path d="M139.555 88.3408C139.409 88.1986 139.293 88.0288 139.214 87.8411C139.135 87.6534 139.094 87.4518 139.094 87.2481C139.094 87.0444 139.135 86.8426 139.214 86.6549C139.293 86.4672 139.409 86.2974 139.555 86.1552C139.87 85.8774 140.277 85.7241 140.697 85.7241C141.118 85.7241 141.524 85.8774 141.84 86.1552C141.984 86.2981 142.099 86.4683 142.177 86.6559C142.256 86.8435 142.296 87.0448 142.296 87.2481C142.296 87.4514 142.256 87.6527 142.177 87.8403C142.099 88.028 141.984 88.1979 141.84 88.3408C141.524 88.6186 141.118 88.7719 140.697 88.7719C140.277 88.7719 139.87 88.6186 139.555 88.3408ZM139.475 90.854H141.914V104.698H139.475V90.854Z" fill="black"/>
<path d="M148.392 85.5947V101.347C148.376 101.529 148.4 101.712 148.464 101.884C148.527 102.055 148.628 102.21 148.759 102.338C149.039 102.563 149.392 102.676 149.75 102.655C150.133 102.647 150.511 102.57 150.866 102.427V104.638C150.363 104.831 149.828 104.925 149.289 104.915C148.406 104.96 147.539 104.666 146.866 104.093C146.562 103.804 146.325 103.454 146.169 103.066C146.013 102.678 145.943 102.26 145.964 101.842V85.6095L148.392 85.5947Z" fill="black"/>
</g>
<defs>
<clipPath id="clip0_41_123">
<rect width="228.23" height="105" fill="white" transform="translate(0.874817)"/>
</clipPath>
</defs>
</svg>
