<svg width="91" height="91" viewBox="0 0 91 91" fill="none" xmlns="http://www.w3.org/2000/svg">
<g clip-path="url(#clip0_262_203)">
<path fill-rule="evenodd" clip-rule="evenodd" d="M45.7681 11.5435C27.1625 11.5435 12.0797 26.6263 12.0797 45.2319C12.0797 63.8375 27.1625 78.9203 45.7681 78.9203C64.3737 78.9203 79.4565 63.8375 79.4565 45.2319C79.4565 26.6263 64.3737 11.5435 45.7681 11.5435ZM10.7047 45.2319C10.7047 25.8669 26.4031 10.1685 45.7681 10.1685C65.1331 10.1685 80.8316 25.8669 80.8316 45.2319C80.8316 64.5969 65.1331 80.2954 45.7681 80.2954C26.4031 80.2954 10.7047 64.5969 10.7047 45.2319Z" fill="#DD0E1D"/>
<path fill-rule="evenodd" clip-rule="evenodd" d="M45.7132 9.2472C25.809 9.2472 9.67341 25.3827 9.67341 45.2869C9.67341 65.1911 25.809 81.3267 45.7132 81.3267C65.6174 81.3267 81.7529 65.1911 81.7529 45.2869C81.7529 25.3827 65.6174 9.2472 45.7132 9.2472ZM8.55963 45.2869C8.55963 24.7676 25.1938 8.13342 45.7132 8.13342C66.2325 8.13342 82.8667 24.7676 82.8667 45.2869C82.8667 65.8063 66.2325 82.4405 45.7132 82.4405C25.1938 82.4405 8.55963 65.8063 8.55963 45.2869Z" fill="#DD0E1D"/>
<path fill-rule="evenodd" clip-rule="evenodd" d="M45.665 6.95775C24.466 6.95775 7.28084 24.1429 7.28084 45.3419C7.28084 66.5409 24.466 83.7261 45.665 83.7261C66.864 83.7261 84.0492 66.5409 84.0492 45.3419C84.0492 24.1429 66.864 6.95775 45.665 6.95775ZM6.42831 45.3419C6.42831 23.6721 23.9952 6.10522 45.665 6.10522C67.3348 6.10522 84.9017 23.6721 84.9017 45.3419C84.9017 67.0118 67.3348 84.5786 45.665 84.5786C23.9952 84.5786 6.42831 67.0118 6.42831 45.3419Z" fill="#DD0E1D"/>
<path fill-rule="evenodd" clip-rule="evenodd" d="M45.61 4.6545C23.1124 4.6545 4.8745 22.8924 4.8745 45.39C4.8745 67.8876 23.1124 86.1255 45.61 86.1255C68.1076 86.1255 86.3455 67.8876 86.3455 45.39C86.3455 22.8924 68.1076 4.6545 45.61 4.6545ZM4.28323 45.39C4.28323 22.5659 22.7859 4.06323 45.61 4.06323C68.4341 4.06323 86.9368 22.5659 86.9368 45.39C86.9368 68.2141 68.4341 86.7168 45.61 86.7168C22.7859 86.7168 4.28323 68.2141 4.28323 45.39Z" fill="#DD0E1D"/>
<path fill-rule="evenodd" clip-rule="evenodd" d="M45.555 2.36504C21.7626 2.36504 2.47509 21.6526 2.47509 45.445C2.47509 69.2374 21.7626 88.5249 45.555 88.5249C69.3474 88.5249 88.635 69.2374 88.635 45.445C88.635 21.6526 69.3474 2.36504 45.555 2.36504ZM2.14508 45.445C2.14508 21.4703 21.5804 2.03503 45.555 2.03503C69.5297 2.03503 88.965 21.4703 88.965 45.445C88.965 69.4196 69.5297 88.8549 45.555 88.8549C21.5804 88.8549 2.14508 69.4196 2.14508 45.445Z" fill="#DD0E1D"/>
<path fill-rule="evenodd" clip-rule="evenodd" d="M45.5 0.0687519C20.409 0.0687519 0.0687519 20.409 0.0687519 45.5C0.0687519 70.591 20.409 90.9312 45.5 90.9312C70.591 90.9312 90.9312 70.591 90.9312 45.5C90.9312 20.409 70.591 0.0687519 45.5 0.0687519ZM0 45.5C0 20.371 20.371 0 45.5 0C70.629 0 91 20.371 91 45.5C91 70.629 70.629 91 45.5 91C20.371 91 0 70.629 0 45.5Z" fill="#DD0E1D"/>
</g>
<path d="M50.3715 30.92V59H43.2735V40.67C42.1815 41.424 41.0375 42.048 39.8415 42.542C38.6455 43.01 37.2805 43.426 35.7465 43.79V37.55C40.1145 36.458 42.9485 34.248 44.2485 30.92H50.3715Z" fill="#DD0E1D"/>
<defs>
<clipPath id="clip0_262_203">
<rect width="91" height="91" fill="white"/>
</clipPath>
</defs>
</svg>
