<svg width="658" height="658" viewBox="0 0 658 658" fill="none" xmlns="http://www.w3.org/2000/svg">
<path fill-rule="evenodd" clip-rule="evenodd" d="M329.353 92.5533C198.572 92.5533 92.5534 198.572 92.5534 329.353C92.5534 460.134 198.572 566.152 329.353 566.152C460.134 566.152 566.153 460.134 566.153 329.353C566.153 198.572 460.134 92.5533 329.353 92.5533ZM74.6963 329.353C74.6963 188.71 188.71 74.6962 329.353 74.6962C469.996 74.6962 584.01 188.71 584.01 329.353C584.01 469.996 469.996 584.01 329.353 584.01C188.71 584.01 74.6963 469.996 74.6963 329.353Z" fill="#DD0E1D"/>
<path fill-rule="evenodd" clip-rule="evenodd" d="M328.594 61.5178C181.092 61.5178 61.5176 181.092 61.5176 328.594C61.5176 476.096 181.092 595.67 328.594 595.67C476.095 595.67 595.669 476.096 595.669 328.594C595.669 181.092 476.095 61.5178 328.594 61.5178ZM47.2319 328.594C47.2319 173.202 173.202 47.2321 328.594 47.2321C483.985 47.2321 609.955 173.202 609.955 328.594C609.955 483.985 483.985 609.955 328.594 609.955C173.202 609.955 47.2319 483.985 47.2319 328.594Z" fill="#DD0E1D"/>
<path fill-rule="evenodd" clip-rule="evenodd" d="M329.001 33.732C165.929 33.732 33.7328 165.928 33.7328 329C33.7328 492.072 165.929 624.268 329.001 624.268C492.073 624.268 624.269 492.072 624.269 329C624.269 165.928 492.073 33.732 329.001 33.732ZM23.0186 329C23.0186 160.011 160.011 23.0177 329.001 23.0177C497.99 23.0177 634.983 160.011 634.983 329C634.983 497.989 497.99 634.982 329.001 634.982C160.011 634.982 23.0186 497.989 23.0186 329Z" fill="#DD0E1D"/>
<path fill-rule="evenodd" clip-rule="evenodd" d="M329 7.57132C151.48 7.57132 7.57157 151.48 7.57157 329C7.57157 506.52 151.48 650.429 329 650.429C506.52 650.429 650.429 506.52 650.429 329C650.429 151.48 506.52 7.57132 329 7.57132ZM0.428711 329C0.428711 147.535 147.535 0.428467 329 0.428467C510.465 0.428467 657.572 147.535 657.572 329C657.572 510.465 510.465 657.571 329 657.571C147.535 657.571 0.428711 510.465 0.428711 329Z" fill="#DD0E1D"/>
<path d="M363.797 224.857V425.429H313.097V294.5C305.297 299.886 297.125 304.343 288.583 307.872C280.04 311.215 270.29 314.186 259.333 316.786V272.215C290.533 264.415 310.775 248.629 320.061 224.857H363.797Z" fill="#DD0E1D"/>
</svg>
