<svg width="91" height="91" viewBox="0 0 91 91" fill="none" xmlns="http://www.w3.org/2000/svg">
<g clip-path="url(#clip0_262_202)">
<path fill-rule="evenodd" clip-rule="evenodd" d="M45.7681 11.5435C27.1625 11.5435 12.0797 26.6263 12.0797 45.2319C12.0797 63.8375 27.1625 78.9203 45.7681 78.9203C64.3737 78.9203 79.4565 63.8375 79.4565 45.2319C79.4565 26.6263 64.3737 11.5435 45.7681 11.5435ZM10.7047 45.2319C10.7047 25.8669 26.4031 10.1685 45.7681 10.1685C65.1331 10.1685 80.8316 25.8669 80.8316 45.2319C80.8316 64.5969 65.1331 80.2954 45.7681 80.2954C26.4031 80.2954 10.7047 64.5969 10.7047 45.2319Z" fill="#DD0E1D"/>
<path fill-rule="evenodd" clip-rule="evenodd" d="M45.7132 9.2472C25.809 9.2472 9.67341 25.3827 9.67341 45.2869C9.67341 65.1911 25.809 81.3267 45.7132 81.3267C65.6174 81.3267 81.7529 65.1911 81.7529 45.2869C81.7529 25.3827 65.6174 9.2472 45.7132 9.2472ZM8.55963 45.2869C8.55963 24.7676 25.1938 8.13342 45.7132 8.13342C66.2325 8.13342 82.8667 24.7676 82.8667 45.2869C82.8667 65.8063 66.2325 82.4405 45.7132 82.4405C25.1938 82.4405 8.55963 65.8063 8.55963 45.2869Z" fill="#DD0E1D"/>
<path fill-rule="evenodd" clip-rule="evenodd" d="M45.665 6.95775C24.466 6.95775 7.28084 24.1429 7.28084 45.3419C7.28084 66.5409 24.466 83.7261 45.665 83.7261C66.864 83.7261 84.0492 66.5409 84.0492 45.3419C84.0492 24.1429 66.864 6.95775 45.665 6.95775ZM6.42831 45.3419C6.42831 23.6721 23.9952 6.10522 45.665 6.10522C67.3348 6.10522 84.9017 23.6721 84.9017 45.3419C84.9017 67.0118 67.3348 84.5786 45.665 84.5786C23.9952 84.5786 6.42831 67.0118 6.42831 45.3419Z" fill="#DD0E1D"/>
<path fill-rule="evenodd" clip-rule="evenodd" d="M45.61 4.6545C23.1124 4.6545 4.8745 22.8924 4.8745 45.39C4.8745 67.8876 23.1124 86.1255 45.61 86.1255C68.1076 86.1255 86.3455 67.8876 86.3455 45.39C86.3455 22.8924 68.1076 4.6545 45.61 4.6545ZM4.28323 45.39C4.28323 22.5659 22.7859 4.06323 45.61 4.06323C68.4341 4.06323 86.9368 22.5659 86.9368 45.39C86.9368 68.2141 68.4341 86.7168 45.61 86.7168C22.7859 86.7168 4.28323 68.2141 4.28323 45.39Z" fill="#DD0E1D"/>
<path fill-rule="evenodd" clip-rule="evenodd" d="M45.555 2.36504C21.7626 2.36504 2.47509 21.6526 2.47509 45.445C2.47509 69.2374 21.7626 88.5249 45.555 88.5249C69.3474 88.5249 88.635 69.2374 88.635 45.445C88.635 21.6526 69.3474 2.36504 45.555 2.36504ZM2.14508 45.445C2.14508 21.4703 21.5804 2.03503 45.555 2.03503C69.5297 2.03503 88.965 21.4703 88.965 45.445C88.965 69.4196 69.5297 88.8549 45.555 88.8549C21.5804 88.8549 2.14508 69.4196 2.14508 45.445Z" fill="#DD0E1D"/>
<path fill-rule="evenodd" clip-rule="evenodd" d="M45.5 0.0687519C20.409 0.0687519 0.0687519 20.409 0.0687519 45.5C0.0687519 70.591 20.409 90.9312 45.5 90.9312C70.591 90.9312 90.9312 70.591 90.9312 45.5C90.9312 20.409 70.591 0.0687519 45.5 0.0687519ZM0 45.5C0 20.371 20.371 0 45.5 0C70.629 0 91 20.371 91 45.5C91 70.629 70.629 91 45.5 91C20.371 91 0 70.629 0 45.5Z" fill="#DD0E1D"/>
</g>
<path d="M37.5682 38.695C38.6602 37.785 39.8432 37.083 41.1172 36.589C42.3912 36.069 43.6912 35.809 45.0172 35.809C46.3432 35.809 47.4092 36.082 48.2152 36.628C49.0472 37.174 49.4632 37.876 49.4632 38.734C49.4632 39.462 49.2032 40.112 48.6832 40.684C48.1892 41.23 47.5652 41.724 46.8112 42.166C46.0572 42.582 44.9782 43.128 43.5742 43.804C41.3902 44.844 39.5962 45.819 38.1922 46.729C36.7882 47.639 35.5792 48.874 34.5652 50.434C33.5512 51.994 33.0442 53.905 33.0442 56.167V58H57.1852V51.76H42.0532C42.7032 51.136 43.4572 50.59 44.3152 50.122C45.1992 49.628 46.3822 49.017 47.8642 48.289C49.8142 47.353 51.3742 46.521 52.5442 45.793C53.7402 45.039 54.7542 44.051 55.5862 42.829C56.4182 41.581 56.8342 40.073 56.8342 38.305C56.8342 36.511 56.3662 34.951 55.4302 33.625C54.5202 32.273 53.1942 31.233 51.4522 30.505C49.7362 29.777 47.7212 29.413 45.4072 29.413C40.6492 29.413 36.6452 30.804 33.3952 33.586L37.5682 38.695Z" fill="#DD0E1D"/>
<defs>
<clipPath id="clip0_262_202">
<rect width="91" height="91" fill="white"/>
</clipPath>
</defs>
</svg>
