<svg width="658" height="658" viewBox="0 0 658 658" fill="none" xmlns="http://www.w3.org/2000/svg">
<path fill-rule="evenodd" clip-rule="evenodd" d="M329.353 92.5533C198.572 92.5533 92.5532 198.572 92.5532 329.353C92.5532 460.134 198.572 566.152 329.353 566.152C460.134 566.152 566.152 460.134 566.152 329.353C566.152 198.572 460.134 92.5533 329.353 92.5533ZM74.696 329.353C74.696 188.71 188.71 74.6962 329.353 74.6962C469.996 74.6962 584.009 188.71 584.009 329.353C584.009 469.996 469.996 584.01 329.353 584.01C188.71 584.01 74.696 469.996 74.696 329.353Z" fill="#DD0E1D"/>
<path fill-rule="evenodd" clip-rule="evenodd" d="M328.594 61.5178C181.092 61.5178 61.5176 181.092 61.5176 328.594C61.5176 476.096 181.092 595.67 328.594 595.67C476.095 595.67 595.669 476.096 595.669 328.594C595.669 181.092 476.095 61.5178 328.594 61.5178ZM47.2319 328.594C47.2319 173.202 173.202 47.2321 328.594 47.2321C483.985 47.2321 609.955 173.202 609.955 328.594C609.955 483.985 483.985 609.955 328.594 609.955C173.202 609.955 47.2319 483.985 47.2319 328.594Z" fill="#DD0E1D"/>
<path fill-rule="evenodd" clip-rule="evenodd" d="M329 33.732C165.929 33.732 33.7326 165.928 33.7326 329C33.7326 492.072 165.929 624.268 329 624.268C492.072 624.268 624.268 492.072 624.268 329C624.268 165.928 492.072 33.732 329 33.732ZM23.0183 329C23.0183 160.011 160.011 23.0177 329 23.0177C497.99 23.0177 634.983 160.011 634.983 329C634.983 497.989 497.99 634.982 329 634.982C160.011 634.982 23.0183 497.989 23.0183 329Z" fill="#DD0E1D"/>
<path fill-rule="evenodd" clip-rule="evenodd" d="M329 7.57132C151.48 7.57132 7.57132 151.48 7.57132 329C7.57132 506.52 151.48 650.429 329 650.429C506.52 650.429 650.429 506.52 650.429 329C650.429 151.48 506.52 7.57132 329 7.57132ZM0.428467 329C0.428467 147.535 147.535 0.428467 329 0.428467C510.465 0.428467 657.571 147.535 657.571 329C657.571 510.465 510.465 657.571 329 657.571C147.535 657.571 0.428467 510.465 0.428467 329Z" fill="#DD0E1D"/>
<path d="M272.344 280.393C280.144 273.893 288.594 268.878 297.694 265.35C306.794 261.635 316.08 259.778 325.551 259.778C335.023 259.778 342.637 261.728 348.394 265.628C354.337 269.528 357.308 274.543 357.308 280.671C357.308 285.871 355.451 290.514 351.737 294.6C348.208 298.5 343.751 302.028 338.366 305.185C332.98 308.157 325.273 312.057 315.244 316.885C299.644 324.314 286.83 331.278 276.801 337.778C266.773 344.278 258.137 353.1 250.894 364.243C243.651 375.385 240.03 389.035 240.03 405.193V418.285H412.466V373.714H304.38C309.023 369.257 314.408 365.357 320.537 362.014C326.851 358.485 335.301 354.121 345.887 348.921C359.816 342.235 370.958 336.293 379.316 331.093C387.858 325.707 395.101 318.65 401.044 309.921C406.987 301.007 409.958 290.235 409.958 277.607C409.958 264.793 406.616 253.65 399.93 244.178C393.43 234.521 383.958 227.093 371.516 221.893C359.258 216.693 344.866 214.093 328.337 214.093C294.351 214.093 265.751 224.028 242.537 243.9L272.344 280.393Z" fill="#DD0E1D"/>
</svg>
