<svg width="658" height="658" viewBox="0 0 658 658" fill="none" xmlns="http://www.w3.org/2000/svg">
<path fill-rule="evenodd" clip-rule="evenodd" d="M329.353 92.5533C198.572 92.5533 92.5532 198.572 92.5532 329.353C92.5532 460.134 198.572 566.152 329.353 566.152C460.134 566.152 566.152 460.134 566.152 329.353C566.152 198.572 460.134 92.5533 329.353 92.5533ZM74.696 329.353C74.696 188.71 188.71 74.6962 329.353 74.6962C469.996 74.6962 584.009 188.71 584.009 329.353C584.009 469.996 469.996 584.01 329.353 584.01C188.71 584.01 74.696 469.996 74.696 329.353Z" fill="#DD0E1D"/>
<path fill-rule="evenodd" clip-rule="evenodd" d="M328.594 61.5178C181.092 61.5178 61.5179 181.092 61.5179 328.594C61.5179 476.096 181.092 595.67 328.594 595.67C476.096 595.67 595.67 476.096 595.67 328.594C595.67 181.092 476.096 61.5178 328.594 61.5178ZM47.2322 328.594C47.2322 173.202 173.202 47.2321 328.594 47.2321C483.985 47.2321 609.955 173.202 609.955 328.594C609.955 483.985 483.985 609.955 328.594 609.955C173.202 609.955 47.2322 483.985 47.2322 328.594Z" fill="#DD0E1D"/>
<path fill-rule="evenodd" clip-rule="evenodd" d="M329 33.732C165.929 33.732 33.7326 165.928 33.7326 329C33.7326 492.072 165.929 624.268 329 624.268C492.072 624.268 624.268 492.072 624.268 329C624.268 165.928 492.072 33.732 329 33.732ZM23.0183 329C23.0183 160.011 160.011 23.0177 329 23.0177C497.99 23.0177 634.983 160.011 634.983 329C634.983 497.989 497.99 634.982 329 634.982C160.011 634.982 23.0183 497.989 23.0183 329Z" fill="#DD0E1D"/>
<path fill-rule="evenodd" clip-rule="evenodd" d="M329 7.57132C151.48 7.57132 7.57108 151.48 7.57108 329C7.57108 506.52 151.48 650.429 329 650.429C506.52 650.429 650.428 506.52 650.428 329C650.428 151.48 506.52 7.57132 329 7.57132ZM0.428223 329C0.428223 147.535 147.535 0.428467 329 0.428467C510.465 0.428467 657.571 147.535 657.571 329C657.571 510.465 510.465 657.571 329 657.571C147.535 657.571 0.428223 510.465 0.428223 329Z" fill="#DD0E1D"/>
<path d="M365.681 309.722C384.81 313.622 398.274 321.143 406.074 332.286C413.874 343.429 417.774 355.5 417.774 368.5C417.774 380.757 414.524 392.086 408.024 402.486C401.71 412.7 391.96 420.872 378.774 427C365.588 433.129 349.431 436.193 330.303 436.193C311.917 436.193 294.367 433.407 277.653 427.836C261.124 422.079 247.845 414.465 237.817 404.993L265.953 367.386C275.238 375 285.267 380.85 296.038 384.936C306.995 388.836 318.045 390.786 329.188 390.786C340.888 390.786 349.803 388.743 355.931 384.657C362.245 380.572 365.403 375.465 365.403 369.336C365.403 363.393 362.524 358.379 356.767 354.293C351.195 350.022 343.21 347.886 332.81 347.886C327.238 347.886 322.131 348.536 317.488 349.836C312.845 350.95 309.131 352.25 306.345 353.736L285.453 330.615L346.738 276.572H252.024V232H407.188V273.786L365.681 309.722Z" fill="#DD0E1D"/>
</svg>
