<svg width="91" height="91" viewBox="0 0 91 91" fill="none" xmlns="http://www.w3.org/2000/svg">
<g clip-path="url(#clip0_262_201)">
<path fill-rule="evenodd" clip-rule="evenodd" d="M45.7681 11.5435C27.1625 11.5435 12.0797 26.6263 12.0797 45.2319C12.0797 63.8375 27.1625 78.9203 45.7681 78.9203C64.3737 78.9203 79.4565 63.8375 79.4565 45.2319C79.4565 26.6263 64.3737 11.5435 45.7681 11.5435ZM10.7047 45.2319C10.7047 25.8669 26.4031 10.1685 45.7681 10.1685C65.1331 10.1685 80.8316 25.8669 80.8316 45.2319C80.8316 64.5969 65.1331 80.2954 45.7681 80.2954C26.4031 80.2954 10.7047 64.5969 10.7047 45.2319Z" fill="#DD0E1D"/>
<path fill-rule="evenodd" clip-rule="evenodd" d="M45.7132 9.24708C25.809 9.24708 9.67341 25.3826 9.67341 45.2868C9.67341 65.191 25.809 81.3266 45.7132 81.3266C65.6174 81.3266 81.7529 65.191 81.7529 45.2868C81.7529 25.3826 65.6174 9.24708 45.7132 9.24708ZM8.55963 45.2868C8.55963 24.7675 25.1938 8.1333 45.7132 8.1333C66.2325 8.1333 82.8667 24.7675 82.8667 45.2868C82.8667 65.8061 66.2325 82.4403 45.7132 82.4403C25.1938 82.4403 8.55963 65.8061 8.55963 45.2868Z" fill="#DD0E1D"/>
<path fill-rule="evenodd" clip-rule="evenodd" d="M45.665 6.95775C24.466 6.95775 7.28084 24.1429 7.28084 45.3419C7.28084 66.5409 24.466 83.7261 45.665 83.7261C66.864 83.7261 84.0492 66.5409 84.0492 45.3419C84.0492 24.1429 66.864 6.95775 45.665 6.95775ZM6.42831 45.3419C6.42831 23.6721 23.9952 6.10522 45.665 6.10522C67.3348 6.10522 84.9017 23.6721 84.9017 45.3419C84.9017 67.0118 67.3348 84.5786 45.665 84.5786C23.9952 84.5786 6.42831 67.0118 6.42831 45.3419Z" fill="#DD0E1D"/>
<path fill-rule="evenodd" clip-rule="evenodd" d="M45.61 4.65474C23.1124 4.65474 4.87447 22.8926 4.87447 45.3902C4.87447 67.8878 23.1124 86.1257 45.61 86.1257C68.1076 86.1257 86.3455 67.8878 86.3455 45.3902C86.3455 22.8926 68.1076 4.65474 45.61 4.65474ZM4.2832 45.3902C4.2832 22.5661 22.7858 4.06348 45.61 4.06348C68.4341 4.06348 86.9367 22.5661 86.9367 45.3902C86.9367 68.2144 68.4341 86.717 45.61 86.717C22.7858 86.717 4.2832 68.2144 4.2832 45.3902Z" fill="#DD0E1D"/>
<path fill-rule="evenodd" clip-rule="evenodd" d="M45.555 2.36492C21.7626 2.36492 2.47509 21.6525 2.47509 45.4449C2.47509 69.2373 21.7626 88.5248 45.555 88.5248C69.3474 88.5248 88.635 69.2373 88.635 45.4449C88.635 21.6525 69.3474 2.36492 45.555 2.36492ZM2.14508 45.4449C2.14508 21.4702 21.5804 2.03491 45.555 2.03491C69.5297 2.03491 88.965 21.4702 88.965 45.4449C88.965 69.4195 69.5297 88.8548 45.555 88.8548C21.5804 88.8548 2.14508 69.4195 2.14508 45.4449Z" fill="#DD0E1D"/>
<path fill-rule="evenodd" clip-rule="evenodd" d="M45.5 0.0687519C20.409 0.0687519 0.0687519 20.409 0.0687519 45.5C0.0687519 70.591 20.409 90.9312 45.5 90.9312C70.591 90.9312 90.9312 70.591 90.9312 45.5C90.9312 20.409 70.591 0.0687519 45.5 0.0687519ZM0 45.5C0 20.371 20.371 0 45.5 0C70.629 0 91 20.371 91 45.5C91 70.629 70.629 91 45.5 91C20.371 91 0 70.629 0 45.5Z" fill="#DD0E1D"/>
</g>
<path d="M50.6354 42.801C53.3134 43.347 55.1984 44.4 56.2904 45.96C57.3824 47.52 57.9284 49.21 57.9284 51.03C57.9284 52.746 57.4734 54.332 56.5634 55.788C55.6794 57.218 54.3144 58.362 52.4684 59.22C50.6224 60.078 48.3604 60.507 45.6824 60.507C43.1084 60.507 40.6514 60.117 38.3114 59.337C35.9974 58.531 34.1384 57.465 32.7344 56.139L36.6734 50.874C37.9734 51.94 39.3774 52.759 40.8854 53.331C42.4194 53.877 43.9664 54.15 45.5264 54.15C47.1644 54.15 48.4124 53.864 49.2704 53.292C50.1544 52.72 50.5964 52.005 50.5964 51.147C50.5964 50.315 50.1934 49.613 49.3874 49.041C48.6074 48.443 47.4894 48.144 46.0334 48.144C45.2534 48.144 44.5384 48.235 43.8884 48.417C43.2384 48.573 42.7184 48.755 42.3284 48.963L39.4034 45.726L47.9834 38.16H34.7234V31.92H56.4464V37.77L50.6354 42.801Z" fill="#DD0E1D"/>
<defs>
<clipPath id="clip0_262_201">
<rect width="91" height="91" fill="white"/>
</clipPath>
</defs>
</svg>
